<?xml version="1.0" encoding="UTF-8"?>
<svg id="Layer_2" data-name="Layer 2" xmlns="http://www.w3.org/2000/svg" xmlns:xlink="http://www.w3.org/1999/xlink" viewBox="0 0 792 612">
  <defs>
    <style>
      .cls-1 {
        fill: none;
      }

      .cls-2 {
        fill: #ff99c5;
      }

      .cls-3 {
        fill: url(#New_Pattern_2);
      }
    </style>
    <pattern id="New_Pattern_2" data-name="New Pattern 2" x="0" y="0" width="600" height="600" patternTransform="translate(-6115.92 -7010.19) scale(.06)" patternUnits="userSpaceOnUse" viewBox="0 0 600 600">
      <g>
        <rect class="cls-1" width="600" height="600"/>
        <path class="cls-2" d="m422.53,548.99c10.22.04,20.8,5.36,27.47,17.6,16.41-30.12,56.54-18.35,56.54,10.99,0,34.37-32.93,38.02-56.54,73.44-23.61-35.42-56.54-39.07-56.54-73.44,0-17.42,14.15-28.64,29.08-28.58h0Z"/>
        <path class="cls-2" d="m122.53,548.99c10.22.04,20.8,5.36,27.47,17.6,16.41-30.12,56.54-18.35,56.54,10.99,0,34.37-32.93,38.02-56.54,73.44-23.61-35.42-56.54-39.07-56.54-73.44,0-17.42,14.15-28.64,29.08-28.58h0Z"/>
        <path class="cls-2" d="m572.53,248.99c10.22.04,20.8,5.36,27.47,17.6,16.41-30.12,56.54-18.35,56.54,10.99,0,34.37-32.93,38.02-56.54,73.44-23.61-35.42-56.54-39.07-56.54-73.44,0-17.42,14.15-28.64,29.08-28.58h0Z"/>
        <path class="cls-2" d="m272.53,248.99c10.22.04,20.8,5.36,27.47,17.6,16.41-30.12,56.54-18.35,56.54,10.99,0,34.37-32.93,38.02-56.54,73.44-23.61-35.42-56.54-39.07-56.54-73.44,0-17.42,14.15-28.64,29.08-28.58h0Z"/>
        <path class="cls-2" d="m-27.47,248.99c10.22.04,20.8,5.36,27.47,17.6,16.41-30.12,56.54-18.35,56.54,10.99C56.54,311.94,23.61,315.59,0,351.01c-23.61-35.42-56.54-39.07-56.54-73.44,0-17.42,14.15-28.64,29.08-28.58h0Z"/>
        <path class="cls-2" d="m422.53-51.01c10.22.04,20.8,5.36,27.47,17.6,16.41-30.12,56.54-18.35,56.54,10.99,0,34.37-32.93,38.02-56.54,73.44-23.61-35.42-56.54-39.07-56.54-73.44,0-17.42,14.15-28.64,29.08-28.58h0Z"/>
        <path class="cls-2" d="m122.53-51.01c10.22.04,20.8,5.36,27.47,17.6,16.41-30.12,56.54-18.35,56.54,10.99,0,34.37-32.93,38.02-56.54,73.44C126.39,15.59,93.46,11.94,93.46-22.43c0-17.42,14.15-28.64,29.08-28.58h0Z"/>
      </g>
    </pattern>
  </defs>
  <g id="Layer_1-2" data-name="Layer 1">
    <rect class="cls-3" width="792" height="612"/>
  </g>
</svg>