<?xml version="1.0" encoding="UTF-8"?>
<svg id="Layer_2" data-name="Layer 2" xmlns="http://www.w3.org/2000/svg" viewBox="0 0 1174.03 1909.92">
  <defs>
    <style>
      .cls-1, .cls-2 {
        stroke-width: 6px;
      }

      .cls-1, .cls-2, .cls-3, .cls-4, .cls-5, .cls-6, .cls-7, .cls-8, .cls-9, .cls-10, .cls-11, .cls-12, .cls-13 {
        stroke: #2a2d7c;
      }

      .cls-1, .cls-2, .cls-13 {
        fill: none;
        stroke-linecap: round;
      }

      .cls-1, .cls-3, .cls-4, .cls-5, .cls-6, .cls-7, .cls-8, .cls-9, .cls-10, .cls-11, .cls-12, .cls-13 {
        stroke-miterlimit: 10;
      }

      .cls-2 {
        stroke-linejoin: round;
      }

      .cls-3 {
        fill: #7f3f98;
      }

      .cls-4 {
        fill: #9e7acc;
      }

      .cls-5 {
        fill: #ff99c5;
      }

      .cls-6 {
        fill: #ffaa7b;
      }

      .cls-7 {
        fill: #fff;
      }

      .cls-8 {
        fill: #c69b6d;
      }

      .cls-9 {
        fill: #231f20;
      }

      .cls-10 {
        fill: #5d207a;
      }

      .cls-11 {
        fill: #59c618;
      }

      .cls-12 {
        fill: #844d28;
      }

      .cls-13 {
        stroke-width: 10px;
      }
    </style>
  </defs>
  <g id="Layer_1-2" data-name="Layer 1">
    <g>
      <path class="cls-11" d="m985.13,1655.83c-24.77-34.23-68.21-50.35-108.5-36.8,16.07,47.77,62.63,76.17,108.5,68.71,45.87,7.46,92.43-20.94,108.5-68.71-40.29-13.55-83.74,2.57-108.5,36.8Z"/>
      <g>
        <path class="cls-6" d="m1032.85,1654.57c-17.38,0-33.68,4.65-47.72,12.77-14.04-8.12-30.34-12.77-47.72-12.77-52.71,0-95.44,42.73-95.44,95.44,0,118.93,143.16,156.91,143.16,156.91,0,0,143.16-37.99,143.16-156.91,0-52.71-42.73-95.44-95.44-95.44Z"/>
        <path class="cls-1" d="m985.13,1906.92s143.16-37.99,143.16-156.91c0-52.71-42.73-95.44-95.44-95.44-52.71,0-95.44,42.73-95.44,95.44,0,26.36,10.68,50.22,27.95,67.49"/>
      </g>
    </g>
    <g>
      <path class="cls-3" d="m987.86,876.11c10.6,18.25,22.32,35.83,36.19,50.41,28.76,30.23,56.22,21.8,84.06,69.64,13,22.33,22.32,76.51-30.3,110.14-41.8,26.71-96.68,16.06-135.12-18.98-44.6-40.66-68.57-103.32-81.89-161.97-18.01-79.32,87.6-119.31,127.07-49.23Z"/>
      <path class="cls-1" d="m1108.1,996.16c13,22.33,22.32,76.51-30.3,110.14-41.8,26.71-96.68,16.06-135.12-18.98-44.6-40.66-68.57-103.32-81.89-161.97"/>
      <path class="cls-11" d="m891.15,898.57c-7.78-18.6-7.86-39.1-.22-57.73,7.64-18.63,22.09-33.17,40.69-40.95l5.13,12.27c-15.32,6.41-27.22,18.39-33.51,33.73-6.29,15.34-6.23,32.23.18,47.54l-12.27,5.13Z"/>
      <path class="cls-11" d="m994.16,876.92c-15.75-37.66-59.06-55.42-96.72-39.66-37.66,15.75-55.42,59.06-39.66,96.72,16.7-6.99,29.49-19.4,37.17-34.32,7.84,8.78,20.04,15.16,36.06,17.83,9.34-13.29,13.37-26.45,12.62-38.2,16.03,5.01,33.84,4.62,50.54-2.37Z"/>
      <path class="cls-2" d="m897.44,837.25c-37.66,15.75-55.42,59.06-39.66,96.72,16.7-6.99,29.49-19.4,37.17-34.32,7.84,8.78,20.04,15.16,36.06,17.83"/>
    </g>
    <g>
      <path class="cls-5" d="m110.67,1622.29c-40.48-.16-78.83,30.27-78.83,77.49,0,93.18,89.28,103.08,153.29,199.1,64.01-96.02,153.29-105.92,153.29-199.1,0-79.52-108.79-111.43-153.29-29.79-18.08-33.17-46.76-47.6-74.46-47.7h0Z"/>
      <path class="cls-1" d="m338.42,1699.78c0-79.52-108.79-111.43-153.29-29.79-18.08-33.17-46.76-47.6-74.46-47.7h0"/>
      <path class="cls-1" d="m110.67,1622.29c-40.48-.16-78.83,30.27-78.83,77.49,0,93.18,89.28,103.08,153.29,199.1"/>
    </g>
    <g>
      <g>
        <path class="cls-10" d="m276.13,869.85c29.97-10.91,50.19-36.72,55.39-66.02,11.23,9.41,20.23,21.79,25.6,36.54,16.28,44.73-6.78,94.19-51.51,110.47l-29.48-80.99Z"/>
        <path class="cls-10" d="m94.12,869.85c-29.97-10.91-50.19-36.72-55.39-66.02-11.23,9.41-20.23,21.79-25.6,36.54-16.28,44.73,6.78,94.19,51.51,110.47l29.48-80.99Z"/>
      </g>
      <circle class="cls-3" cx="183.44" cy="973.46" r="143.87"/>
      <path class="cls-1" d="m327.31,973.46c0,79.46-64.41,143.87-143.87,143.87s-143.87-64.41-143.87-143.87,64.41-143.87,143.87-143.87"/>
      <g>
        <ellipse class="cls-9" cx="134.88" cy="983.5" rx="22.18" ry="35.37"/>
        <ellipse class="cls-9" cx="232" cy="983.5" rx="22.18" ry="35.37"/>
      </g>
      <path class="cls-13" d="m255.98,1047.28c-40.06,40.06-105.02,40.06-145.08,0"/>
      <g>
        <line class="cls-13" x1="209.82" y1="957.58" x2="263.55" y2="938.09"/>
        <line class="cls-13" x1="157.06" y1="957.58" x2="103.34" y2="938.09"/>
      </g>
    </g>
    <g>
      <g>
        <g>
          <circle class="cls-12" cx="1098.33" cy="84.2" r="75.2"/>
          <circle class="cls-8" cx="1098.33" cy="84.2" r="49.16"/>
        </g>
        <g>
          <circle class="cls-12" cx="871.92" cy="84.2" r="75.2"/>
          <circle class="cls-8" cx="871.92" cy="84.2" r="49.16"/>
        </g>
      </g>
      <path class="cls-1" d="m925.1,137.38c-29.37,29.37-76.98,29.37-106.35,0-29.37-29.37-29.37-76.98,0-106.35"/>
      <path class="cls-12" d="m1121.23,143.26c-10.36-65.85-67.35-116.21-136.11-116.21s-125.75,50.36-136.11,116.21c-21,17.52-34.37,43.89-34.37,73.38,0,52.76,42.77,95.53,95.53,95.53h149.89c52.76,0,95.53-42.77,95.53-95.53,0-29.49-13.37-55.85-34.37-73.38Z"/>
      <path class="cls-1" d="m985.13,27.05c-68.76,0-125.75,50.36-136.11,116.21-21,17.52-34.37,43.89-34.37,73.38,0,52.76,42.77,95.53,95.53,95.53h149.89c52.76,0,95.53-42.77,95.53-95.53"/>
      <g>
        <g>
          <ellipse class="cls-9" cx="924.31" cy="175.85" rx="23.46" ry="37.4"/>
          <ellipse class="cls-9" cx="1045.95" cy="175.85" rx="23.46" ry="37.4"/>
        </g>
        <g>
          <circle class="cls-8" cx="1030.92" cy="243.86" r="45.79"/>
          <circle class="cls-8" cx="985.13" cy="251.88" r="45.79"/>
          <circle class="cls-8" cx="939.33" cy="243.86" r="45.79"/>
          <path class="cls-9" d="m955.44,192.54c17.34-13.79,42.04-13.79,59.38,0,2.85,2.27,4.22,5.92,3.59,9.51-2.77,15.87-16.62,27.93-33.28,27.93s-30.5-12.06-33.28-27.93c-.63-3.59.73-7.24,3.59-9.51Z"/>
          <path class="cls-1" d="m1033.81,289.65c-26.89,0-48.69-21.8-48.69-48.69v-42.9,42.9c0,26.89-21.8,48.69-48.69,48.69"/>
        </g>
      </g>
    </g>
    <g>
      <path class="cls-5" d="m157.25,99.14l-30.4,21.95L63.49,11.75c-3.49-6.02,4.67-11.94,9.31-6.76l84.45,94.16Z"/>
      <path class="cls-2" d="m126.85,121.1L63.49,11.75c-3.49-6.02,4.67-11.94,9.31-6.76l33.18,37"/>
      <path class="cls-4" d="m305.39,318.16c-56.34-15.87-109.88-101.36-105.14-165.14,1.35-18.1,7.41-39.51-4.4-49.53-11.36-9.64-27.53,3.72-43.41-6.75-18.59-12.26-39.99-47.23-13.98-78.35-3.22,13.57,11.38,24.34,36.41,10.86,52.09-28.05,96.63,2.71,115.09,53.37,104.69,92.08,78.5,181.63,60.83,235.54h-45.42Z"/>
      <path class="cls-4" d="m102.89,281.26l-14.42,8.54c-22.82,13.5-51.88,9.83-70.63-8.92-22.12-22.12-22.07-27.02,17.79-66.88l67.26,67.26Z"/>
      <path class="cls-7" d="m154.08,318.16l31.79-58.65c-9.71,4.4-20.47,6.67-31.56,6.36l-24.23-.68-27.19,16.08-67.26-67.26c66.31-62.41,52.5-75.05,74.1-96.65,60.56-60.56,136.2-43.06,167.98,12.5,39.5,69.07,27.69,188.3,27.69,188.3h-151.31Z"/>
      <ellipse class="cls-9" cx="17.4" cy="258.06" rx="7.53" ry="11.82" transform="translate(-16.42 1.63) rotate(-3.66)"/>
      <path class="cls-1" d="m157.25,143.52c-5.06,5.75-13.83,6.31-19.59,1.25"/>
      <ellipse class="cls-9" cx="132.83" cy="163.19" rx="14.62" ry="23.31"/>
      <path class="cls-4" d="m243.47,278.6c13.39-71.93,107.85-62.25,49.07-151.26-73.15-5.28-125.43,101.59-49.07,151.26Z"/>
      <path class="cls-4" d="m313.32,307.56c-58.27-3.98-82.5-121.31-32.08-156.71l48.73,69.85-16.65,86.86Z"/>
      <path class="cls-4" d="m217.78,72.68s-1.29,31.44-25.7,43.43c31.33,36.48,85.62,13.75,85.62,13.75l-26.27-50.51-33.66-6.67Z"/>
      <path class="cls-2" d="m277.71,129.86c-31.78-55.57-107.42-73.06-167.98-12.5-21.6,21.6-7.79,34.24-74.1,96.65-39.86,39.86-39.92,44.76-17.79,66.88,18.75,18.75,47.81,22.42,70.63,8.92l14.42-8.54,27.19-16.08,24.23.68c11.1.31,21.86-1.95,31.57-6.36l-31.79,58.65"/>
      <path class="cls-1" d="m79.69,275.33c-2.1,11.99-13.52,20.02-25.51,17.92"/>
      <path class="cls-7" d="m185.45,122.07c24.89,0,45.06-20.17,45.06-45.06s-20.17-45.06-45.06-45.06v90.12Z"/>
    </g>
  </g>
</svg>