<?xml version="1.0" encoding="UTF-8"?>
<svg id="Layer_2" data-name="Layer 2" xmlns="http://www.w3.org/2000/svg" xmlns:xlink="http://www.w3.org/1999/xlink" viewBox="0 0 414.01 125.68">
  <defs>
    <style>
      .cls-1 {
        fill: none;
        stroke: url(#Outline_Gradient);
        stroke-linecap: round;
        stroke-linejoin: round;
        stroke-width: 1.5px;
      }

      .cls-2 {
        font-family: Jumble, Jumble;
        font-size: 94.35px;
      }
    </style>
    <linearGradient id="Outline_Gradient" data-name="Outline Gradient" x1="89.48" y1="163.39" x2="319.45" y2="-66.58" gradientUnits="userSpaceOnUse">
      <stop offset="0" stop-color="#41bfff"/>
      <stop offset=".19" stop-color="#7f3f98"/>
      <stop offset=".48" stop-color="#ff43b3"/>
      <stop offset=".77" stop-color="#ffcd2e"/>
      <stop offset="1" stop-color="#59c618"/>
    </linearGradient>
  </defs>
  <g id="Layer_1-2" data-name="Layer 1">
    <text class="cls-2" transform="translate(0 79.44)"><tspan x="0" y="0">MPX NYC</tspan></text>
    <path class="cls-1" d="m31.98,16.78c1.42,2.36,10,23.77,10,23.77,0,0,1.98-9.53,3.68-16.04,2.26-8.87,4.15-11.13,9.53-11.13,8.68,0,14.62,1.89,16.79,6.6,2.08,4.62,8.96,28.11,8.96,45.1,0,12.55-14.53,13.11-18.11,13.11s-4.53-1.51-4.53-3.3,1.79-6.89,1.79-14.25-1.42-16.51-3.21-16.51-5.09,16.79-5.09,24.53c0,6.7-3.68,7.36-7.36,7.36-6.51,0-11.23-1.23-11.6-5.19-.85-9.53-3.68-22.45-6.13-22.45s-2.36,6.7-2.36,12.93c0,10.19,1.7,11.79,1.7,14.72,0,2.74-3.4,3.96-8.3,3.96-10.19,0-16.7-2.74-16.7-9.53,0-9.53,3.59-38.3,5.85-46.32,1.89-6.79,2.26-8.11,6.23-9.25,3.87-1.04,9.91-1.79,12.93-1.79,2.64,0,4.43,1.23,5.94,3.68Zm107.18,20.85c0,13.3-11.98,23.3-23.11,23.3-3.77,0-5.57-1.32-6.42-1.32s-.85.47-.85,1.89c-.09,6.04,1.98,9.06,1.98,11.98s-2.26,4.91-7.17,4.91-14.43-1.79-16.51-7.92c-2.17-6.04-3.4-15.76-3.4-27.36s.66-21.7,2.83-24.53c2.26-2.74,12.55-6.04,21.98-6.04,18.02,0,30.66,9.72,30.66,25.1Zm-30.47-6.51c-.94.47-1.13,5-1.13,6.7s0,3.21,2.83,3.21,5.75-2.83,5.75-5.57-2.36-5.09-4.91-5.09c-1.04,0-1.7.19-2.55.75Zm98.31-16.04c0,3.3-4.53,8.4-8.4,15.19-3.87,6.79-6.79,12.08-6.79,14.43,0,2.92,3.4,7.83,8.96,14.15,2.17,2.45,5.28,3.87,5.28,6.23,0,5.38-9.34,13.3-16.7,13.3-5.76,0-12.74-14.81-13.02-15.57-.47.75-9.53,17.27-16.89,17.27-5.38,0-15.85-5.47-15.85-9.06,0-4.25,15.38-14.81,15.38-23.59,0-1.7-3.96-6.51-7.55-11.79-3.49-5.19-6.98-9.25-6.98-11.42,0-4.53,11.42-11.04,16.6-11.04s6.7,2.74,9.34,7.55c2.17,4.06,5,10.85,5.28,11.51.19-.75,5.19-14.81,10.76-17.55,4.06-1.98,12.55-2.83,15.47-2.83,3.21,0,5.09.94,5.09,3.21Zm83.4,3.11c.66,4.15,1.23,16.51,1.23,23.11,0,18.3-2.17,29.72-5.19,32.17-3.87,3.21-10,4.53-15.19,4.53-3.4,0-5.28-3.77-7.64-8.68-2.36-4.81-9.62-25.94-12.26-25.94-.85,0-1.13,1.6-1.13,4.34,0,13.21,5.38,22.27,5.38,25.57,0,2.83-6.23,6.23-13.4,6.23s-10.57-1.7-11.6-6.23c-1.04-4.53-2.08-14.15-2.08-22.74,0-16.04.94-26.32,1.51-29.81.57-3.59,2.08-5.28,3.77-5.85,1.89-.66,8.4-1.42,12.64-1.42s9.53,1.51,13.11,8.11c2.36,4.25,10.47,23.59,11.89,23.59.85,0,.94-1.13.94-2.55,0-9.81-6.98-21.42-6.98-25.85,0-2.36,6.13-5.09,12.27-5.09,6.98,0,11.98,2.26,12.74,6.51Zm3.78,9.34c0-5.66,2.64-8.59,8.96-11.7,5.19-2.55,9.43-3.11,10.76-3.11,1.42,0,3.4,1.23,3.4,3.96,0,10.85,2.36,25.66,5.19,25.66,2.55,0,3.77-6.51,3.77-13.3,0-4.34-.75-8.11-.75-10.66,0-3.4,10.19-6.42,17.55-6.42,4.43,0,6.32,2.45,6.32,4.81,0,12.45-5.38,29.34-13.4,42.08-8.02,12.74-16.32,20.47-24.81,20.47-4.72,0-11.51-5.85-11.51-8.11,0-3.77,8.02-7.55,8.02-12.08,0-4.81-13.49-21.98-13.49-31.61Zm114.82,3.02c0,7.26-8.21,13.21-14.53,13.21-1.89,0-3.21-1.04-3.21-2.26,0-5.85-1.42-9.06-4.91-9.06s-8.3,3.4-8.3,13.87c0,7.74,3.68,13.87,9.72,13.87,6.89,0,11.04-6.79,13.87-6.79s10.94,6.13,10.94,11.32c0,3.4-10,14.34-26.7,14.34-21.79,0-32.74-13.77-32.74-31.7,0-21.6,16.51-34.53,32.93-34.53,13.87,0,22.93,7.74,22.93,17.74Z"/>
  </g>
</svg>