<?xml version="1.0" encoding="UTF-8"?><svg id="Layer_1" xmlns="http://www.w3.org/2000/svg" viewBox="0 0 400 400"><defs><style>.cls-1{stroke:#231f20;stroke-miterlimit:10;}.cls-1,.cls-2,.cls-3{fill:none;stroke-linecap:round;stroke-width:6px;}.cls-4{fill:#fff;}.cls-5{fill:#ff99c5;}.cls-6{fill:#9e7acc;}.cls-7{fill:#231f20;}.cls-2{stroke:#f73c95;}.cls-2,.cls-3{stroke-linejoin:round;}.cls-3{stroke:#9e7acc;}</style></defs><path class="cls-5" d="M172.12,138.56l-30.4,21.95L78.36,51.17c-3.49-6.02,4.67-11.94,9.31-6.76l84.45,94.16Z"/><path class="cls-2" d="M141.72,160.52L78.36,51.17c-3.49-6.02,4.67-11.94,9.31-6.76l33.18,37"/><path class="cls-6" d="M320.27,357.58c-56.34-15.87-109.88-101.36-105.14-165.14,1.35-18.1,7.41-39.51-4.4-49.53-11.36-9.64-27.53,3.72-43.41-6.75-18.59-12.26-39.99-47.23-13.98-78.35-3.22,13.57,11.38,24.34,36.41,10.86,52.09-28.05,96.63,2.71,115.09,53.37,104.69,92.08,78.5,181.63,60.83,235.54h-45.42Z"/><path class="cls-6" d="M117.77,320.68l-14.42,8.54c-22.82,13.5-51.88,9.83-70.63-8.92-22.12-22.12-22.07-27.02,17.79-66.88l67.26,67.26Z"/><path class="cls-4" d="M168.95,357.58l31.79-58.65c-9.71,4.4-20.47,6.67-31.56,6.36l-24.23-.68-27.19,16.08L50.5,253.42c66.31-62.41,52.5-75.05,74.1-96.65,60.56-60.56,136.2-43.06,167.98,12.5,39.5,69.07,27.69,188.3,27.69,188.3H168.95Z"/><ellipse class="cls-7" cx="32.27" cy="297.48" rx="7.53" ry="11.82" transform="translate(-18.91 2.66) rotate(-3.66)"/><path class="cls-1" d="M172.12,182.94c-5.06,5.75-13.83,6.31-19.59,1.25"/><ellipse class="cls-7" cx="147.71" cy="202.61" rx="14.62" ry="23.31"/><path class="cls-6" d="M258.35,318.02c13.39-71.93,107.85-62.25,49.07-151.26-73.15-5.28-125.43,101.59-49.07,151.26Z"/><path class="cls-6" d="M328.2,346.98c-58.27-3.98-82.5-121.31-32.08-156.71l48.73,69.85-16.65,86.86Z"/><path class="cls-6" d="M232.65,112.09s-1.29,31.44-25.7,43.43c31.33,36.48,85.62,13.75,85.62,13.75l-26.27-50.51-33.66-6.67Z"/><path class="cls-3" d="M292.58,169.28c-31.78-55.57-107.42-73.06-167.98-12.5-21.6,21.6-7.79,34.24-74.1,96.65-39.86,39.86-39.92,44.76-17.79,66.88,18.75,18.75,47.81,22.42,70.63,8.92l14.42-8.54,27.19-16.08,24.23,.68c11.1,.31,21.86-1.95,31.57-6.36l-31.79,58.65"/><path class="cls-1" d="M94.56,314.74c-2.1,11.99-13.52,20.02-25.51,17.92"/><path class="cls-4" d="M200.33,161.49c24.89,0,45.06-20.17,45.06-45.06s-20.17-45.06-45.06-45.06v90.12Z"/></svg>