<?xml version="1.0" encoding="UTF-8"?><svg id="Layer_1" xmlns="http://www.w3.org/2000/svg" viewBox="0 0 400 400"><defs><style>.cls-1{stroke:#5d207a;stroke-miterlimit:10;}.cls-1,.cls-2{fill:none;stroke-linecap:round;stroke-width:6px;}.cls-2{stroke:#459b0e;stroke-linejoin:round;}.cls-3{fill:#7f3f98;}.cls-4{fill:#59c618;}</style></defs><path class="cls-3" d="M202.73,115.52c10.6,18.25,22.32,35.83,36.19,50.41,28.76,30.23,56.22,21.8,84.06,69.64,13,22.33,22.32,76.51-30.3,110.14-41.8,26.71-96.68,16.06-135.12-18.98-44.6-40.66-68.57-103.32-81.89-161.97-18.01-79.32,87.6-119.31,127.07-49.23Z"/><path class="cls-1" d="M322.98,235.58c13,22.33,22.32,76.51-30.3,110.14-41.8,26.71-96.68,16.06-135.12-18.98-44.6-40.66-68.57-103.32-81.89-161.97"/><path class="cls-4" d="M106.02,137.99c-7.78-18.6-7.86-39.1-.22-57.73,7.64-18.63,22.09-33.17,40.69-40.95l5.13,12.27c-15.32,6.41-27.22,18.39-33.51,33.73s-6.23,32.23,.18,47.54l-12.27,5.13Z"/><path class="cls-4" d="M209.03,116.33c-15.75-37.66-59.06-55.42-96.72-39.66-37.66,15.75-55.42,59.06-39.66,96.72,16.7-6.99,29.49-19.4,37.17-34.32,7.84,8.78,20.04,15.16,36.06,17.83,9.34-13.29,13.37-26.45,12.62-38.2,16.03,5.01,33.84,4.62,50.54-2.37Z"/><path class="cls-2" d="M112.31,76.67c-37.66,15.75-55.42,59.06-39.66,96.72,16.7-6.99,29.49-19.4,37.17-34.32,7.84,8.78,20.04,15.16,36.06,17.83"/></svg>