<?xml version="1.0" encoding="UTF-8"?><svg id="Layer_1" xmlns="http://www.w3.org/2000/svg" viewBox="0 0 400 400"><defs><style>.cls-1{fill:none;stroke:#f73c95;stroke-linecap:round;stroke-miterlimit:10;stroke-width:6px;}.cls-2{fill:#ff99c5;}</style></defs><path class="cls-2" d="M125.54,61.71c-40.48-.16-78.83,30.27-78.83,77.49,0,93.18,89.28,103.08,153.29,199.1,64.01-96.02,153.29-105.92,153.29-199.1,0-79.52-108.79-111.43-153.29-29.79-18.08-33.17-46.76-47.6-74.46-47.7h0Z"/><path class="cls-1" d="M353.29,139.2c0-79.52-108.79-111.43-153.29-29.79-18.08-33.17-46.76-47.6-74.46-47.7h0"/><path class="cls-1" d="M125.54,61.71c-40.48-.16-78.83,30.27-78.83,77.49,0,93.18,89.28,103.08,153.29,199.1"/></svg>