<?xml version="1.0" encoding="UTF-8"?><svg id="Layer_1" xmlns="http://www.w3.org/2000/svg" viewBox="0 0 400 400"><defs><style>.cls-1{stroke:#5d207a;stroke-width:6px;}.cls-1,.cls-2{fill:none;stroke-linecap:round;stroke-miterlimit:10;}.cls-3{fill:#7f3f98;}.cls-4{fill:#231f20;}.cls-5{fill:#5d207a;}.cls-2{stroke:#231f20;stroke-width:10px;}</style></defs><g><path class="cls-5" d="M291,109.27c29.97-10.91,50.19-36.72,55.39-66.02,11.23,9.41,20.23,21.79,25.6,36.54,16.28,44.73-6.78,94.19-51.51,110.47l-29.48-80.99Z"/><path class="cls-5" d="M109,109.27c-29.97-10.91-50.19-36.72-55.39-66.02-11.23,9.41-20.23,21.79-25.6,36.54-16.28,44.73,6.78,94.19,51.51,110.47l29.48-80.99Z"/></g><circle class="cls-3" cx="198.31" cy="212.88" r="143.87"/><path class="cls-1" d="M342.19,212.88c0,79.46-64.41,143.87-143.87,143.87S54.44,292.34,54.44,212.88,118.85,69,198.31,69"/><g><ellipse class="cls-4" cx="149.76" cy="222.92" rx="22.18" ry="35.37"/><ellipse class="cls-4" cx="246.87" cy="222.92" rx="22.18" ry="35.37"/></g><path class="cls-2" d="M270.85,286.7c-40.06,40.06-105.02,40.06-145.08,0"/><g><line class="cls-2" x1="224.69" y1="197" x2="278.42" y2="177.51"/><line class="cls-2" x1="171.94" y1="197" x2="118.21" y2="177.51"/></g></svg>