<?xml version="1.0" encoding="utf-8"?>
<!-- Generator: Adobe Illustrator 27.4.1, SVG Export Plug-In . SVG Version: 6.00 Build 0)  -->
<svg version="1.1" id="Layer_1" xmlns="http://www.w3.org/2000/svg" xmlns:xlink="http://www.w3.org/1999/xlink" x="0px" y="0px"
	 viewBox="0 0 896 896" style="enable-background:new 0 0 896 896;" xml:space="preserve">
<style type="text/css">
	.st0{fill:#59C618;}
	.st1{fill:#FFAA7B;}
	.st2{fill:none;stroke:#EA773D;stroke-width:1.0675;stroke-linecap:round;stroke-miterlimit:10;}
</style>
<g>
	<path class="st0" d="M39.5,17.7c-4.4-6.1-12.1-9-19.3-6.5c2.9,8.5,11.1,13.6,19.3,12.2c8.2,1.3,16.4-3.7,19.3-12.2
		C51.7,8.8,43.9,11.6,39.5,17.7z"/>
	<g>
		<path class="st1" d="M48,17.5c-3.1,0-6,0.8-8.5,2.3c-2.5-1.4-5.4-2.3-8.5-2.3c-9.4,0-17,7.6-17,17c0,21.2,25.5,27.9,25.5,27.9
			S65,55.6,65,34.5C65,25.1,57.4,17.5,48,17.5z"/>
		<path class="st2" d="M39.5,62.4c0,0,25.5-6.8,25.5-27.9c0-9.4-7.6-17-17-17c-9.4,0-17,7.6-17,17c0,4.7,1.9,8.9,5,12"/>
	</g>
</g>
<g>
	<path class="st0" d="M217.1,17.7c-4.4-6.1-12.1-9-19.3-6.5c2.9,8.5,11.1,13.6,19.3,12.2c8.2,1.3,16.4-3.7,19.3-12.2
		C229.2,8.8,221.5,11.6,217.1,17.7z"/>
	<g>
		<path class="st1" d="M225.6,17.5c-3.1,0-6,0.8-8.5,2.3c-2.5-1.4-5.4-2.3-8.5-2.3c-9.4,0-17,7.6-17,17c0,21.2,25.5,27.9,25.5,27.9
			s25.5-6.8,25.5-27.9C242.6,25.1,235,17.5,225.6,17.5z"/>
		<path class="st2" d="M217.1,62.4c0,0,25.5-6.8,25.5-27.9c0-9.4-7.6-17-17-17c-9.4,0-17,7.6-17,17c0,4.7,1.9,8.9,5,12"/>
	</g>
</g>
<g>
	<path class="st0" d="M394.7,17.7c-4.4-6.1-12.1-9-19.3-6.5c2.9,8.5,11.1,13.6,19.3,12.2c8.2,1.3,16.4-3.7,19.3-12.2
		C406.8,8.8,399.1,11.6,394.7,17.7z"/>
	<g>
		<path class="st1" d="M403.2,17.5c-3.1,0-6,0.8-8.5,2.3c-2.5-1.4-5.4-2.3-8.5-2.3c-9.4,0-17,7.6-17,17c0,21.2,25.5,27.9,25.5,27.9
			s25.5-6.8,25.5-27.9C420.1,25.1,412.5,17.5,403.2,17.5z"/>
		<path class="st2" d="M394.7,62.4c0,0,25.5-6.8,25.5-27.9c0-9.4-7.6-17-17-17c-9.4,0-17,7.6-17,17c0,4.7,1.9,8.9,5,12"/>
	</g>
</g>
<g>
	<path class="st0" d="M39.5,171c-4.4-6.1-12.1-9-19.3-6.5c2.9,8.5,11.1,13.6,19.3,12.2c8.2,1.3,16.4-3.7,19.3-12.2
		C51.7,162.1,43.9,164.9,39.5,171z"/>
	<g>
		<path class="st1" d="M48,170.8c-3.1,0-6,0.8-8.5,2.3c-2.5-1.4-5.4-2.3-8.5-2.3c-9.4,0-17,7.6-17,17c0,21.2,25.5,27.9,25.5,27.9
			S65,208.9,65,187.8C65,178.4,57.4,170.8,48,170.8z"/>
		<path class="st2" d="M39.5,215.7c0,0,25.5-6.8,25.5-27.9c0-9.4-7.6-17-17-17c-9.4,0-17,7.6-17,17c0,4.7,1.9,8.9,5,12"/>
	</g>
</g>
<g>
	<path class="st0" d="M217.3,171c-4.4-6.1-12.1-9-19.3-6.5c2.9,8.5,11.1,13.6,19.3,12.2c8.2,1.3,16.4-3.7,19.3-12.2
		C229.4,162.1,221.7,164.9,217.3,171z"/>
	<g>
		<path class="st1" d="M225.8,170.8c-3.1,0-6,0.8-8.5,2.3c-2.5-1.4-5.4-2.3-8.5-2.3c-9.4,0-17,7.6-17,17c0,21.2,25.5,27.9,25.5,27.9
			s25.5-6.8,25.5-27.9C242.7,178.4,235.1,170.8,225.8,170.8z"/>
		<path class="st2" d="M217.3,215.7c0,0,25.5-6.8,25.5-27.9c0-9.4-7.6-17-17-17c-9.4,0-17,7.6-17,17c0,4.7,1.9,8.9,5,12"/>
	</g>
</g>
<g>
	<path class="st0" d="M395,171c-4.4-6.1-12.1-9-19.3-6.5c2.9,8.5,11.1,13.6,19.3,12.2c8.2,1.3,16.4-3.7,19.3-12.2
		C407.1,162.1,399.4,164.9,395,171z"/>
	<g>
		<path class="st1" d="M403.5,170.8c-3.1,0-6,0.8-8.5,2.3c-2.5-1.4-5.4-2.3-8.5-2.3c-9.4,0-17,7.6-17,17c0,21.2,25.5,27.9,25.5,27.9
			s25.5-6.8,25.5-27.9C420.5,178.4,412.9,170.8,403.5,170.8z"/>
		<path class="st2" d="M395,215.7c0,0,25.5-6.8,25.5-27.9c0-9.4-7.6-17-17-17c-9.4,0-17,7.6-17,17c0,4.7,1.9,8.9,5,12"/>
	</g>
</g>
<g>
	<path class="st0" d="M39.5,324.3c-4.4-6.1-12.1-9-19.3-6.5c2.9,8.5,11.1,13.6,19.3,12.2c8.2,1.3,16.4-3.7,19.3-12.2
		C51.7,315.4,43.9,318.2,39.5,324.3z"/>
	<g>
		<path class="st1" d="M48,324.1c-3.1,0-6,0.8-8.5,2.3c-2.5-1.4-5.4-2.3-8.5-2.3c-9.4,0-17,7.6-17,17c0,21.2,25.5,27.9,25.5,27.9
			S65,362.2,65,341.1C65,331.7,57.4,324.1,48,324.1z"/>
		<path class="st2" d="M39.5,369c0,0,25.5-6.8,25.5-27.9c0-9.4-7.6-17-17-17c-9.4,0-17,7.6-17,17c0,4.7,1.9,8.9,5,12"/>
	</g>
</g>
<g>
	<path class="st0" d="M218.1,324.3c-4.4-6.1-12.1-9-19.3-6.5c2.9,8.5,11.1,13.6,19.3,12.2c8.2,1.3,16.4-3.7,19.3-12.2
		C230.3,315.4,222.5,318.2,218.1,324.3z"/>
	<g>
		<path class="st1" d="M226.6,324.1c-3.1,0-6,0.8-8.5,2.3c-2.5-1.4-5.4-2.3-8.5-2.3c-9.4,0-17,7.6-17,17c0,21.2,25.5,27.9,25.5,27.9
			s25.5-6.8,25.5-27.9C243.6,331.7,236,324.1,226.6,324.1z"/>
		<path class="st2" d="M218.1,369c0,0,25.5-6.8,25.5-27.9c0-9.4-7.6-17-17-17c-9.4,0-17,7.6-17,17c0,4.7,1.9,8.9,5,12"/>
	</g>
</g>
<g>
	<path class="st0" d="M396.7,324.3c-4.4-6.1-12.1-9-19.3-6.5c2.9,8.5,11.1,13.6,19.3,12.2c8.2,1.3,16.4-3.7,19.3-12.2
		C408.9,315.4,401.1,318.2,396.7,324.3z"/>
	<g>
		<path class="st1" d="M405.2,324.1c-3.1,0-6,0.8-8.5,2.3c-2.5-1.4-5.4-2.3-8.5-2.3c-9.4,0-17,7.6-17,17c0,21.2,25.5,27.9,25.5,27.9
			s25.5-6.8,25.5-27.9C422.2,331.7,414.6,324.1,405.2,324.1z"/>
		<path class="st2" d="M396.7,369c0,0,25.5-6.8,25.5-27.9c0-9.4-7.6-17-17-17c-9.4,0-17,7.6-17,17c0,4.7,1.9,8.9,5,12"/>
	</g>
</g>
<g>
	<path class="st0" d="M43.5,477.5c-4.4-6.1-12.1-9-19.3-6.5c2.9,8.5,11.1,13.6,19.3,12.2c8.2,1.3,16.4-3.7,19.3-12.2
		C55.7,468.5,47.9,471.4,43.5,477.5z"/>
	<g>
		<path class="st1" d="M52,477.2c-3.1,0-6,0.8-8.5,2.3c-2.5-1.4-5.4-2.3-8.5-2.3c-9.4,0-17,7.6-17,17c0,21.2,25.5,27.9,25.5,27.9
			S69,515.4,69,494.2C69,484.8,61.4,477.2,52,477.2z"/>
		<path class="st2" d="M43.5,522.1c0,0,25.5-6.8,25.5-27.9c0-9.4-7.6-17-17-17c-9.4,0-17,7.6-17,17c0,4.7,1.9,8.9,5,12"/>
	</g>
</g>
<g>
	<path class="st0" d="M221.1,477.5c-4.4-6.1-12.1-9-19.3-6.5c2.9,8.5,11.1,13.6,19.3,12.2c8.2,1.3,16.4-3.7,19.3-12.2
		C233.2,468.5,225.5,471.4,221.1,477.5z"/>
	<g>
		<path class="st1" d="M229.6,477.2c-3.1,0-6,0.8-8.5,2.3c-2.5-1.4-5.4-2.3-8.5-2.3c-9.4,0-17,7.6-17,17c0,21.2,25.5,27.9,25.5,27.9
			s25.5-6.8,25.5-27.9C246.6,484.8,239,477.2,229.6,477.2z"/>
		<path class="st2" d="M221.1,522.1c0,0,25.5-6.8,25.5-27.9c0-9.4-7.6-17-17-17c-9.4,0-17,7.6-17,17c0,4.7,1.9,8.9,5,12"/>
	</g>
</g>
<g>
	<path class="st0" d="M398.7,477.5c-4.4-6.1-12.1-9-19.3-6.5c2.9,8.5,11.1,13.6,19.3,12.2c8.2,1.3,16.4-3.7,19.3-12.2
		C410.8,468.5,403.1,471.4,398.7,477.5z"/>
	<g>
		<path class="st1" d="M407.2,477.2c-3.1,0-6,0.8-8.5,2.3c-2.5-1.4-5.4-2.3-8.5-2.3c-9.4,0-17,7.6-17,17c0,21.2,25.5,27.9,25.5,27.9
			s25.5-6.8,25.5-27.9C424.2,484.8,416.5,477.2,407.2,477.2z"/>
		<path class="st2" d="M398.7,522.1c0,0,25.5-6.8,25.5-27.9c0-9.4-7.6-17-17-17c-9.4,0-17,7.6-17,17c0,4.7,1.9,8.9,5,12"/>
	</g>
</g>
<g>
	<path class="st0" d="M43.5,630.8c-4.4-6.1-12.1-9-19.3-6.5c2.9,8.5,11.1,13.6,19.3,12.2c8.2,1.3,16.4-3.7,19.3-12.2
		C55.7,621.8,47.9,624.7,43.5,630.8z"/>
	<g>
		<path class="st1" d="M52,630.5c-3.1,0-6,0.8-8.5,2.3c-2.5-1.4-5.4-2.3-8.5-2.3c-9.4,0-17,7.6-17,17c0,21.2,25.5,27.9,25.5,27.9
			S69,668.7,69,647.5C69,638.1,61.4,630.5,52,630.5z"/>
		<path class="st2" d="M43.5,675.4c0,0,25.5-6.8,25.5-27.9c0-9.4-7.6-17-17-17c-9.4,0-17,7.6-17,17c0,4.7,1.9,8.9,5,12"/>
	</g>
</g>
<g>
	<path class="st0" d="M221.3,630.8c-4.4-6.1-12.1-9-19.3-6.5c2.9,8.5,11.1,13.6,19.3,12.2c8.2,1.3,16.4-3.7,19.3-12.2
		C233.4,621.8,225.7,624.7,221.3,630.8z"/>
	<g>
		<path class="st1" d="M229.8,630.5c-3.1,0-6,0.8-8.5,2.3c-2.5-1.4-5.4-2.3-8.5-2.3c-9.4,0-17,7.6-17,17c0,21.2,25.5,27.9,25.5,27.9
			s25.5-6.8,25.5-27.9C246.7,638.1,239.1,630.5,229.8,630.5z"/>
		<path class="st2" d="M221.3,675.4c0,0,25.5-6.8,25.5-27.9c0-9.4-7.6-17-17-17c-9.4,0-17,7.6-17,17c0,4.7,1.9,8.9,5,12"/>
	</g>
</g>
<g>
	<path class="st0" d="M399,630.8c-4.4-6.1-12.1-9-19.3-6.5c2.9,8.5,11.1,13.6,19.3,12.2c8.2,1.3,16.4-3.7,19.3-12.2
		C411.1,621.8,403.4,624.7,399,630.8z"/>
	<g>
		<path class="st1" d="M407.5,630.5c-3.1,0-6,0.8-8.5,2.3c-2.5-1.4-5.4-2.3-8.5-2.3c-9.4,0-17,7.6-17,17c0,21.2,25.5,27.9,25.5,27.9
			s25.5-6.8,25.5-27.9C424.5,638.1,416.9,630.5,407.5,630.5z"/>
		<path class="st2" d="M399,675.4c0,0,25.5-6.8,25.5-27.9c0-9.4-7.6-17-17-17s-17,7.6-17,17c0,4.7,1.9,8.9,5,12"/>
	</g>
</g>
<g>
	<path class="st0" d="M43.5,784.1c-4.4-6.1-12.1-9-19.3-6.5c2.9,8.5,11.1,13.6,19.3,12.2c8.2,1.3,16.4-3.7,19.3-12.2
		C55.7,775.1,47.9,778,43.5,784.1z"/>
	<g>
		<path class="st1" d="M52,783.8c-3.1,0-6,0.8-8.5,2.3c-2.5-1.4-5.4-2.3-8.5-2.3c-9.4,0-17,7.6-17,17c0,21.2,25.5,27.9,25.5,27.9
			S69,822,69,800.8C69,791.5,61.4,783.8,52,783.8z"/>
		<path class="st2" d="M43.5,828.7c0,0,25.5-6.8,25.5-27.9c0-9.4-7.6-17-17-17c-9.4,0-17,7.6-17,17c0,4.7,1.9,8.9,5,12"/>
	</g>
</g>
<g>
	<path class="st0" d="M222.1,784.1c-4.4-6.1-12.1-9-19.3-6.5c2.9,8.5,11.1,13.6,19.3,12.2c8.2,1.3,16.4-3.7,19.3-12.2
		C234.3,775.1,226.5,778,222.1,784.1z"/>
	<g>
		<path class="st1" d="M230.6,783.8c-3.1,0-6,0.8-8.5,2.3c-2.5-1.4-5.4-2.3-8.5-2.3c-9.4,0-17,7.6-17,17c0,21.2,25.5,27.9,25.5,27.9
			s25.5-6.8,25.5-27.9C247.6,791.5,240,783.8,230.6,783.8z"/>
		<path class="st2" d="M222.1,828.7c0,0,25.5-6.8,25.5-27.9c0-9.4-7.6-17-17-17c-9.4,0-17,7.6-17,17c0,4.7,1.9,8.9,5,12"/>
	</g>
</g>
<g>
	<path class="st0" d="M400.7,784.1c-4.4-6.1-12.1-9-19.3-6.5c2.9,8.5,11.1,13.6,19.3,12.2c8.2,1.3,16.4-3.7,19.3-12.2
		C412.9,775.1,405.1,778,400.7,784.1z"/>
	<g>
		<path class="st1" d="M409.2,783.8c-3.1,0-6,0.8-8.5,2.3c-2.5-1.4-5.4-2.3-8.5-2.3c-9.4,0-17,7.6-17,17c0,21.2,25.5,27.9,25.5,27.9
			s25.5-6.8,25.5-27.9C426.2,791.5,418.6,783.8,409.2,783.8z"/>
		<path class="st2" d="M400.7,828.7c0,0,25.5-6.8,25.5-27.9c0-9.4-7.6-17-17-17c-9.4,0-17,7.6-17,17c0,4.7,1.9,8.9,5,12"/>
	</g>
</g>
<g>
	<path class="st0" d="M560.4,17.7c-4.4-6.1-12.1-9-19.3-6.5c2.9,8.5,11.1,13.6,19.3,12.2c8.2,1.3,16.4-3.7,19.3-12.2
		C572.5,8.8,564.8,11.6,560.4,17.7z"/>
	<g>
		<path class="st1" d="M568.9,17.5c-3.1,0-6,0.8-8.5,2.3c-2.5-1.4-5.4-2.3-8.5-2.3c-9.4,0-17,7.6-17,17c0,21.2,25.5,27.9,25.5,27.9
			s25.5-6.8,25.5-27.9C585.9,25.1,578.3,17.5,568.9,17.5z"/>
		<path class="st2" d="M560.4,62.4c0,0,25.5-6.8,25.5-27.9c0-9.4-7.6-17-17-17c-9.4,0-17,7.6-17,17c0,4.7,1.9,8.9,5,12"/>
	</g>
</g>
<g>
	<path class="st0" d="M738,17.7c-4.4-6.1-12.1-9-19.3-6.5c2.9,8.5,11.1,13.6,19.3,12.2c8.2,1.3,16.4-3.7,19.3-12.2
		C750.1,8.8,742.4,11.6,738,17.7z"/>
	<g>
		<path class="st1" d="M746.5,17.5c-3.1,0-6,0.8-8.5,2.3c-2.5-1.4-5.4-2.3-8.5-2.3c-9.4,0-17,7.6-17,17c0,21.2,25.5,27.9,25.5,27.9
			s25.5-6.8,25.5-27.9C763.4,25.1,755.8,17.5,746.5,17.5z"/>
		<path class="st2" d="M738,62.4c0,0,25.5-6.8,25.5-27.9c0-9.4-7.6-17-17-17c-9.4,0-17,7.6-17,17c0,4.7,1.9,8.9,5,12"/>
	</g>
</g>
<g>
	<path class="st0" d="M915.5,17.7c-4.4-6.1-12.1-9-19.3-6.5c2.9,8.5,11.1,13.6,19.3,12.2c8.2,1.3,16.4-3.7,19.3-12.2
		C927.7,8.8,920,11.6,915.5,17.7z"/>
	<g>
		<path class="st1" d="M924,17.5c-3.1,0-6,0.8-8.5,2.3c-2.5-1.4-5.4-2.3-8.5-2.3c-9.4,0-17,7.6-17,17c0,21.2,25.5,27.9,25.5,27.9
			S941,55.6,941,34.5C941,25.1,933.4,17.5,924,17.5z"/>
		<path class="st2" d="M915.5,62.4c0,0,25.5-6.8,25.5-27.9c0-9.4-7.6-17-17-17c-9.4,0-17,7.6-17,17c0,4.7,1.9,8.9,5,12"/>
	</g>
</g>
<g>
	<path class="st0" d="M560.4,171c-4.4-6.1-12.1-9-19.3-6.5c2.9,8.5,11.1,13.6,19.3,12.2c8.2,1.3,16.4-3.7,19.3-12.2
		C572.5,162.1,564.8,164.9,560.4,171z"/>
	<g>
		<path class="st1" d="M568.9,170.8c-3.1,0-6,0.8-8.5,2.3c-2.5-1.4-5.4-2.3-8.5-2.3c-9.4,0-17,7.6-17,17c0,21.2,25.5,27.9,25.5,27.9
			s25.5-6.8,25.5-27.9C585.9,178.4,578.3,170.8,568.9,170.8z"/>
		<path class="st2" d="M560.4,215.7c0,0,25.5-6.8,25.5-27.9c0-9.4-7.6-17-17-17c-9.4,0-17,7.6-17,17c0,4.7,1.9,8.9,5,12"/>
	</g>
</g>
<g>
	<path class="st0" d="M738.1,171c-4.4-6.1-12.1-9-19.3-6.5c2.9,8.5,11.1,13.6,19.3,12.2c8.2,1.3,16.4-3.7,19.3-12.2
		C750.3,162.1,742.5,164.9,738.1,171z"/>
	<g>
		<path class="st1" d="M746.6,170.8c-3.1,0-6,0.8-8.5,2.3c-2.5-1.4-5.4-2.3-8.5-2.3c-9.4,0-17,7.6-17,17c0,21.2,25.5,27.9,25.5,27.9
			s25.5-6.8,25.5-27.9C763.6,178.4,756,170.8,746.6,170.8z"/>
		<path class="st2" d="M738.1,215.7c0,0,25.5-6.8,25.5-27.9c0-9.4-7.6-17-17-17c-9.4,0-17,7.6-17,17c0,4.7,1.9,8.9,5,12"/>
	</g>
</g>
<g>
	<path class="st0" d="M915.9,171c-4.4-6.1-12.1-9-19.3-6.5c2.9,8.5,11.1,13.6,19.3,12.2c8.2,1.3,16.4-3.7,19.3-12.2
		C928,162.1,920.3,164.9,915.9,171z"/>
	<g>
		<path class="st1" d="M924.4,170.8c-3.1,0-6,0.8-8.5,2.3c-2.5-1.4-5.4-2.3-8.5-2.3c-9.4,0-17,7.6-17,17c0,21.2,25.5,27.9,25.5,27.9
			s25.5-6.8,25.5-27.9C941.3,178.4,933.7,170.8,924.4,170.8z"/>
		<path class="st2" d="M915.9,215.7c0,0,25.5-6.8,25.5-27.9c0-9.4-7.6-17-17-17c-9.4,0-17,7.6-17,17c0,4.7,1.9,8.9,5,12"/>
	</g>
</g>
<g>
	<path class="st0" d="M560.4,324.3c-4.4-6.1-12.1-9-19.3-6.5c2.9,8.5,11.1,13.6,19.3,12.2c8.2,1.3,16.4-3.7,19.3-12.2
		C572.5,315.4,564.8,318.2,560.4,324.3z"/>
	<g>
		<path class="st1" d="M568.9,324.1c-3.1,0-6,0.8-8.5,2.3c-2.5-1.4-5.4-2.3-8.5-2.3c-9.4,0-17,7.6-17,17c0,21.2,25.5,27.9,25.5,27.9
			s25.5-6.8,25.5-27.9C585.9,331.7,578.3,324.1,568.9,324.1z"/>
		<path class="st2" d="M560.4,369c0,0,25.5-6.8,25.5-27.9c0-9.4-7.6-17-17-17s-17,7.6-17,17c0,4.7,1.9,8.9,5,12"/>
	</g>
</g>
<g>
	<path class="st0" d="M739,324.3c-4.4-6.1-12.1-9-19.3-6.5c2.9,8.5,11.1,13.6,19.3,12.2c8.2,1.3,16.4-3.7,19.3-12.2
		C751.1,315.4,743.4,318.2,739,324.3z"/>
	<g>
		<path class="st1" d="M747.5,324.1c-3.1,0-6,0.8-8.5,2.3c-2.5-1.4-5.4-2.3-8.5-2.3c-9.4,0-17,7.6-17,17c0,21.2,25.5,27.9,25.5,27.9
			s25.5-6.8,25.5-27.9C764.5,331.7,756.9,324.1,747.5,324.1z"/>
		<path class="st2" d="M739,369c0,0,25.5-6.8,25.5-27.9c0-9.4-7.6-17-17-17s-17,7.6-17,17c0,4.7,1.9,8.9,5,12"/>
	</g>
</g>
<g>
	<path class="st0" d="M917.6,324.3c-4.4-6.1-12.1-9-19.3-6.5c2.9,8.5,11.1,13.6,19.3,12.2c8.2,1.3,16.4-3.7,19.3-12.2
		C929.7,315.4,922,318.2,917.6,324.3z"/>
	<g>
		<path class="st1" d="M926.1,324.1c-3.1,0-6,0.8-8.5,2.3c-2.5-1.4-5.4-2.3-8.5-2.3c-9.4,0-17,7.6-17,17c0,21.2,25.5,27.9,25.5,27.9
			s25.5-6.8,25.5-27.9C943.1,331.7,935.5,324.1,926.1,324.1z"/>
		<path class="st2" d="M917.6,369c0,0,25.5-6.8,25.5-27.9c0-9.4-7.6-17-17-17c-9.4,0-17,7.6-17,17c0,4.7,1.9,8.9,5,12"/>
	</g>
</g>
<g>
	<path class="st0" d="M564.4,477.5c-4.4-6.1-12.1-9-19.3-6.5c2.9,8.5,11.1,13.6,19.3,12.2c8.2,1.3,16.4-3.7,19.3-12.2
		C576.5,468.5,568.8,471.4,564.4,477.5z"/>
	<g>
		<path class="st1" d="M572.9,477.2c-3.1,0-6,0.8-8.5,2.3c-2.5-1.4-5.4-2.3-8.5-2.3c-9.4,0-17,7.6-17,17c0,21.2,25.5,27.9,25.5,27.9
			s25.5-6.8,25.5-27.9C589.9,484.8,582.3,477.2,572.9,477.2z"/>
		<path class="st2" d="M564.4,522.1c0,0,25.5-6.8,25.5-27.9c0-9.4-7.6-17-17-17s-17,7.6-17,17c0,4.7,1.9,8.9,5,12"/>
	</g>
</g>
<g>
	<path class="st0" d="M742,477.5c-4.4-6.1-12.1-9-19.3-6.5c2.9,8.5,11.1,13.6,19.3,12.2c8.2,1.3,16.4-3.7,19.3-12.2
		C754.1,468.5,746.4,471.4,742,477.5z"/>
	<g>
		<path class="st1" d="M750.5,477.2c-3.1,0-6,0.8-8.5,2.3c-2.5-1.4-5.4-2.3-8.5-2.3c-9.4,0-17,7.6-17,17c0,21.2,25.5,27.9,25.5,27.9
			s25.5-6.8,25.5-27.9C767.5,484.8,759.9,477.2,750.5,477.2z"/>
		<path class="st2" d="M742,522.1c0,0,25.5-6.8,25.5-27.9c0-9.4-7.6-17-17-17c-9.4,0-17,7.6-17,17c0,4.7,1.9,8.9,5,12"/>
	</g>
</g>
<g>
	<path class="st0" d="M919.6,477.5c-4.4-6.1-12.1-9-19.3-6.5c2.9,8.5,11.1,13.6,19.3,12.2c8.2,1.3,16.4-3.7,19.3-12.2
		C931.7,468.5,924,471.4,919.6,477.5z"/>
	<g>
		<path class="st1" d="M928,477.2c-3.1,0-6,0.8-8.5,2.3c-2.5-1.4-5.4-2.3-8.5-2.3c-9.4,0-17,7.6-17,17c0,21.2,25.5,27.9,25.5,27.9
			s25.5-6.8,25.5-27.9C945,484.8,937.4,477.2,928,477.2z"/>
		<path class="st2" d="M919.6,522.1c0,0,25.5-6.8,25.5-27.9c0-9.4-7.6-17-17-17s-17,7.6-17,17c0,4.7,1.9,8.9,5,12"/>
	</g>
</g>
<g>
	<path class="st0" d="M564.4,630.8c-4.4-6.1-12.1-9-19.3-6.5c2.9,8.5,11.1,13.6,19.3,12.2c8.2,1.3,16.4-3.7,19.3-12.2
		C576.5,621.8,568.8,624.7,564.4,630.8z"/>
	<g>
		<path class="st1" d="M572.9,630.5c-3.1,0-6,0.8-8.5,2.3c-2.5-1.4-5.4-2.3-8.5-2.3c-9.4,0-17,7.6-17,17c0,21.2,25.5,27.9,25.5,27.9
			s25.5-6.8,25.5-27.9C589.9,638.1,582.3,630.5,572.9,630.5z"/>
		<path class="st2" d="M564.4,675.4c0,0,25.5-6.8,25.5-27.9c0-9.4-7.6-17-17-17s-17,7.6-17,17c0,4.7,1.9,8.9,5,12"/>
	</g>
</g>
<g>
	<path class="st0" d="M742.1,630.8c-4.4-6.1-12.1-9-19.3-6.5c2.9,8.5,11.1,13.6,19.3,12.2c8.2,1.3,16.4-3.7,19.3-12.2
		C754.3,621.8,746.6,624.7,742.1,630.8z"/>
	<g>
		<path class="st1" d="M750.6,630.5c-3.1,0-6,0.8-8.5,2.3c-2.5-1.4-5.4-2.3-8.5-2.3c-9.4,0-17,7.6-17,17c0,21.2,25.5,27.9,25.5,27.9
			s25.5-6.8,25.5-27.9C767.6,638.1,760,630.5,750.6,630.5z"/>
		<path class="st2" d="M742.1,675.4c0,0,25.5-6.8,25.5-27.9c0-9.4-7.6-17-17-17s-17,7.6-17,17c0,4.7,1.9,8.9,5,12"/>
	</g>
</g>
<g>
	<path class="st0" d="M919.9,630.8c-4.4-6.1-12.1-9-19.3-6.5c2.9,8.5,11.1,13.6,19.3,12.2c8.2,1.3,16.4-3.7,19.3-12.2
		C932,621.8,924.3,624.7,919.9,630.8z"/>
	<g>
		<path class="st1" d="M928.4,630.5c-3.1,0-6,0.8-8.5,2.3c-2.5-1.4-5.4-2.3-8.5-2.3c-9.4,0-17,7.6-17,17c0,21.2,25.5,27.9,25.5,27.9
			s25.5-6.8,25.5-27.9C945.3,638.1,937.7,630.5,928.4,630.5z"/>
		<path class="st2" d="M919.9,675.4c0,0,25.5-6.8,25.5-27.9c0-9.4-7.6-17-17-17s-17,7.6-17,17c0,4.7,1.9,8.9,5,12"/>
	</g>
</g>
<g>
	<path class="st0" d="M564.4,784.1c-4.4-6.1-12.1-9-19.3-6.5c2.9,8.5,11.1,13.6,19.3,12.2c8.2,1.3,16.4-3.7,19.3-12.2
		C576.5,775.1,568.8,778,564.4,784.1z"/>
	<g>
		<path class="st1" d="M572.9,783.9c-3.1,0-6,0.8-8.5,2.3c-2.5-1.4-5.4-2.3-8.5-2.3c-9.4,0-17,7.6-17,17c0,21.2,25.5,27.9,25.5,27.9
			s25.5-6.8,25.5-27.9C589.9,791.5,582.3,783.9,572.9,783.9z"/>
		<path class="st2" d="M564.4,828.7c0,0,25.5-6.8,25.5-27.9c0-9.4-7.6-17-17-17c-9.4,0-17,7.6-17,17c0,4.7,1.9,8.9,5,12"/>
	</g>
</g>
<g>
	<path class="st0" d="M743,784.1c-4.4-6.1-12.1-9-19.3-6.5c2.9,8.5,11.1,13.6,19.3,12.2c8.2,1.3,16.4-3.7,19.3-12.2
		C755.1,775.1,747.4,778,743,784.1z"/>
	<g>
		<path class="st1" d="M751.5,783.9c-3.1,0-6,0.8-8.5,2.3c-2.5-1.4-5.4-2.3-8.5-2.3c-9.4,0-17,7.6-17,17c0,21.2,25.5,27.9,25.5,27.9
			s25.5-6.8,25.5-27.9C768.5,791.5,760.9,783.9,751.5,783.9z"/>
		<path class="st2" d="M743,828.7c0,0,25.5-6.8,25.5-27.9c0-9.4-7.6-17-17-17c-9.4,0-17,7.6-17,17c0,4.7,1.9,8.9,5,12"/>
	</g>
</g>
<g>
	<path class="st0" d="M921.6,784.1c-4.4-6.1-12.1-9-19.3-6.5c2.9,8.5,11.1,13.6,19.3,12.2c8.2,1.3,16.4-3.7,19.3-12.2
		C933.7,775.1,926,778,921.6,784.1z"/>
	<g>
		<path class="st1" d="M930.1,783.9c-3.1,0-6,0.8-8.5,2.3c-2.5-1.4-5.4-2.3-8.5-2.3c-9.4,0-17,7.6-17,17c0,21.2,25.5,27.9,25.5,27.9
			s25.5-6.8,25.5-27.9C947.1,791.5,939.5,783.9,930.1,783.9z"/>
		<path class="st2" d="M921.6,828.7c0,0,25.5-6.8,25.5-27.9c0-9.4-7.6-17-17-17c-9.4,0-17,7.6-17,17c0,4.7,1.9,8.9,5,12"/>
	</g>
</g>
</svg>
