<?xml version="1.0" encoding="utf-8"?>
<!-- Generator: Adobe Illustrator 27.4.1, SVG Export Plug-In . SVG Version: 6.00 Build 0)  -->
<svg version="1.1" id="Layer_1" xmlns="http://www.w3.org/2000/svg" xmlns:xlink="http://www.w3.org/1999/xlink" x="0px" y="0px"
	 viewBox="0 0 896 896" style="enable-background:new 0 0 896 896;" xml:space="preserve">
<style type="text/css">
	.st0{fill:#59C618;}
	.st1{fill:#FFAA7B;}
	.st2{fill:none;stroke:#EA773D;stroke-width:1.0675;stroke-linecap:round;stroke-miterlimit:10;}
	.st3{fill:#41BFFF;}
	.st4{fill:none;stroke:#009BE8;stroke-width:0.45;stroke-linecap:round;stroke-miterlimit:10;}
	.st5{fill:#C5EFFF;}
	.st6{fill:#231F20;}
	.st7{fill:none;stroke:#EA773D;stroke-width:0.45;stroke-linecap:round;stroke-miterlimit:10;}
	.st8{fill:#7F3F98;}
	.st9{fill:none;stroke:#5D207A;stroke-width:0.45;stroke-linecap:round;stroke-miterlimit:10;}
	.st10{fill:none;stroke:#459B0E;stroke-width:0.45;stroke-linecap:round;stroke-linejoin:round;stroke-miterlimit:10;}
	.st11{fill:#844D28;}
	.st12{fill:#C69B6D;}
	.st13{fill:none;stroke:#603111;stroke-width:0.45;stroke-linecap:round;stroke-miterlimit:10;}
	.st14{fill:none;stroke:#231F20;stroke-width:0.45;stroke-linecap:round;stroke-miterlimit:10;}
	.st15{fill:#5D207A;}
	.st16{fill:none;stroke:#231F20;stroke-width:0.75;stroke-linecap:round;stroke-miterlimit:10;}
	.st17{fill:#F73C95;}
	.st18{fill:#FF99C5;}
	.st19{fill:none;stroke:#F73C95;stroke-width:0.45;stroke-linecap:round;stroke-linejoin:round;stroke-miterlimit:10;}
	.st20{fill:none;stroke:#F73C95;stroke-width:0.45;stroke-linecap:round;stroke-miterlimit:10;}
	.st21{fill:#FFCD2E;}
	.st22{fill:#603913;}
	.st23{fill:none;stroke:#D89000;stroke-width:0.45;stroke-linecap:round;stroke-miterlimit:10;}
	.st24{fill:#9E7ACC;}
	.st25{fill:#FFFFFF;}
	.st26{fill:none;stroke:#9E7ACC;stroke-width:0.45;stroke-linecap:round;stroke-linejoin:round;stroke-miterlimit:10;}
</style>
<g>
	<path class="st0" d="M37.5,15.7c-4.4-6.1-12.1-9-19.3-6.5c2.9,8.5,11.1,13.6,19.3,12.2c8.2,1.3,16.4-3.7,19.3-12.2
		C49.7,6.8,41.9,9.6,37.5,15.7z"/>
	<g>
		<path class="st1" d="M46,15.5c-3.1,0-6,0.8-8.5,2.3c-2.5-1.4-5.4-2.3-8.5-2.3c-9.4,0-17,7.6-17,17c0,21.2,25.5,27.9,25.5,27.9
			S63,53.6,63,32.5C63,23.1,55.4,15.5,46,15.5z"/>
		<path class="st2" d="M37.5,60.4c0,0,25.5-6.8,25.5-27.9c0-9.4-7.6-17-17-17c-9.4,0-17,7.6-17,17c0,4.7,1.9,8.9,5,12"/>
	</g>
</g>
<g>
	<path class="st0" d="M215.1,15.7c-4.4-6.1-12.1-9-19.3-6.5c2.9,8.5,11.1,13.6,19.3,12.2c8.2,1.3,16.4-3.7,19.3-12.2
		C227.2,6.8,219.5,9.6,215.1,15.7z"/>
	<g>
		<path class="st1" d="M223.6,15.5c-3.1,0-6,0.8-8.5,2.3c-2.5-1.4-5.4-2.3-8.5-2.3c-9.4,0-17,7.6-17,17c0,21.2,25.5,27.9,25.5,27.9
			s25.5-6.8,25.5-27.9C240.6,23.1,233,15.5,223.6,15.5z"/>
		<path class="st2" d="M215.1,60.4c0,0,25.5-6.8,25.5-27.9c0-9.4-7.6-17-17-17c-9.4,0-17,7.6-17,17c0,4.7,1.9,8.9,5,12"/>
	</g>
</g>
<g>
	<path class="st0" d="M392.7,15.7c-4.4-6.1-12.1-9-19.3-6.5c2.9,8.5,11.1,13.6,19.3,12.2c8.2,1.3,16.4-3.7,19.3-12.2
		C404.8,6.8,397.1,9.6,392.7,15.7z"/>
	<g>
		<path class="st1" d="M401.2,15.5c-3.1,0-6,0.8-8.5,2.3c-2.5-1.4-5.4-2.3-8.5-2.3c-9.4,0-17,7.6-17,17c0,21.2,25.5,27.9,25.5,27.9
			s25.5-6.8,25.5-27.9C418.1,23.1,410.5,15.5,401.2,15.5z"/>
		<path class="st2" d="M392.7,60.4c0,0,25.5-6.8,25.5-27.9c0-9.4-7.6-17-17-17s-17,7.6-17,17c0,4.7,1.9,8.9,5,12"/>
	</g>
</g>
<g>
	<path class="st0" d="M37.5,169c-4.4-6.1-12.1-9-19.3-6.5c2.9,8.5,11.1,13.6,19.3,12.2c8.2,1.3,16.4-3.7,19.3-12.2
		C49.7,160.1,41.9,162.9,37.5,169z"/>
	<g>
		<path class="st1" d="M46,168.8c-3.1,0-6,0.8-8.5,2.3c-2.5-1.4-5.4-2.3-8.5-2.3c-9.4,0-17,7.6-17,17c0,21.2,25.5,27.9,25.5,27.9
			S63,206.9,63,185.8C63,176.4,55.4,168.8,46,168.8z"/>
		<path class="st2" d="M37.5,213.7c0,0,25.5-6.8,25.5-27.9c0-9.4-7.6-17-17-17c-9.4,0-17,7.6-17,17c0,4.7,1.9,8.9,5,12"/>
	</g>
</g>
<g>
	<path class="st0" d="M215.3,169c-4.4-6.1-12.1-9-19.3-6.5c2.9,8.5,11.1,13.6,19.3,12.2c8.2,1.3,16.4-3.7,19.3-12.2
		C227.4,160.1,219.7,162.9,215.3,169z"/>
	<g>
		<path class="st1" d="M223.8,168.8c-3.1,0-6,0.8-8.5,2.3c-2.5-1.4-5.4-2.3-8.5-2.3c-9.4,0-17,7.6-17,17c0,21.2,25.5,27.9,25.5,27.9
			s25.5-6.8,25.5-27.9C240.7,176.4,233.1,168.8,223.8,168.8z"/>
		<path class="st2" d="M215.3,213.7c0,0,25.5-6.8,25.5-27.9c0-9.4-7.6-17-17-17c-9.4,0-17,7.6-17,17c0,4.7,1.9,8.9,5,12"/>
	</g>
</g>
<g>
	<path class="st0" d="M393,169c-4.4-6.1-12.1-9-19.3-6.5c2.9,8.5,11.1,13.6,19.3,12.2c8.2,1.3,16.4-3.7,19.3-12.2
		C405.1,160.1,397.4,162.9,393,169z"/>
	<g>
		<path class="st1" d="M401.5,168.8c-3.1,0-6,0.8-8.5,2.3c-2.5-1.4-5.4-2.3-8.5-2.3c-9.4,0-17,7.6-17,17c0,21.2,25.5,27.9,25.5,27.9
			s25.5-6.8,25.5-27.9C418.5,176.4,410.9,168.8,401.5,168.8z"/>
		<path class="st2" d="M393,213.7c0,0,25.5-6.8,25.5-27.9c0-9.4-7.6-17-17-17c-9.4,0-17,7.6-17,17c0,4.7,1.9,8.9,5,12"/>
	</g>
</g>
<g>
	<path class="st0" d="M37.5,322.3c-4.4-6.1-12.1-9-19.3-6.5c2.9,8.5,11.1,13.6,19.3,12.2c8.2,1.3,16.4-3.7,19.3-12.2
		C49.7,313.4,41.9,316.2,37.5,322.3z"/>
	<g>
		<path class="st1" d="M46,322.1c-3.1,0-6,0.8-8.5,2.3c-2.5-1.4-5.4-2.3-8.5-2.3c-9.4,0-17,7.6-17,17c0,21.2,25.5,27.9,25.5,27.9
			S63,360.2,63,339.1C63,329.7,55.4,322.1,46,322.1z"/>
		<path class="st2" d="M37.5,367c0,0,25.5-6.8,25.5-27.9c0-9.4-7.6-17-17-17c-9.4,0-17,7.6-17,17c0,4.7,1.9,8.9,5,12"/>
	</g>
</g>
<g>
	<path class="st0" d="M216.1,322.3c-4.4-6.1-12.1-9-19.3-6.5c2.9,8.5,11.1,13.6,19.3,12.2c8.2,1.3,16.4-3.7,19.3-12.2
		C228.3,313.4,220.5,316.2,216.1,322.3z"/>
	<g>
		<path class="st1" d="M224.6,322.1c-3.1,0-6,0.8-8.5,2.3c-2.5-1.4-5.4-2.3-8.5-2.3c-9.4,0-17,7.6-17,17c0,21.2,25.5,27.9,25.5,27.9
			s25.5-6.8,25.5-27.9C241.6,329.7,234,322.1,224.6,322.1z"/>
		<path class="st2" d="M216.1,367c0,0,25.5-6.8,25.5-27.9c0-9.4-7.6-17-17-17c-9.4,0-17,7.6-17,17c0,4.7,1.9,8.9,5,12"/>
	</g>
</g>
<g>
	<path class="st0" d="M394.7,322.3c-4.4-6.1-12.1-9-19.3-6.5c2.9,8.5,11.1,13.6,19.3,12.2c8.2,1.3,16.4-3.7,19.3-12.2
		C406.9,313.4,399.1,316.2,394.7,322.3z"/>
	<g>
		<path class="st1" d="M403.2,322.1c-3.1,0-6,0.8-8.5,2.3c-2.5-1.4-5.4-2.3-8.5-2.3c-9.4,0-17,7.6-17,17c0,21.2,25.5,27.9,25.5,27.9
			s25.5-6.8,25.5-27.9C420.2,329.7,412.6,322.1,403.2,322.1z"/>
		<path class="st2" d="M394.7,367c0,0,25.5-6.8,25.5-27.9c0-9.4-7.6-17-17-17c-9.4,0-17,7.6-17,17c0,4.7,1.9,8.9,5,12"/>
	</g>
</g>
<g>
	<g>
		<path class="st3" d="M303.7,267.8c0.8,3.2-1.1,6.4-4.3,7.2c-3.2,0.8-6.4-1.1-7.2-4.3c-1.2-4.9,2.7-13.4,2.7-13.4
			S302.5,262.9,303.7,267.8z"/>
		<path class="st4" d="M303.7,267.8c0.8,3.2-1.1,6.4-4.3,7.2c-3.2,0.8-6.4-1.1-7.2-4.3c-1.2-4.9,2.7-13.4,2.7-13.4"/>
		<path class="st4" d="M303.7,267.8c0.8,3.2-1.1,6.4-4.3,7.2c-3.2,0.8-6.4-1.1-7.2-4.3c-1.2-4.9,2.7-13.4,2.7-13.4"/>
		<path class="st5" d="M301.2,265.9c0.5,2.1-0.7,4.3-2.9,4.8c-2.1,0.5-4.3-0.7-4.8-2.9c-0.8-3.3,1.8-8.9,1.8-8.9
			S300.3,262.6,301.2,265.9z"/>
	</g>
	<g>
		<path class="st3" d="M315.3,269.6c1.1,1.8,0.5,4-1.3,5.1c-1.8,1.1-4,0.5-5.1-1.3c-1.6-2.7-0.8-8.5-0.8-8.5
			S313.6,266.9,315.3,269.6z"/>
		<path class="st4" d="M315.3,269.6c1.1,1.8,0.5,4-1.3,5.1c-1.8,1.1-4,0.5-5.1-1.3c-1.6-2.7-0.8-8.5-0.8-8.5"/>
		<path class="st4" d="M315.3,269.6c1.1,1.8,0.5,4-1.3,5.1c-1.8,1.1-4,0.5-5.1-1.3c-1.6-2.7-0.8-8.5-0.8-8.5"/>
		<path class="st5" d="M313.4,268.9c0.7,1.2,0.3,2.7-0.8,3.4c-1.2,0.7-2.7,0.3-3.4-0.8c-1.1-1.8-0.5-5.7-0.5-5.7
			S312.3,267.1,313.4,268.9z"/>
	</g>
	<g>
		<path class="st3" d="M312,251.7c2.9,0.6,4.8,3.4,4.2,6.3c-0.6,2.9-3.4,4.8-6.3,4.2c-4.5-0.9-9.8-7.4-9.8-7.4
			S307.5,250.9,312,251.7z"/>
		<path class="st4" d="M312,251.7c2.9,0.6,4.8,3.4,4.2,6.3c-0.6,2.9-3.4,4.8-6.3,4.2c-4.5-0.9-9.8-7.4-9.8-7.4"/>
		<path class="st4" d="M312,251.7c2.9,0.6,4.8,3.4,4.2,6.3c-0.6,2.9-3.4,4.8-6.3,4.2c-4.5-0.9-9.8-7.4-9.8-7.4"/>
		<path class="st5" d="M309.4,253.1c1.9,0.4,3.2,2.2,2.8,4.2c-0.4,1.9-2.2,3.2-4.2,2.8c-3-0.6-6.5-4.9-6.5-4.9
			S306.4,252.5,309.4,253.1z"/>
	</g>
</g>
<g>
	<ellipse class="st1" cx="126.4" cy="261.2" rx="12.2" ry="9.6"/>
	<g>
		<ellipse class="st6" cx="120" cy="261.2" rx="2.9" ry="4.6"/>
		<ellipse class="st6" cx="132.8" cy="261.2" rx="2.9" ry="4.6"/>
	</g>
	<path class="st7" d="M138.6,261.2c0,5.3-3.5,9.6-12.2,9.6s-12.2-4.3-12.2-9.6c0-5.3,3.5-9.6,12.2-9.6"/>
</g>
<g>
	<g>
		<path class="st8" d="M304.1,104c0.8,1.4,1.7,2.7,2.7,3.8c2.2,2.3,4.2,1.6,6.3,5.2c1,1.7,1.7,5.7-2.3,8.3c-3.1,2-7.3,1.2-10.1-1.4
			c-3.3-3-5.1-7.7-6.1-12.1C293.2,101.8,301.1,98.8,304.1,104z"/>
	</g>
	<path class="st9" d="M313.1,113c1,1.7,1.7,5.7-2.3,8.3c-3.1,2-7.3,1.2-10.1-1.4c-3.3-3-5.1-7.7-6.1-12.1"/>
	<path class="st0" d="M296.8,105.7c-0.6-1.4-0.6-2.9,0-4.3c0.6-1.4,1.7-2.5,3.1-3.1l0.4,0.9c-1.1,0.5-2,1.4-2.5,2.5s-0.5,2.4,0,3.6
		L296.8,105.7z"/>
	<path class="st0" d="M304.6,104.1c-1.2-2.8-4.4-4.2-7.3-3c-2.8,1.2-4.2,4.4-3,7.3c1.3-0.5,2.2-1.5,2.8-2.6c0.6,0.7,1.5,1.1,2.7,1.3
		c0.7-1,1-2,0.9-2.9C302,104.6,303.3,104.6,304.6,104.1z"/>
	<path class="st10" d="M297.3,101.1c-2.8,1.2-4.2,4.4-3,7.3c1.3-0.5,2.2-1.5,2.8-2.6c0.6,0.7,1.5,1.1,2.7,1.3"/>
</g>
<g>
	<g>
		<g>
			<circle class="st11" cx="134.8" cy="104" r="5.6"/>
			<circle class="st12" cx="134.8" cy="104" r="3.7"/>
		</g>
		<g>
			<circle class="st11" cx="117.8" cy="104" r="5.6"/>
			<circle class="st12" cx="117.8" cy="104" r="3.7"/>
		</g>
	</g>
	<path class="st13" d="M121.8,107.9c-2.2,2.2-5.8,2.2-8,0c-2.2-2.2-2.2-5.8,0-8"/>
	<path class="st11" d="M136.5,108.4c-0.8-4.9-5.1-8.7-10.2-8.7c-5.2,0-9.4,3.8-10.2,8.7c-1.6,1.3-2.6,3.3-2.6,5.5
		c0,4,3.2,7.2,7.2,7.2c1.3,0,10,0,11.2,0c4,0,7.2-3.2,7.2-7.2C139.1,111.7,138.1,109.7,136.5,108.4z"/>
	<path class="st13" d="M126.3,99.7c-5.2,0-9.4,3.8-10.2,8.7c-1.6,1.3-2.6,3.3-2.6,5.5c0,4,3.2,7.2,7.2,7.2c1.3,0,10,0,11.2,0
		c4,0,7.2-3.2,7.2-7.2"/>
	<g>
		<g>
			<ellipse class="st6" cx="121.8" cy="110.8" rx="1.8" ry="2.8"/>
			<ellipse class="st6" cx="130.9" cy="110.8" rx="1.8" ry="2.8"/>
		</g>
		<g>
			<circle class="st12" cx="129.7" cy="115.9" r="3.4"/>
			<circle class="st12" cx="126.3" cy="116.5" r="3.4"/>
			<circle class="st12" cx="122.9" cy="115.9" r="3.4"/>
			<path class="st6" d="M124.1,112.1c1.3-1,3.2-1,4.5,0c0.2,0.2,0.3,0.4,0.3,0.7c-0.2,1.2-1.2,2.1-2.5,2.1c-1.2,0-2.3-0.9-2.5-2.1
				C123.8,112.5,123.9,112.3,124.1,112.1z"/>
			<path class="st14" d="M130,119.4c-2,0-3.7-1.6-3.7-3.7v-3.2v3.2c0,2-1.6,3.7-3.7,3.7"/>
		</g>
	</g>
</g>
<g>
	<g>
		<path class="st15" d="M312.2,409.9c2.2-0.8,3.8-2.8,4.2-5c0.8,0.7,1.5,1.6,1.9,2.7c1.2,3.4-0.5,7.1-3.9,8.3L312.2,409.9z"/>
		<path class="st15" d="M298.6,409.9c-2.2-0.8-3.8-2.8-4.2-5c-0.8,0.7-1.5,1.6-1.9,2.7c-1.2,3.4,0.5,7.1,3.9,8.3L298.6,409.9z"/>
	</g>
	<circle class="st8" cx="305.3" cy="417.7" r="10.8"/>
	<path class="st9" d="M316.1,417.7c0,6-4.8,10.8-10.8,10.8s-10.8-4.8-10.8-10.8s4.8-10.8,10.8-10.8"/>
	<g>
		<ellipse class="st6" cx="301.7" cy="418.4" rx="1.7" ry="2.7"/>
		<ellipse class="st6" cx="308.9" cy="418.4" rx="1.7" ry="2.7"/>
	</g>
	<path class="st16" d="M310.7,423.2c-3,3-7.9,3-10.9,0"/>
	<g>
		<line class="st16" x1="307.3" y1="416.5" x2="311.3" y2="415"/>
		<line class="st16" x1="303.3" y1="416.5" x2="299.3" y2="415"/>
	</g>
</g>
<g>
	<path class="st0" d="M126.8,415.3L126.8,415.3c-0.5,0-0.9,0.4-0.9,0.9v10.6c0,0.5,0.4,0.9,0.9,0.9l0,0c0.5,0,0.9-0.4,0.9-0.9v-10.6
		C127.7,415.8,127.3,415.3,126.8,415.3z"/>
	<path class="st0" d="M126.8,425.5c0-5.8,4.7-10.4,10.4-10.4C137.3,420.8,132.6,425.5,126.8,425.5z"/>
	<path class="st17" d="M126.8,418c-3.6-3.6-3.6-9.5,0-13.1C130.4,408.5,130.4,414.4,126.8,418z"/>
	<path class="st18" d="M126.8,413c0-3.5-2.6-6.4-5.9-6.9c-0.7,2.3-1.1,4.6-1.1,6c0,3.9,3.1,7,7,7c3.9,0,7-3.1,7-7
		c0-1.4-0.4-3.6-1.1-6C129.4,406.6,126.8,409.5,126.8,413z"/>
	<path class="st19" d="M132.7,406.1c-3.3,0.5-5.9,3.4-5.9,6.9c0-3.5-2.6-6.4-5.9-6.9c-0.7,2.3-1.1,4.6-1.1,6c0,3.9,3.1,7,7,7"/>
	<path class="st0" d="M126.8,425.5c0-5.8-4.7-10.4-10.4-10.4C116.4,420.8,121.1,425.5,126.8,425.5z"/>
	<path class="st10" d="M119.6,415.5c-1-0.3-2.1-0.5-3.2-0.5c0,5.8,4.7,10.4,10.4,10.4"/>
	<path class="st10" d="M126.8,425.5"/>
</g>
<g>
	<path class="st18" d="M478.4,404.9c-3,0-5.9,2.3-5.9,5.8c0,7,6.7,7.7,11.5,14.9c4.8-7.2,11.5-7.9,11.5-14.9c0-6-8.2-8.4-11.5-2.2
		C482.7,406,480.5,404.9,478.4,404.9L478.4,404.9z"/>
	<path class="st20" d="M495.5,410.7c0-6-8.2-8.4-11.5-2.2c-1.4-2.5-3.5-3.6-5.6-3.6l0,0"/>
	<path class="st20" d="M478.4,404.9c-3,0-5.9,2.3-5.9,5.8c0,7,6.7,7.7,11.5,14.9"/>
</g>
<g>
	<path class="st21" d="M491.2,114.2l-21,0c-1.6,0-2.8-1.3-2.8-2.8v0c0-6.6,5.3-11.9,11.9-11.9h0c6.6,0,11.9,5.3,11.9,11.9V114.2z"/>
	<g>
		<path class="st0" d="M490.7,105.2c0,0.7-0.9,1.3-1.2,2c-0.3,0.6-0.1,1.7-0.6,2.2c-0.5,0.5-1.5,0.4-2.2,0.8
			c-0.6,0.4-0.9,1.4-1.7,1.6c-0.7,0.2-1.6-0.3-2.3-0.2c-0.7,0.1-1.4,0.9-2.1,0.9c-0.8,0-1.4-0.8-2.1-0.9c-0.7-0.1-1.6,0.4-2.3,0.2
			c-0.7-0.3-1.1-1.2-1.7-1.6c-0.7-0.4-1.7-0.3-2.2-0.8c-0.5-0.5-0.3-1.6-0.6-2.2c-0.3-0.7-1.2-1.2-1.2-2c0-0.7,0.9-1.3,1.2-2
			c0.3-0.6,0.1-1.7,0.6-2.2c0.5-0.5,1.5-0.4,2.2-0.8c0.6-0.4,0.9-1.4,1.7-1.6c0.7-0.2,1.6,0.3,2.3,0.2c0.7-0.1,1.4-0.9,2.1-0.9
			c0.8,0,1.4,0.8,2.1,0.9c0.7,0.1,1.6-0.4,2.3-0.2c0.7,0.3,1.1,1.2,1.7,1.6c0.7,0.4,1.7,0.3,2.2,0.8c0.5,0.5,0.3,1.6,0.6,2.2
			C489.8,103.9,490.7,104.5,490.7,105.2z"/>
	</g>
	<circle class="st22" cx="471.1" cy="109.9" r="2.3"/>
	<circle class="st22" cx="472.6" cy="107.6" r="2.3"/>
	<path class="st21" d="M492.7,114.2l-21,0v-2.8c0-6.6,5.3-11.9,11.9-11.9h0c6.6,0,11.9,5.3,11.9,11.9v0
		C495.5,112.9,494.3,114.2,492.7,114.2z"/>
	<path class="st23" d="M483.6,99.4L483.6,99.4c-6.6,0-11.9,5.3-11.9,11.9v0c0,1-0.8,1.7-1.7,1.7h-0.8"/>
	<path class="st23" d="M483.6,99.4c6.6,0,11.9,5.3,11.9,11.9"/>
</g>
<g>
	<g>
		<path class="st18" d="M479.8,258.8l-2.3,1.6l-4.8-8.2c-0.3-0.5,0.3-0.9,0.7-0.5L479.8,258.8z"/>
	</g>
	<path class="st19" d="M477.5,260.5l-4.8-8.2c-0.3-0.5,0.3-0.9,0.7-0.5l2.5,2.8"/>
	<path class="st24" d="M490.9,275.3c-4.2-1.2-8.2-7.6-7.9-12.4c0.1-1.4,0.6-3-0.3-3.7c-0.9-0.7-2.1,0.3-3.3-0.5
		c-1.4-0.9-3-3.5-1-5.9c-0.2,1,0.9,1.8,2.7,0.8c3.9-2.1,7.2,0.2,8.6,4c7.9,6.9,5.9,13.6,4.6,17.7H490.9z"/>
	<path class="st24" d="M475.7,272.5l-1.1,0.6c-1.7,1-3.9,0.7-5.3-0.7c-1.7-1.7-1.7-2,1.3-5L475.7,272.5z"/>
	<path class="st25" d="M479.5,275.3l2.4-4.4c-0.7,0.3-1.5,0.5-2.4,0.5l-1.8-0.1l-2,1.2l-5-5c5-4.7,3.9-5.6,5.6-7.2
		c4.5-4.5,10.2-3.2,12.6,0.9c3,5.2,2.1,14.1,2.1,14.1H479.5z"/>
	
		<ellipse transform="matrix(0.998 -6.377523e-02 6.377523e-02 0.998 -16.3119 30.4795)" class="st6" cx="469.3" cy="270.8" rx="0.6" ry="0.9"/>
	<path class="st14" d="M479.8,262.2c-0.4,0.4-1,0.5-1.5,0.1"/>
	<ellipse class="st6" cx="477.9" cy="263.6" rx="1.1" ry="1.7"/>
	<path class="st24" d="M486.2,272.3c1-5.4,8.1-4.7,3.7-11.3C484.4,260.6,480.5,268.6,486.2,272.3z"/>
	<path class="st24" d="M491.5,274.5c-4.4-0.3-6.2-9.1-2.4-11.8l3.7,5.2L491.5,274.5z"/>
	<path class="st24" d="M484.3,256.8c0,0-0.1,2.4-1.9,3.3c2.3,2.7,6.4,1,6.4,1l-2-3.8L484.3,256.8z"/>
	<path class="st26" d="M488.8,261.1c-2.4-4.2-8.1-5.5-12.6-0.9c-1.6,1.6-0.6,2.6-5.6,7.2c-3,3-3,3.4-1.3,5c1.4,1.4,3.6,1.7,5.3,0.7
		l1.1-0.6l2-1.2l1.8,0.1c0.8,0,1.6-0.1,2.4-0.5l-2.4,4.4"/>
	<path class="st14" d="M474,272c-0.2,0.9-1,1.5-1.9,1.3"/>
	<path class="st25" d="M481.9,260.6c1.9,0,3.4-1.5,3.4-3.4c0-1.9-1.5-3.4-3.4-3.4V260.6z"/>
</g>
<g>
	<path class="st0" d="M41.5,475.5c-4.4-6.1-12.1-9-19.3-6.5c2.9,8.5,11.1,13.6,19.3,12.2c8.2,1.3,16.4-3.7,19.3-12.2
		C53.7,466.5,45.9,469.4,41.5,475.5z"/>
	<g>
		<path class="st1" d="M50,475.2c-3.1,0-6,0.8-8.5,2.3c-2.5-1.4-5.4-2.3-8.5-2.3c-9.4,0-17,7.6-17,17c0,21.2,25.5,27.9,25.5,27.9
			S67,513.4,67,492.2C67,482.8,59.4,475.2,50,475.2z"/>
		<path class="st2" d="M41.5,520.1c0,0,25.5-6.8,25.5-27.9c0-9.4-7.6-17-17-17c-9.4,0-17,7.6-17,17c0,4.7,1.9,8.9,5,12"/>
	</g>
</g>
<g>
	<path class="st0" d="M219.1,475.5c-4.4-6.1-12.1-9-19.3-6.5c2.9,8.5,11.1,13.6,19.3,12.2c8.2,1.3,16.4-3.7,19.3-12.2
		C231.2,466.5,223.5,469.4,219.1,475.5z"/>
	<g>
		<path class="st1" d="M227.6,475.2c-3.1,0-6,0.8-8.5,2.3c-2.5-1.4-5.4-2.3-8.5-2.3c-9.4,0-17,7.6-17,17c0,21.2,25.5,27.9,25.5,27.9
			s25.5-6.8,25.5-27.9C244.6,482.8,237,475.2,227.6,475.2z"/>
		<path class="st2" d="M219.1,520.1c0,0,25.5-6.8,25.5-27.9c0-9.4-7.6-17-17-17c-9.4,0-17,7.6-17,17c0,4.7,1.9,8.9,5,12"/>
	</g>
</g>
<g>
	<path class="st0" d="M396.7,475.5c-4.4-6.1-12.1-9-19.3-6.5c2.9,8.5,11.1,13.6,19.3,12.2c8.2,1.3,16.4-3.7,19.3-12.2
		C408.8,466.5,401.1,469.4,396.7,475.5z"/>
	<g>
		<path class="st1" d="M405.2,475.2c-3.1,0-6,0.8-8.5,2.3c-2.5-1.4-5.4-2.3-8.5-2.3c-9.4,0-17,7.6-17,17c0,21.2,25.5,27.9,25.5,27.9
			s25.5-6.8,25.5-27.9C422.2,482.8,414.5,475.2,405.2,475.2z"/>
		<path class="st2" d="M396.7,520.1c0,0,25.5-6.8,25.5-27.9c0-9.4-7.6-17-17-17c-9.4,0-17,7.6-17,17c0,4.7,1.9,8.9,5,12"/>
	</g>
</g>
<g>
	<path class="st0" d="M41.5,628.8c-4.4-6.1-12.1-9-19.3-6.5c2.9,8.5,11.1,13.6,19.3,12.2c8.2,1.3,16.4-3.7,19.3-12.2
		C53.7,619.8,45.9,622.7,41.5,628.8z"/>
	<g>
		<path class="st1" d="M50,628.5c-3.1,0-6,0.8-8.5,2.3c-2.5-1.4-5.4-2.3-8.5-2.3c-9.4,0-17,7.6-17,17c0,21.2,25.5,27.9,25.5,27.9
			S67,666.7,67,645.5C67,636.1,59.4,628.5,50,628.5z"/>
		<path class="st2" d="M41.5,673.4c0,0,25.5-6.8,25.5-27.9c0-9.4-7.6-17-17-17c-9.4,0-17,7.6-17,17c0,4.7,1.9,8.9,5,12"/>
	</g>
</g>
<g>
	<path class="st0" d="M219.3,628.8c-4.4-6.1-12.1-9-19.3-6.5c2.9,8.5,11.1,13.6,19.3,12.2c8.2,1.3,16.4-3.7,19.3-12.2
		C231.4,619.8,223.7,622.7,219.3,628.8z"/>
	<g>
		<path class="st1" d="M227.8,628.5c-3.1,0-6,0.8-8.5,2.3c-2.5-1.4-5.4-2.3-8.5-2.3c-9.4,0-17,7.6-17,17c0,21.2,25.5,27.9,25.5,27.9
			s25.5-6.8,25.5-27.9C244.7,636.1,237.1,628.5,227.8,628.5z"/>
		<path class="st2" d="M219.3,673.4c0,0,25.5-6.8,25.5-27.9c0-9.4-7.6-17-17-17c-9.4,0-17,7.6-17,17c0,4.7,1.9,8.9,5,12"/>
	</g>
</g>
<g>
	<path class="st0" d="M397,628.8c-4.4-6.1-12.1-9-19.3-6.5c2.9,8.5,11.1,13.6,19.3,12.2c8.2,1.3,16.4-3.7,19.3-12.2
		C409.1,619.8,401.4,622.7,397,628.8z"/>
	<g>
		<path class="st1" d="M405.5,628.5c-3.1,0-6,0.8-8.5,2.3c-2.5-1.4-5.4-2.3-8.5-2.3c-9.4,0-17,7.6-17,17c0,21.2,25.5,27.9,25.5,27.9
			s25.5-6.8,25.5-27.9C422.5,636.1,414.9,628.5,405.5,628.5z"/>
		<path class="st2" d="M397,673.4c0,0,25.5-6.8,25.5-27.9c0-9.4-7.6-17-17-17s-17,7.6-17,17c0,4.7,1.9,8.9,5,12"/>
	</g>
</g>
<g>
	<path class="st0" d="M41.5,782.1c-4.4-6.1-12.1-9-19.3-6.5c2.9,8.5,11.1,13.6,19.3,12.2c8.2,1.3,16.4-3.7,19.3-12.2
		C53.7,773.1,45.9,776,41.5,782.1z"/>
	<g>
		<path class="st1" d="M50,781.8c-3.1,0-6,0.8-8.5,2.3c-2.5-1.4-5.4-2.3-8.5-2.3c-9.4,0-17,7.6-17,17c0,21.2,25.5,27.9,25.5,27.9
			S67,820,67,798.8C67,789.5,59.4,781.8,50,781.8z"/>
		<path class="st2" d="M41.5,826.7c0,0,25.5-6.8,25.5-27.9c0-9.4-7.6-17-17-17c-9.4,0-17,7.6-17,17c0,4.7,1.9,8.9,5,12"/>
	</g>
</g>
<g>
	<path class="st0" d="M220.1,782.1c-4.4-6.1-12.1-9-19.3-6.5c2.9,8.5,11.1,13.6,19.3,12.2c8.2,1.3,16.4-3.7,19.3-12.2
		C232.3,773.1,224.5,776,220.1,782.1z"/>
	<g>
		<path class="st1" d="M228.6,781.8c-3.1,0-6,0.8-8.5,2.3c-2.5-1.4-5.4-2.3-8.5-2.3c-9.4,0-17,7.6-17,17c0,21.2,25.5,27.9,25.5,27.9
			s25.5-6.8,25.5-27.9C245.6,789.5,238,781.8,228.6,781.8z"/>
		<path class="st2" d="M220.1,826.7c0,0,25.5-6.8,25.5-27.9c0-9.4-7.6-17-17-17c-9.4,0-17,7.6-17,17c0,4.7,1.9,8.9,5,12"/>
	</g>
</g>
<g>
	<path class="st0" d="M398.7,782.1c-4.4-6.1-12.1-9-19.3-6.5c2.9,8.5,11.1,13.6,19.3,12.2c8.2,1.3,16.4-3.7,19.3-12.2
		C410.9,773.1,403.1,776,398.7,782.1z"/>
	<g>
		<path class="st1" d="M407.2,781.8c-3.1,0-6,0.8-8.5,2.3c-2.5-1.4-5.4-2.3-8.5-2.3c-9.4,0-17,7.6-17,17c0,21.2,25.5,27.9,25.5,27.9
			s25.5-6.8,25.5-27.9C424.2,789.5,416.6,781.8,407.2,781.8z"/>
		<path class="st2" d="M398.7,826.7c0,0,25.5-6.8,25.5-27.9c0-9.4-7.6-17-17-17c-9.4,0-17,7.6-17,17c0,4.7,1.9,8.9,5,12"/>
	</g>
</g>
<g>
	<g>
		<path class="st3" d="M307.7,727.6c0.8,3.2-1.1,6.4-4.3,7.2c-3.2,0.8-6.4-1.1-7.2-4.3c-1.2-4.9,2.7-13.4,2.7-13.4
			S306.5,722.7,307.7,727.6z"/>
		<path class="st4" d="M307.7,727.6c0.8,3.2-1.1,6.4-4.3,7.2c-3.2,0.8-6.4-1.1-7.2-4.3c-1.2-4.9,2.7-13.4,2.7-13.4"/>
		<path class="st4" d="M307.7,727.6c0.8,3.2-1.1,6.4-4.3,7.2c-3.2,0.8-6.4-1.1-7.2-4.3c-1.2-4.9,2.7-13.4,2.7-13.4"/>
		<path class="st5" d="M305.2,725.6c0.5,2.1-0.7,4.3-2.9,4.8c-2.1,0.5-4.3-0.7-4.8-2.9c-0.8-3.3,1.8-8.9,1.8-8.9
			S304.4,722.3,305.2,725.6z"/>
	</g>
	<g>
		<path class="st3" d="M319.3,729.4c1.1,1.8,0.5,4-1.3,5.1c-1.8,1.1-4,0.5-5.1-1.3c-1.6-2.7-0.8-8.5-0.8-8.5
			S317.6,726.7,319.3,729.4z"/>
		<path class="st4" d="M319.3,729.4c1.1,1.8,0.5,4-1.3,5.1c-1.8,1.1-4,0.5-5.1-1.3c-1.6-2.7-0.8-8.5-0.8-8.5"/>
		<path class="st4" d="M319.3,729.4c1.1,1.8,0.5,4-1.3,5.1c-1.8,1.1-4,0.5-5.1-1.3c-1.6-2.7-0.8-8.5-0.8-8.5"/>
		<path class="st5" d="M317.4,728.7c0.7,1.2,0.3,2.7-0.8,3.4c-1.2,0.7-2.7,0.3-3.4-0.8c-1.1-1.8-0.5-5.7-0.5-5.7
			S316.3,726.9,317.4,728.7z"/>
	</g>
	<g>
		<path class="st3" d="M316,711.5c2.9,0.6,4.8,3.4,4.2,6.3c-0.6,2.9-3.4,4.8-6.3,4.2c-4.5-0.9-9.8-7.4-9.8-7.4
			S311.5,710.6,316,711.5z"/>
		<path class="st4" d="M316,711.5c2.9,0.6,4.8,3.4,4.2,6.3c-0.6,2.9-3.4,4.8-6.3,4.2c-4.5-0.9-9.8-7.4-9.8-7.4"/>
		<path class="st4" d="M316,711.5c2.9,0.6,4.8,3.4,4.2,6.3c-0.6,2.9-3.4,4.8-6.3,4.2c-4.5-0.9-9.8-7.4-9.8-7.4"/>
		<path class="st5" d="M313.4,712.8c1.9,0.4,3.2,2.2,2.8,4.2c-0.4,1.9-2.2,3.2-4.2,2.8c-3-0.6-6.5-4.9-6.5-4.9
			S310.4,712.2,313.4,712.8z"/>
	</g>
</g>
<g>
	<ellipse class="st1" cx="130.4" cy="721" rx="12.2" ry="9.6"/>
	<g>
		<ellipse class="st6" cx="124" cy="721" rx="2.9" ry="4.6"/>
		<ellipse class="st6" cx="136.8" cy="721" rx="2.9" ry="4.6"/>
	</g>
	<path class="st7" d="M142.6,721c0,5.3-3.5,9.6-12.2,9.6s-12.2-4.3-12.2-9.6c0-5.3,3.5-9.6,12.2-9.6"/>
</g>
<g>
	<g>
		<path class="st8" d="M308.1,563.8c0.8,1.4,1.7,2.7,2.7,3.8c2.2,2.3,4.2,1.6,6.3,5.2c1,1.7,1.7,5.7-2.3,8.3
			c-3.1,2-7.3,1.2-10.1-1.4c-3.3-3-5.1-7.7-6.1-12.1C297.2,561.5,305.1,558.5,308.1,563.8z"/>
	</g>
	<path class="st9" d="M317.1,572.8c1,1.7,1.7,5.7-2.3,8.3c-3.1,2-7.3,1.2-10.1-1.4c-3.3-3-5.1-7.7-6.1-12.1"/>
	<path class="st0" d="M300.8,565.5c-0.6-1.4-0.6-2.9,0-4.3c0.6-1.4,1.7-2.5,3.1-3.1l0.4,0.9c-1.1,0.5-2,1.4-2.5,2.5s-0.5,2.4,0,3.6
		L300.8,565.5z"/>
	<path class="st0" d="M308.6,563.8c-1.2-2.8-4.4-4.2-7.3-3c-2.8,1.2-4.2,4.4-3,7.3c1.3-0.5,2.2-1.5,2.8-2.6c0.6,0.7,1.5,1.1,2.7,1.3
		c0.7-1,1-2,0.9-2.9C306,564.4,307.3,564.4,308.6,563.8z"/>
	<path class="st10" d="M301.3,560.9c-2.8,1.2-4.2,4.4-3,7.3c1.3-0.5,2.2-1.5,2.8-2.6c0.6,0.7,1.5,1.1,2.7,1.3"/>
</g>
<g>
	<g>
		<g>
			<circle class="st11" cx="138.8" cy="563.7" r="5.6"/>
			<circle class="st12" cx="138.8" cy="563.7" r="3.7"/>
		</g>
		<g>
			<circle class="st11" cx="121.8" cy="563.7" r="5.6"/>
			<circle class="st12" cx="121.8" cy="563.7" r="3.7"/>
		</g>
	</g>
	<path class="st13" d="M125.8,567.7c-2.2,2.2-5.8,2.2-8,0c-2.2-2.2-2.2-5.8,0-8"/>
	<path class="st11" d="M140.5,568.1c-0.8-4.9-5.1-8.7-10.2-8.7c-5.2,0-9.4,3.8-10.2,8.7c-1.6,1.3-2.6,3.3-2.6,5.5
		c0,4,3.2,7.2,7.2,7.2c1.3,0,10,0,11.2,0c4,0,7.2-3.2,7.2-7.2C143.1,571.4,142.1,569.4,140.5,568.1z"/>
	<path class="st13" d="M130.3,559.4c-5.2,0-9.4,3.8-10.2,8.7c-1.6,1.3-2.6,3.3-2.6,5.5c0,4,3.2,7.2,7.2,7.2c1.3,0,10,0,11.2,0
		c4,0,7.2-3.2,7.2-7.2"/>
	<g>
		<g>
			<ellipse class="st6" cx="125.8" cy="570.6" rx="1.8" ry="2.8"/>
			<ellipse class="st6" cx="134.9" cy="570.6" rx="1.8" ry="2.8"/>
		</g>
		<g>
			<circle class="st12" cx="133.8" cy="575.7" r="3.4"/>
			<circle class="st12" cx="130.3" cy="576.3" r="3.4"/>
			<circle class="st12" cx="126.9" cy="575.7" r="3.4"/>
			<path class="st6" d="M128.1,571.8c1.3-1,3.2-1,4.5,0c0.2,0.2,0.3,0.4,0.3,0.7c-0.2,1.2-1.2,2.1-2.5,2.1s-2.3-0.9-2.5-2.1
				C127.8,572.3,127.9,572,128.1,571.8z"/>
			<path class="st14" d="M134,579.1c-2,0-3.7-1.6-3.7-3.7v-3.2v3.2c0,2-1.6,3.7-3.7,3.7"/>
		</g>
	</g>
</g>
<g>
	<g>
		<path class="st15" d="M316.3,869.6c2.2-0.8,3.8-2.8,4.2-5c0.8,0.7,1.5,1.6,1.9,2.7c1.2,3.4-0.5,7.1-3.9,8.3L316.3,869.6z"/>
		<path class="st15" d="M302.6,869.6c-2.2-0.8-3.8-2.8-4.2-5c-0.8,0.7-1.5,1.6-1.9,2.7c-1.2,3.4,0.5,7.1,3.9,8.3L302.6,869.6z"/>
	</g>
	<circle class="st8" cx="309.3" cy="877.4" r="10.8"/>
	<path class="st9" d="M320.1,877.4c0,6-4.8,10.8-10.8,10.8s-10.8-4.8-10.8-10.8s4.8-10.8,10.8-10.8"/>
	<g>
		<ellipse class="st6" cx="305.7" cy="878.1" rx="1.7" ry="2.7"/>
		<ellipse class="st6" cx="312.9" cy="878.1" rx="1.7" ry="2.7"/>
	</g>
	<path class="st16" d="M314.7,882.9c-3,3-7.9,3-10.9,0"/>
	<g>
		<line class="st16" x1="311.3" y1="876.2" x2="315.3" y2="874.7"/>
		<line class="st16" x1="307.3" y1="876.2" x2="303.3" y2="874.7"/>
	</g>
</g>
<g>
	<path class="st0" d="M130.8,875.1L130.8,875.1c-0.5,0-0.9,0.4-0.9,0.9v10.6c0,0.5,0.4,0.9,0.9,0.9l0,0c0.5,0,0.9-0.4,0.9-0.9V876
		C131.8,875.5,131.3,875.1,130.8,875.1z"/>
	<path class="st0" d="M130.8,885.2c0-5.8,4.7-10.4,10.4-10.4C141.3,880.6,136.6,885.2,130.8,885.2z"/>
	<path class="st17" d="M130.8,877.7c-3.6-3.6-3.6-9.5,0-13.1C134.4,868.3,134.4,874.1,130.8,877.7z"/>
	<path class="st18" d="M130.8,872.8c0-3.5-2.6-6.4-5.9-6.9c-0.7,2.3-1.1,4.6-1.1,6c0,3.9,3.1,7,7,7c3.9,0,7-3.1,7-7
		c0-1.4-0.4-3.6-1.1-6C133.4,866.4,130.8,869.3,130.8,872.8z"/>
	<path class="st19" d="M136.7,865.8c-3.3,0.5-5.9,3.4-5.9,6.9c0-3.5-2.6-6.4-5.9-6.9c-0.7,2.3-1.1,4.6-1.1,6c0,3.9,3.1,7,7,7"/>
	<path class="st0" d="M130.8,885.2c0-5.8-4.7-10.4-10.4-10.4C120.4,880.6,125.1,885.2,130.8,885.2z"/>
	<path class="st10" d="M123.6,875.3c-1-0.3-2.1-0.5-3.2-0.5c0,5.8,4.7,10.4,10.4,10.4"/>
	<path class="st10" d="M130.8,885.2"/>
</g>
<g>
	<path class="st18" d="M482.4,864.7c-3,0-5.9,2.3-5.9,5.8c0,7,6.7,7.7,11.5,14.9c4.8-7.2,11.5-7.9,11.5-14.9c0-6-8.2-8.4-11.5-2.2
		C486.7,865.8,484.5,864.7,482.4,864.7L482.4,864.7z"/>
	<path class="st20" d="M499.5,870.5c0-6-8.2-8.4-11.5-2.2c-1.4-2.5-3.5-3.6-5.6-3.6l0,0"/>
	<path class="st20" d="M482.4,864.7c-3,0-5.9,2.3-5.9,5.8c0,7,6.7,7.7,11.5,14.9"/>
</g>
<g>
	<path class="st21" d="M495.2,573.9h-21c-1.6,0-2.8-1.3-2.8-2.8l0,0c0-6.6,5.3-11.9,11.9-11.9l0,0c6.6,0,11.9,5.3,11.9,11.9V573.9z"
		/>
	<g>
		<path class="st0" d="M494.7,565c0,0.7-0.9,1.3-1.2,2c-0.3,0.6-0.1,1.7-0.6,2.2c-0.5,0.5-1.5,0.4-2.2,0.8c-0.6,0.4-0.9,1.4-1.7,1.6
			c-0.7,0.2-1.6-0.3-2.3-0.2c-0.7,0.1-1.4,0.9-2.1,0.9c-0.8,0-1.4-0.8-2.1-0.9c-0.7-0.1-1.6,0.4-2.3,0.2c-0.7-0.3-1.1-1.2-1.7-1.6
			c-0.7-0.4-1.7-0.3-2.2-0.8c-0.5-0.5-0.3-1.6-0.6-2.2c-0.3-0.7-1.2-1.2-1.2-2c0-0.7,0.9-1.3,1.2-2c0.3-0.6,0.1-1.7,0.6-2.2
			c0.5-0.5,1.5-0.4,2.2-0.8c0.6-0.4,0.9-1.4,1.7-1.6c0.7-0.2,1.6,0.3,2.3,0.2c0.7-0.1,1.4-0.9,2.1-0.9c0.8,0,1.4,0.8,2.1,0.9
			c0.7,0.1,1.6-0.4,2.3-0.2c0.7,0.3,1.1,1.2,1.7,1.6c0.7,0.4,1.7,0.3,2.2,0.8c0.5,0.5,0.3,1.6,0.6,2.2
			C493.8,563.7,494.7,564.2,494.7,565z"/>
	</g>
	<circle class="st22" cx="475.1" cy="569.6" r="2.3"/>
	<circle class="st22" cx="476.6" cy="567.4" r="2.3"/>
	<path class="st21" d="M496.7,573.9h-21v-2.8c0-6.6,5.3-11.9,11.9-11.9h0c6.6,0,11.9,5.3,11.9,11.9l0,0
		C499.5,572.7,498.3,573.9,496.7,573.9z"/>
	<path class="st23" d="M487.6,559.2L487.6,559.2c-6.6,0-11.9,5.3-11.9,11.9l0,0c0,1-0.8,1.7-1.7,1.7h-0.8"/>
	<path class="st23" d="M487.6,559.2c6.6,0,11.9,5.3,11.9,11.9"/>
</g>
<g>
	<g>
		<path class="st18" d="M483.8,718.6l-2.3,1.6l-4.8-8.2c-0.3-0.5,0.3-0.9,0.7-0.5L483.8,718.6z"/>
	</g>
	<path class="st19" d="M481.5,720.2l-4.8-8.2c-0.3-0.5,0.3-0.9,0.7-0.5l2.5,2.8"/>
	<path class="st24" d="M494.9,735c-4.2-1.2-8.2-7.6-7.9-12.4c0.1-1.4,0.6-3-0.3-3.7c-0.9-0.7-2.1,0.3-3.3-0.5c-1.4-0.9-3-3.5-1-5.9
		c-0.2,1,0.9,1.8,2.7,0.8c3.9-2.1,7.2,0.2,8.6,4c7.9,6.9,5.9,13.6,4.6,17.7H494.9z"/>
	<path class="st24" d="M479.7,732.2l-1.1,0.6c-1.7,1-3.9,0.7-5.3-0.7c-1.7-1.7-1.7-2,1.3-5L479.7,732.2z"/>
	<path class="st25" d="M483.5,735l2.4-4.4c-0.7,0.3-1.5,0.5-2.4,0.5l-1.8-0.1l-2,1.2l-5-5c5-4.7,3.9-5.6,5.6-7.2
		c4.5-4.5,10.2-3.2,12.6,0.9c3,5.2,2.1,14.1,2.1,14.1H483.5z"/>
	
		<ellipse transform="matrix(0.998 -6.377523e-02 6.377523e-02 0.998 -45.6241 31.6711)" class="st6" cx="473.3" cy="730.5" rx="0.6" ry="0.9"/>
	<path class="st14" d="M483.8,721.9c-0.4,0.4-1,0.5-1.5,0.1"/>
	<ellipse class="st6" cx="481.9" cy="723.4" rx="1.1" ry="1.7"/>
	<path class="st24" d="M490.2,732c1-5.4,8.1-4.7,3.7-11.3C488.4,720.3,484.5,728.3,490.2,732z"/>
	<path class="st24" d="M495.5,734.2c-4.4-0.3-6.2-9.1-2.4-11.8l3.7,5.2L495.5,734.2z"/>
	<path class="st24" d="M488.3,716.6c0,0-0.1,2.4-1.9,3.3c2.3,2.7,6.4,1,6.4,1l-2-3.8L488.3,716.6z"/>
	<path class="st26" d="M492.8,720.9c-2.4-4.2-8.1-5.5-12.6-0.9c-1.6,1.6-0.6,2.6-5.6,7.2c-3,3-3,3.4-1.3,5c1.4,1.4,3.6,1.7,5.3,0.7
		l1.1-0.6l2-1.2l1.8,0.1c0.8,0,1.6-0.1,2.4-0.5l-2.4,4.4"/>
	<path class="st14" d="M478,731.8c-0.2,0.9-1,1.5-1.9,1.3"/>
	<path class="st25" d="M485.9,720.3c1.9,0,3.4-1.5,3.4-3.4s-1.5-3.4-3.4-3.4V720.3z"/>
</g>
<g>
	<path class="st0" d="M558.4,15.7c-4.4-6.1-12.1-9-19.3-6.5c2.9,8.5,11.1,13.6,19.3,12.2c8.2,1.3,16.4-3.7,19.3-12.2
		C570.5,6.8,562.8,9.6,558.4,15.7z"/>
	<g>
		<path class="st1" d="M566.9,15.5c-3.1,0-6,0.8-8.5,2.3c-2.5-1.4-5.4-2.3-8.5-2.3c-9.4,0-17,7.6-17,17c0,21.2,25.5,27.9,25.5,27.9
			s25.5-6.8,25.5-27.9C583.9,23.1,576.3,15.5,566.9,15.5z"/>
		<path class="st2" d="M558.4,60.4c0,0,25.5-6.8,25.5-27.9c0-9.4-7.6-17-17-17c-9.4,0-17,7.6-17,17c0,4.7,1.9,8.9,5,12"/>
	</g>
</g>
<g>
	<path class="st0" d="M736,15.7c-4.4-6.1-12.1-9-19.3-6.5c2.9,8.5,11.1,13.6,19.3,12.2c8.2,1.3,16.4-3.7,19.3-12.2
		C748.1,6.8,740.4,9.6,736,15.7z"/>
	<g>
		<path class="st1" d="M744.5,15.5c-3.1,0-6,0.8-8.5,2.3c-2.5-1.4-5.4-2.3-8.5-2.3c-9.4,0-17,7.6-17,17c0,21.2,25.5,27.9,25.5,27.9
			s25.5-6.8,25.5-27.9C761.4,23.1,753.8,15.5,744.5,15.5z"/>
		<path class="st2" d="M736,60.4c0,0,25.5-6.8,25.5-27.9c0-9.4-7.6-17-17-17c-9.4,0-17,7.6-17,17c0,4.7,1.9,8.9,5,12"/>
	</g>
</g>
<g>
	<path class="st0" d="M913.5,15.7c-4.4-6.1-12.1-9-19.3-6.5c2.9,8.5,11.1,13.6,19.3,12.2c8.2,1.3,16.4-3.7,19.3-12.2
		C925.7,6.8,918,9.6,913.5,15.7z"/>
	<g>
		<path class="st1" d="M922,15.5c-3.1,0-6,0.8-8.5,2.3c-2.5-1.4-5.4-2.3-8.5-2.3c-9.4,0-17,7.6-17,17c0,21.2,25.5,27.9,25.5,27.9
			S939,53.6,939,32.5C939,23.1,931.4,15.5,922,15.5z"/>
		<path class="st2" d="M913.5,60.4c0,0,25.5-6.8,25.5-27.9c0-9.4-7.6-17-17-17c-9.4,0-17,7.6-17,17c0,4.7,1.9,8.9,5,12"/>
	</g>
</g>
<g>
	<path class="st0" d="M558.4,169c-4.4-6.1-12.1-9-19.3-6.5c2.9,8.5,11.1,13.6,19.3,12.2c8.2,1.3,16.4-3.7,19.3-12.2
		C570.5,160.1,562.8,162.9,558.4,169z"/>
	<g>
		<path class="st1" d="M566.9,168.8c-3.1,0-6,0.8-8.5,2.3c-2.5-1.4-5.4-2.3-8.5-2.3c-9.4,0-17,7.6-17,17c0,21.2,25.5,27.9,25.5,27.9
			s25.5-6.8,25.5-27.9C583.9,176.4,576.3,168.8,566.9,168.8z"/>
		<path class="st2" d="M558.4,213.7c0,0,25.5-6.8,25.5-27.9c0-9.4-7.6-17-17-17c-9.4,0-17,7.6-17,17c0,4.7,1.9,8.9,5,12"/>
	</g>
</g>
<g>
	<path class="st0" d="M736.1,169c-4.4-6.1-12.1-9-19.3-6.5c2.9,8.5,11.1,13.6,19.3,12.2c8.2,1.3,16.4-3.7,19.3-12.2
		C748.3,160.1,740.5,162.9,736.1,169z"/>
	<g>
		<path class="st1" d="M744.6,168.8c-3.1,0-6,0.8-8.5,2.3c-2.5-1.4-5.4-2.3-8.5-2.3c-9.4,0-17,7.6-17,17c0,21.2,25.5,27.9,25.5,27.9
			s25.5-6.8,25.5-27.9C761.6,176.4,754,168.8,744.6,168.8z"/>
		<path class="st2" d="M736.1,213.7c0,0,25.5-6.8,25.5-27.9c0-9.4-7.6-17-17-17c-9.4,0-17,7.6-17,17c0,4.7,1.9,8.9,5,12"/>
	</g>
</g>
<g>
	<path class="st0" d="M913.9,169c-4.4-6.1-12.1-9-19.3-6.5c2.9,8.5,11.1,13.6,19.3,12.2c8.2,1.3,16.4-3.7,19.3-12.2
		C926,160.1,918.3,162.9,913.9,169z"/>
	<g>
		<path class="st1" d="M922.4,168.8c-3.1,0-6,0.8-8.5,2.3c-2.5-1.4-5.4-2.3-8.5-2.3c-9.4,0-17,7.6-17,17c0,21.2,25.5,27.9,25.5,27.9
			s25.5-6.8,25.5-27.9C939.3,176.4,931.7,168.8,922.4,168.8z"/>
		<path class="st2" d="M913.9,213.7c0,0,25.5-6.8,25.5-27.9c0-9.4-7.6-17-17-17c-9.4,0-17,7.6-17,17c0,4.7,1.9,8.9,5,12"/>
	</g>
</g>
<g>
	<path class="st0" d="M558.4,322.3c-4.4-6.1-12.1-9-19.3-6.5c2.9,8.5,11.1,13.6,19.3,12.2c8.2,1.3,16.4-3.7,19.3-12.2
		C570.5,313.4,562.8,316.2,558.4,322.3z"/>
	<g>
		<path class="st1" d="M566.9,322.1c-3.1,0-6,0.8-8.5,2.3c-2.5-1.4-5.4-2.3-8.5-2.3c-9.4,0-17,7.6-17,17c0,21.2,25.5,27.9,25.5,27.9
			s25.5-6.8,25.5-27.9C583.9,329.7,576.3,322.1,566.9,322.1z"/>
		<path class="st2" d="M558.4,367c0,0,25.5-6.8,25.5-27.9c0-9.4-7.6-17-17-17s-17,7.6-17,17c0,4.7,1.9,8.9,5,12"/>
	</g>
</g>
<g>
	<path class="st0" d="M737,322.3c-4.4-6.1-12.1-9-19.3-6.5c2.9,8.5,11.1,13.6,19.3,12.2c8.2,1.3,16.4-3.7,19.3-12.2
		C749.1,313.4,741.4,316.2,737,322.3z"/>
	<g>
		<path class="st1" d="M745.5,322.1c-3.1,0-6,0.8-8.5,2.3c-2.5-1.4-5.4-2.3-8.5-2.3c-9.4,0-17,7.6-17,17c0,21.2,25.5,27.9,25.5,27.9
			s25.5-6.8,25.5-27.9C762.5,329.7,754.9,322.1,745.5,322.1z"/>
		<path class="st2" d="M737,367c0,0,25.5-6.8,25.5-27.9c0-9.4-7.6-17-17-17s-17,7.6-17,17c0,4.7,1.9,8.9,5,12"/>
	</g>
</g>
<g>
	<path class="st0" d="M915.6,322.3c-4.4-6.1-12.1-9-19.3-6.5c2.9,8.5,11.1,13.6,19.3,12.2c8.2,1.3,16.4-3.7,19.3-12.2
		C927.7,313.4,920,316.2,915.6,322.3z"/>
	<g>
		<path class="st1" d="M924.1,322.1c-3.1,0-6,0.8-8.5,2.3c-2.5-1.4-5.4-2.3-8.5-2.3c-9.4,0-17,7.6-17,17c0,21.2,25.5,27.9,25.5,27.9
			s25.5-6.8,25.5-27.9C941.1,329.7,933.5,322.1,924.1,322.1z"/>
		<path class="st2" d="M915.6,367c0,0,25.5-6.8,25.5-27.9c0-9.4-7.6-17-17-17c-9.4,0-17,7.6-17,17c0,4.7,1.9,8.9,5,12"/>
	</g>
</g>
<g>
	<g>
		<path class="st3" d="M824.6,267.8c0.8,3.2-1.1,6.4-4.3,7.2c-3.2,0.8-6.4-1.1-7.2-4.3c-1.2-4.9,2.7-13.4,2.7-13.4
			S823.4,262.9,824.6,267.8z"/>
		<path class="st4" d="M824.6,267.8c0.8,3.2-1.1,6.4-4.3,7.2c-3.2,0.8-6.4-1.1-7.2-4.3c-1.2-4.9,2.7-13.4,2.7-13.4"/>
		<path class="st4" d="M824.6,267.8c0.8,3.2-1.1,6.4-4.3,7.2c-3.2,0.8-6.4-1.1-7.2-4.3c-1.2-4.9,2.7-13.4,2.7-13.4"/>
		<path class="st5" d="M822.1,265.9c0.5,2.1-0.7,4.3-2.9,4.8c-2.1,0.5-4.3-0.7-4.8-2.9c-0.8-3.3,1.8-8.9,1.8-8.9
			S821.2,262.6,822.1,265.9z"/>
	</g>
	<g>
		<path class="st3" d="M836.1,269.6c1.1,1.8,0.5,4-1.3,5.1s-4,0.5-5.1-1.3c-1.6-2.7-0.8-8.5-0.8-8.5S834.5,266.9,836.1,269.6z"/>
		<path class="st4" d="M836.1,269.6c1.1,1.8,0.5,4-1.3,5.1s-4,0.5-5.1-1.3c-1.6-2.7-0.8-8.5-0.8-8.5"/>
		<path class="st4" d="M836.1,269.6c1.1,1.8,0.5,4-1.3,5.1s-4,0.5-5.1-1.3c-1.6-2.7-0.8-8.5-0.8-8.5"/>
		<path class="st5" d="M834.2,268.9c0.7,1.2,0.3,2.7-0.8,3.4c-1.2,0.7-2.7,0.3-3.4-0.8c-1.1-1.8-0.5-5.7-0.5-5.7
			S833.2,267.1,834.2,268.9z"/>
	</g>
	<g>
		<path class="st3" d="M832.8,251.7c2.9,0.6,4.8,3.4,4.2,6.3c-0.6,2.9-3.4,4.8-6.3,4.2c-4.5-0.9-9.8-7.4-9.8-7.4
			S828.4,250.9,832.8,251.7z"/>
		<path class="st4" d="M832.8,251.7c2.9,0.6,4.8,3.4,4.2,6.3c-0.6,2.9-3.4,4.8-6.3,4.2c-4.5-0.9-9.8-7.4-9.8-7.4"/>
		<path class="st4" d="M832.8,251.7c2.9,0.6,4.8,3.4,4.2,6.3c-0.6,2.9-3.4,4.8-6.3,4.2c-4.5-0.9-9.8-7.4-9.8-7.4"/>
		<path class="st5" d="M830.3,253.1c1.9,0.4,3.2,2.2,2.8,4.2s-2.2,3.2-4.2,2.8c-3-0.6-6.5-4.9-6.5-4.9S827.3,252.5,830.3,253.1z"/>
	</g>
</g>
<g>
	<ellipse class="st1" cx="647.3" cy="261.2" rx="12.2" ry="9.6"/>
	<g>
		<ellipse class="st6" cx="640.9" cy="261.2" rx="2.9" ry="4.6"/>
		<ellipse class="st6" cx="653.6" cy="261.2" rx="2.9" ry="4.6"/>
	</g>
	<path class="st7" d="M659.5,261.2c0,5.3-3.5,9.6-12.2,9.6c-8.8,0-12.2-4.3-12.2-9.6c0-5.3,3.5-9.6,12.2-9.6"/>
</g>
<g>
	<g>
		<path class="st8" d="M825,104c0.8,1.4,1.7,2.7,2.7,3.8c2.2,2.3,4.2,1.6,6.3,5.2c1,1.7,1.7,5.7-2.3,8.3c-3.1,2-7.3,1.2-10.1-1.4
			c-3.3-3-5.1-7.7-6.1-12.1C814.1,101.8,822,98.8,825,104z"/>
	</g>
	<path class="st9" d="M834,113c1,1.7,1.7,5.7-2.3,8.3c-3.1,2-7.3,1.2-10.1-1.4c-3.3-3-5.1-7.7-6.1-12.1"/>
	<path class="st0" d="M817.7,105.7c-0.6-1.4-0.6-2.9,0-4.3c0.6-1.4,1.7-2.5,3.1-3.1l0.4,0.9c-1.1,0.5-2,1.4-2.5,2.5
		c-0.5,1.2-0.5,2.4,0,3.6L817.7,105.7z"/>
	<path class="st0" d="M825.4,104.1c-1.2-2.8-4.4-4.2-7.3-3c-2.8,1.2-4.2,4.4-3,7.3c1.3-0.5,2.2-1.5,2.8-2.6c0.6,0.7,1.5,1.1,2.7,1.3
		c0.7-1,1-2,0.9-2.9C822.8,104.6,824.2,104.6,825.4,104.1z"/>
	<path class="st10" d="M818.2,101.1c-2.8,1.2-4.2,4.4-3,7.3c1.3-0.5,2.2-1.5,2.8-2.6c0.6,0.7,1.5,1.1,2.7,1.3"/>
</g>
<g>
	<g>
		<g>
			<circle class="st11" cx="655.7" cy="104" r="5.6"/>
			<circle class="st12" cx="655.7" cy="104" r="3.7"/>
		</g>
		<g>
			<circle class="st11" cx="638.7" cy="104" r="5.6"/>
			<circle class="st12" cx="638.7" cy="104" r="3.7"/>
		</g>
	</g>
	<path class="st13" d="M642.7,107.9c-2.2,2.2-5.8,2.2-8,0c-2.2-2.2-2.2-5.8,0-8"/>
	<path class="st11" d="M657.4,108.4c-0.8-4.9-5.1-8.7-10.2-8.7s-9.4,3.8-10.2,8.7c-1.6,1.3-2.6,3.3-2.6,5.5c0,4,3.2,7.2,7.2,7.2
		c1.3,0,10,0,11.2,0c4,0,7.2-3.2,7.2-7.2C660,111.7,659,109.7,657.4,108.4z"/>
	<path class="st13" d="M647.2,99.7c-5.2,0-9.4,3.8-10.2,8.7c-1.6,1.3-2.6,3.3-2.6,5.5c0,4,3.2,7.2,7.2,7.2c1.3,0,10,0,11.2,0
		c4,0,7.2-3.2,7.2-7.2"/>
	<g>
		<g>
			<ellipse class="st6" cx="642.6" cy="110.8" rx="1.8" ry="2.8"/>
			<ellipse class="st6" cx="651.8" cy="110.8" rx="1.8" ry="2.8"/>
		</g>
		<g>
			<circle class="st12" cx="650.6" cy="115.9" r="3.4"/>
			<circle class="st12" cx="647.2" cy="116.5" r="3.4"/>
			<circle class="st12" cx="643.8" cy="115.9" r="3.4"/>
			<path class="st6" d="M645,112.1c1.3-1,3.2-1,4.5,0c0.2,0.2,0.3,0.4,0.3,0.7c-0.2,1.2-1.2,2.1-2.5,2.1s-2.3-0.9-2.5-2.1
				C644.6,112.5,644.7,112.3,645,112.1z"/>
			<path class="st14" d="M650.8,119.4c-2,0-3.7-1.6-3.7-3.7v-3.2v3.2c0,2-1.6,3.7-3.7,3.7"/>
		</g>
	</g>
</g>
<g>
	<g>
		<path class="st15" d="M833.1,409.9c2.2-0.8,3.8-2.8,4.2-5c0.8,0.7,1.5,1.6,1.9,2.7c1.2,3.4-0.5,7.1-3.9,8.3L833.1,409.9z"/>
		<path class="st15" d="M819.5,409.9c-2.2-0.8-3.8-2.8-4.2-5c-0.8,0.7-1.5,1.6-1.9,2.7c-1.2,3.4,0.5,7.1,3.9,8.3L819.5,409.9z"/>
	</g>
	<circle class="st8" cx="826.2" cy="417.7" r="10.8"/>
	<path class="st9" d="M837,417.7c0,6-4.8,10.8-10.8,10.8s-10.8-4.8-10.8-10.8s4.8-10.8,10.8-10.8"/>
	<g>
		<ellipse class="st6" cx="822.5" cy="418.4" rx="1.7" ry="2.7"/>
		<ellipse class="st6" cx="829.8" cy="418.4" rx="1.7" ry="2.7"/>
	</g>
	<path class="st16" d="M831.6,423.2c-3,3-7.9,3-10.9,0"/>
	<g>
		<line class="st16" x1="828.2" y1="416.5" x2="832.2" y2="415"/>
		<line class="st16" x1="824.2" y1="416.5" x2="820.2" y2="415"/>
	</g>
</g>
<g>
	<path class="st0" d="M647.7,415.3L647.7,415.3c-0.5,0-0.9,0.4-0.9,0.9v10.6c0,0.5,0.4,0.9,0.9,0.9l0,0c0.5,0,0.9-0.4,0.9-0.9v-10.6
		C648.6,415.8,648.2,415.3,647.7,415.3z"/>
	<path class="st0" d="M647.7,425.5c0-5.8,4.7-10.4,10.4-10.4C658.1,420.8,653.5,425.5,647.7,425.5z"/>
	<path class="st17" d="M647.7,418c-3.6-3.6-3.6-9.5,0-13.1C651.3,408.5,651.3,414.4,647.7,418z"/>
	<path class="st18" d="M647.7,413c0-3.5-2.6-6.4-5.9-6.9c-0.7,2.3-1.1,4.6-1.1,6c0,3.9,3.1,7,7,7s7-3.1,7-7c0-1.4-0.4-3.6-1.1-6
		C650.3,406.6,647.7,409.5,647.7,413z"/>
	<path class="st19" d="M653.6,406.1c-3.3,0.5-5.9,3.4-5.9,6.9c0-3.5-2.6-6.4-5.9-6.9c-0.7,2.3-1.1,4.6-1.1,6c0,3.9,3.1,7,7,7"/>
	<path class="st0" d="M647.7,425.5c0-5.8-4.7-10.4-10.4-10.4C637.3,420.8,641.9,425.5,647.7,425.5z"/>
	<path class="st10" d="M640.5,415.5c-1-0.3-2.1-0.5-3.2-0.5c0,5.8,4.7,10.4,10.4,10.4"/>
	<path class="st10" d="M647.7,425.5"/>
</g>
<g>
	<path class="st18" d="M999.3,404.9c-3,0-5.9,2.3-5.9,5.8c0,7,6.7,7.7,11.5,14.9c4.8-7.2,11.5-7.9,11.5-14.9c0-6-8.2-8.4-11.5-2.2
		C1003.5,406,1001.4,404.9,999.3,404.9L999.3,404.9z"/>
	<path class="st20" d="M1016.4,410.7c0-6-8.2-8.4-11.5-2.2c-1.4-2.5-3.5-3.6-5.6-3.6l0,0"/>
	<path class="st20" d="M999.3,404.9c-3,0-5.9,2.3-5.9,5.8c0,7,6.7,7.7,11.5,14.9"/>
</g>
<g>
	<path class="st21" d="M1012.1,114.2l-21,0c-1.6,0-2.8-1.3-2.8-2.8v0c0-6.6,5.3-11.9,11.9-11.9h0c6.6,0,11.9,5.3,11.9,11.9V114.2z"
		/>
	<g>
		<path class="st0" d="M1011.5,105.2c0,0.7-0.9,1.3-1.2,2c-0.3,0.6-0.1,1.7-0.6,2.2c-0.5,0.5-1.5,0.4-2.2,0.8
			c-0.6,0.4-0.9,1.4-1.7,1.6c-0.7,0.2-1.6-0.3-2.3-0.2c-0.7,0.1-1.4,0.9-2.1,0.9c-0.8,0-1.4-0.8-2.1-0.9c-0.7-0.1-1.6,0.4-2.3,0.2
			c-0.7-0.3-1.1-1.2-1.7-1.6c-0.7-0.4-1.7-0.3-2.2-0.8c-0.5-0.5-0.3-1.6-0.6-2.2c-0.3-0.7-1.2-1.2-1.2-2c0-0.7,0.9-1.3,1.2-2
			c0.3-0.6,0.1-1.7,0.6-2.2c0.5-0.5,1.5-0.4,2.2-0.8c0.6-0.4,0.9-1.4,1.7-1.6c0.7-0.2,1.6,0.3,2.3,0.2c0.7-0.1,1.4-0.9,2.1-0.9
			c0.8,0,1.4,0.8,2.1,0.9c0.7,0.1,1.6-0.4,2.3-0.2c0.7,0.3,1.1,1.2,1.7,1.6c0.7,0.4,1.7,0.3,2.2,0.8c0.5,0.5,0.3,1.6,0.6,2.2
			C1010.7,103.9,1011.5,104.5,1011.5,105.2z"/>
	</g>
	<circle class="st22" cx="992" cy="109.9" r="2.3"/>
	<circle class="st22" cx="993.4" cy="107.6" r="2.3"/>
	<path class="st21" d="M1013.6,114.2l-21,0v-2.8c0-6.6,5.3-11.9,11.9-11.9h0c6.6,0,11.9,5.3,11.9,11.9v0
		C1016.4,112.9,1015.1,114.2,1013.6,114.2z"/>
	<path class="st23" d="M1004.5,99.5L1004.5,99.5c-6.6,0-11.9,5.3-11.9,11.9v0c0,1-0.8,1.7-1.7,1.7h-0.8"/>
	<path class="st23" d="M1004.5,99.5c6.6,0,11.9,5.3,11.9,11.9"/>
</g>
<g>
	<g>
		<path class="st18" d="M1000.6,258.8l-2.3,1.6l-4.8-8.2c-0.3-0.5,0.3-0.9,0.7-0.5L1000.6,258.8z"/>
	</g>
	<path class="st19" d="M998.4,260.5l-4.8-8.2c-0.3-0.5,0.3-0.9,0.7-0.5l2.5,2.8"/>
	<path class="st24" d="M1011.8,275.3c-4.2-1.2-8.2-7.6-7.9-12.4c0.1-1.4,0.6-3-0.3-3.7c-0.9-0.7-2.1,0.3-3.3-0.5
		c-1.4-0.9-3-3.5-1-5.9c-0.2,1,0.9,1.8,2.7,0.8c3.9-2.1,7.2,0.2,8.6,4c7.9,6.9,5.9,13.6,4.6,17.7H1011.8z"/>
	<path class="st24" d="M996.6,272.5l-1.1,0.6c-1.7,1-3.9,0.7-5.3-0.7c-1.7-1.7-1.7-2,1.3-5L996.6,272.5z"/>
	<path class="st25" d="M1000.4,275.3l2.4-4.4c-0.7,0.3-1.5,0.5-2.4,0.5l-1.8-0.1l-2,1.2l-5-5c5-4.7,3.9-5.6,5.6-7.2
		c4.5-4.5,10.2-3.2,12.6,0.9c3,5.2,2.1,14.1,2.1,14.1H1000.4z"/>
	
		<ellipse transform="matrix(0.998 -6.377523e-02 6.377523e-02 0.998 -15.2518 63.6984)" class="st6" cx="990.2" cy="270.8" rx="0.6" ry="0.9"/>
	<path class="st14" d="M1000.6,262.2c-0.4,0.4-1,0.5-1.5,0.1"/>
	<ellipse class="st6" cx="998.8" cy="263.6" rx="1.1" ry="1.7"/>
	<path class="st24" d="M1007.1,272.3c1-5.4,8.1-4.7,3.7-11.3C1005.3,260.6,1001.4,268.6,1007.1,272.3z"/>
	<path class="st24" d="M1012.3,274.5c-4.4-0.3-6.2-9.1-2.4-11.8l3.7,5.2L1012.3,274.5z"/>
	<path class="st24" d="M1005.2,256.9c0,0-0.1,2.4-1.9,3.3c2.3,2.7,6.4,1,6.4,1l-2-3.8L1005.2,256.9z"/>
	<path class="st26" d="M1009.7,261.1c-2.4-4.2-8.1-5.5-12.6-0.9c-1.6,1.6-0.6,2.6-5.6,7.2c-3,3-3,3.4-1.3,5c1.4,1.4,3.6,1.7,5.3,0.7
		l1.1-0.6l2-1.2l1.8,0.1c0.8,0,1.6-0.1,2.4-0.5l-2.4,4.4"/>
	<path class="st14" d="M994.8,272c-0.2,0.9-1,1.5-1.9,1.3"/>
	<path class="st25" d="M1002.8,260.6c1.9,0,3.4-1.5,3.4-3.4c0-1.9-1.5-3.4-3.4-3.4V260.6z"/>
</g>
<g>
	<path class="st0" d="M562.4,475.5c-4.4-6.1-12.1-9-19.3-6.5c2.9,8.5,11.1,13.6,19.3,12.2c8.2,1.3,16.4-3.7,19.3-12.2
		C574.5,466.5,566.8,469.4,562.4,475.5z"/>
	<g>
		<path class="st1" d="M570.9,475.2c-3.1,0-6,0.8-8.5,2.3c-2.5-1.4-5.4-2.3-8.5-2.3c-9.4,0-17,7.6-17,17c0,21.2,25.5,27.9,25.5,27.9
			s25.5-6.8,25.5-27.9C587.9,482.8,580.3,475.2,570.9,475.2z"/>
		<path class="st2" d="M562.4,520.1c0,0,25.5-6.8,25.5-27.9c0-9.4-7.6-17-17-17s-17,7.6-17,17c0,4.7,1.9,8.9,5,12"/>
	</g>
</g>
<g>
	<path class="st0" d="M740,475.5c-4.4-6.1-12.1-9-19.3-6.5c2.9,8.5,11.1,13.6,19.3,12.2c8.2,1.3,16.4-3.7,19.3-12.2
		C752.1,466.5,744.4,469.4,740,475.5z"/>
	<g>
		<path class="st1" d="M748.5,475.2c-3.1,0-6,0.8-8.5,2.3c-2.5-1.4-5.4-2.3-8.5-2.3c-9.4,0-17,7.6-17,17c0,21.2,25.5,27.9,25.5,27.9
			s25.5-6.8,25.5-27.9C765.5,482.8,757.9,475.2,748.5,475.2z"/>
		<path class="st2" d="M740,520.1c0,0,25.5-6.8,25.5-27.9c0-9.4-7.6-17-17-17c-9.4,0-17,7.6-17,17c0,4.7,1.9,8.9,5,12"/>
	</g>
</g>
<g>
	<path class="st0" d="M917.6,475.5c-4.4-6.1-12.1-9-19.3-6.5c2.9,8.5,11.1,13.6,19.3,12.2c8.2,1.3,16.4-3.7,19.3-12.2
		C929.7,466.5,922,469.4,917.6,475.5z"/>
	<g>
		<path class="st1" d="M926,475.2c-3.1,0-6,0.8-8.5,2.3c-2.5-1.4-5.4-2.3-8.5-2.3c-9.4,0-17,7.6-17,17c0,21.2,25.5,27.9,25.5,27.9
			s25.5-6.8,25.5-27.9C943,482.8,935.4,475.2,926,475.2z"/>
		<path class="st2" d="M917.6,520.1c0,0,25.5-6.8,25.5-27.9c0-9.4-7.6-17-17-17s-17,7.6-17,17c0,4.7,1.9,8.9,5,12"/>
	</g>
</g>
<g>
	<path class="st0" d="M562.4,628.8c-4.4-6.1-12.1-9-19.3-6.5c2.9,8.5,11.1,13.6,19.3,12.2c8.2,1.3,16.4-3.7,19.3-12.2
		C574.5,619.8,566.8,622.7,562.4,628.8z"/>
	<g>
		<path class="st1" d="M570.9,628.5c-3.1,0-6,0.8-8.5,2.3c-2.5-1.4-5.4-2.3-8.5-2.3c-9.4,0-17,7.6-17,17c0,21.2,25.5,27.9,25.5,27.9
			s25.5-6.8,25.5-27.9C587.9,636.1,580.3,628.5,570.9,628.5z"/>
		<path class="st2" d="M562.4,673.4c0,0,25.5-6.8,25.5-27.9c0-9.4-7.6-17-17-17s-17,7.6-17,17c0,4.7,1.9,8.9,5,12"/>
	</g>
</g>
<g>
	<path class="st0" d="M740.1,628.8c-4.4-6.1-12.1-9-19.3-6.5c2.9,8.5,11.1,13.6,19.3,12.2c8.2,1.3,16.4-3.7,19.3-12.2
		C752.3,619.8,744.6,622.7,740.1,628.8z"/>
	<g>
		<path class="st1" d="M748.6,628.5c-3.1,0-6,0.8-8.5,2.3c-2.5-1.4-5.4-2.3-8.5-2.3c-9.4,0-17,7.6-17,17c0,21.2,25.5,27.9,25.5,27.9
			s25.5-6.8,25.5-27.9C765.6,636.1,758,628.5,748.6,628.5z"/>
		<path class="st2" d="M740.1,673.4c0,0,25.5-6.8,25.5-27.9c0-9.4-7.6-17-17-17s-17,7.6-17,17c0,4.7,1.9,8.9,5,12"/>
	</g>
</g>
<g>
	<path class="st0" d="M917.9,628.8c-4.4-6.1-12.1-9-19.3-6.5c2.9,8.5,11.1,13.6,19.3,12.2c8.2,1.3,16.4-3.7,19.3-12.2
		C930,619.8,922.3,622.7,917.9,628.8z"/>
	<g>
		<path class="st1" d="M926.4,628.5c-3.1,0-6,0.8-8.5,2.3c-2.5-1.4-5.4-2.3-8.5-2.3c-9.4,0-17,7.6-17,17c0,21.2,25.5,27.9,25.5,27.9
			s25.5-6.8,25.5-27.9C943.3,636.1,935.7,628.5,926.4,628.5z"/>
		<path class="st2" d="M917.9,673.4c0,0,25.5-6.8,25.5-27.9c0-9.4-7.6-17-17-17s-17,7.6-17,17c0,4.7,1.9,8.9,5,12"/>
	</g>
</g>
<g>
	<path class="st0" d="M562.4,782.1c-4.4-6.1-12.1-9-19.3-6.5c2.9,8.5,11.1,13.6,19.3,12.2c8.2,1.3,16.4-3.7,19.3-12.2
		C574.5,773.1,566.8,776,562.4,782.1z"/>
	<g>
		<path class="st1" d="M570.9,781.9c-3.1,0-6,0.8-8.5,2.3c-2.5-1.4-5.4-2.3-8.5-2.3c-9.4,0-17,7.6-17,17c0,21.2,25.5,27.9,25.5,27.9
			s25.5-6.8,25.5-27.9C587.9,789.5,580.3,781.9,570.9,781.9z"/>
		<path class="st2" d="M562.4,826.7c0,0,25.5-6.8,25.5-27.9c0-9.4-7.6-17-17-17c-9.4,0-17,7.6-17,17c0,4.7,1.9,8.9,5,12"/>
	</g>
</g>
<g>
	<path class="st0" d="M741,782.1c-4.4-6.1-12.1-9-19.3-6.5c2.9,8.5,11.1,13.6,19.3,12.2c8.2,1.3,16.4-3.7,19.3-12.2
		C753.1,773.1,745.4,776,741,782.1z"/>
	<g>
		<path class="st1" d="M749.5,781.9c-3.1,0-6,0.8-8.5,2.3c-2.5-1.4-5.4-2.3-8.5-2.3c-9.4,0-17,7.6-17,17c0,21.2,25.5,27.9,25.5,27.9
			s25.5-6.8,25.5-27.9C766.5,789.5,758.9,781.9,749.5,781.9z"/>
		<path class="st2" d="M741,826.7c0,0,25.5-6.8,25.5-27.9c0-9.4-7.6-17-17-17c-9.4,0-17,7.6-17,17c0,4.7,1.9,8.9,5,12"/>
	</g>
</g>
<g>
	<path class="st0" d="M919.6,782.1c-4.4-6.1-12.1-9-19.3-6.5c2.9,8.5,11.1,13.6,19.3,12.2c8.2,1.3,16.4-3.7,19.3-12.2
		C931.7,773.1,924,776,919.6,782.1z"/>
	<g>
		<path class="st1" d="M928.1,781.9c-3.1,0-6,0.8-8.5,2.3c-2.5-1.4-5.4-2.3-8.5-2.3c-9.4,0-17,7.6-17,17c0,21.2,25.5,27.9,25.5,27.9
			s25.5-6.8,25.5-27.9C945.1,789.5,937.5,781.9,928.1,781.9z"/>
		<path class="st2" d="M919.6,826.7c0,0,25.5-6.8,25.5-27.9c0-9.4-7.6-17-17-17c-9.4,0-17,7.6-17,17c0,4.7,1.9,8.9,5,12"/>
	</g>
</g>
<g>
	<g>
		<path class="st3" d="M828.6,727.6c0.8,3.2-1.1,6.4-4.3,7.2c-3.2,0.8-6.4-1.1-7.2-4.3c-1.2-4.9,2.7-13.4,2.7-13.4
			S827.4,722.7,828.6,727.6z"/>
		<path class="st4" d="M828.6,727.6c0.8,3.2-1.1,6.4-4.3,7.2c-3.2,0.8-6.4-1.1-7.2-4.3c-1.2-4.9,2.7-13.4,2.7-13.4"/>
		<path class="st4" d="M828.6,727.6c0.8,3.2-1.1,6.4-4.3,7.2c-3.2,0.8-6.4-1.1-7.2-4.3c-1.2-4.9,2.7-13.4,2.7-13.4"/>
		<path class="st5" d="M826.1,725.6c0.5,2.1-0.7,4.3-2.9,4.8s-4.3-0.7-4.8-2.9c-0.8-3.3,1.8-8.9,1.8-8.9S825.2,722.3,826.1,725.6z"
			/>
	</g>
	<g>
		<path class="st3" d="M840.1,729.4c1.1,1.8,0.5,4-1.3,5.1c-1.8,1.1-4,0.5-5.1-1.3c-1.6-2.7-0.8-8.5-0.8-8.5
			S838.5,726.7,840.1,729.4z"/>
		<path class="st4" d="M840.1,729.4c1.1,1.8,0.5,4-1.3,5.1c-1.8,1.1-4,0.5-5.1-1.3c-1.6-2.7-0.8-8.5-0.8-8.5"/>
		<path class="st4" d="M840.1,729.4c1.1,1.8,0.5,4-1.3,5.1c-1.8,1.1-4,0.5-5.1-1.3c-1.6-2.7-0.8-8.5-0.8-8.5"/>
		<path class="st5" d="M838.3,728.7c0.7,1.2,0.3,2.7-0.8,3.4c-1.2,0.7-2.7,0.3-3.4-0.8c-1.1-1.8-0.5-5.7-0.5-5.7
			S837.2,726.9,838.3,728.7z"/>
	</g>
	<g>
		<path class="st3" d="M836.9,711.5c2.9,0.6,4.8,3.4,4.2,6.3s-3.4,4.8-6.3,4.2c-4.5-0.9-9.8-7.4-9.8-7.4S832.4,710.6,836.9,711.5z"
			/>
		<path class="st4" d="M836.9,711.5c2.9,0.6,4.8,3.4,4.2,6.3s-3.4,4.8-6.3,4.2c-4.5-0.9-9.8-7.4-9.8-7.4"/>
		<path class="st4" d="M836.9,711.5c2.9,0.6,4.8,3.4,4.2,6.3s-3.4,4.8-6.3,4.2c-4.5-0.9-9.8-7.4-9.8-7.4"/>
		<path class="st5" d="M834.3,712.8c1.9,0.4,3.2,2.2,2.8,4.2c-0.4,1.9-2.2,3.2-4.2,2.8c-3-0.6-6.5-4.9-6.5-4.9
			S831.3,712.2,834.3,712.8z"/>
	</g>
</g>
<g>
	<ellipse class="st1" cx="651.3" cy="721" rx="12.2" ry="9.6"/>
	<g>
		<ellipse class="st6" cx="644.9" cy="721" rx="2.9" ry="4.6"/>
		<ellipse class="st6" cx="657.7" cy="721" rx="2.9" ry="4.6"/>
	</g>
	<path class="st7" d="M663.5,721c0,5.3-3.5,9.6-12.2,9.6S639,726.3,639,721s3.5-9.6,12.2-9.6"/>
</g>
<g>
	<g>
		<path class="st8" d="M829,563.8c0.8,1.4,1.7,2.7,2.7,3.8c2.2,2.3,4.2,1.6,6.3,5.2c1,1.7,1.7,5.7-2.3,8.3c-3.1,2-7.3,1.2-10.1-1.4
			c-3.3-3-5.1-7.7-6.1-12.1C818.1,561.5,826,558.5,829,563.8z"/>
	</g>
	<path class="st9" d="M838,572.8c1,1.7,1.7,5.7-2.3,8.3c-3.1,2-7.3,1.2-10.1-1.4c-3.3-3-5.1-7.7-6.1-12.1"/>
	<path class="st0" d="M821.7,565.5c-0.6-1.4-0.6-2.9,0-4.3s1.7-2.5,3.1-3.1l0.4,0.9c-1.1,0.5-2,1.4-2.5,2.5c-0.5,1.2-0.5,2.4,0,3.6
		L821.7,565.5z"/>
	<path class="st0" d="M829.4,563.8c-1.2-2.8-4.4-4.2-7.3-3c-2.8,1.2-4.2,4.4-3,7.3c1.3-0.5,2.2-1.5,2.8-2.6c0.6,0.7,1.5,1.1,2.7,1.3
		c0.7-1,1-2,0.9-2.9C826.9,564.4,828.2,564.4,829.4,563.8z"/>
	<path class="st10" d="M822.2,560.9c-2.8,1.2-4.2,4.4-3,7.3c1.3-0.5,2.2-1.5,2.8-2.6c0.6,0.7,1.5,1.1,2.7,1.3"/>
</g>
<g>
	<g>
		<g>
			<circle class="st11" cx="659.7" cy="563.7" r="5.6"/>
			<circle class="st12" cx="659.7" cy="563.7" r="3.7"/>
		</g>
		<g>
			<circle class="st11" cx="642.7" cy="563.7" r="5.6"/>
			<circle class="st12" cx="642.7" cy="563.7" r="3.7"/>
		</g>
	</g>
	<path class="st13" d="M646.7,567.7c-2.2,2.2-5.8,2.2-8,0s-2.2-5.8,0-8"/>
	<path class="st11" d="M661.4,568.1c-0.8-4.9-5.1-8.7-10.2-8.7c-5.2,0-9.4,3.8-10.2,8.7c-1.6,1.3-2.6,3.3-2.6,5.5
		c0,4,3.2,7.2,7.2,7.2c1.3,0,10,0,11.2,0c4,0,7.2-3.2,7.2-7.2C664,571.4,663,569.4,661.4,568.1z"/>
	<path class="st13" d="M651.2,559.4c-5.2,0-9.4,3.8-10.2,8.7c-1.6,1.3-2.6,3.3-2.6,5.5c0,4,3.2,7.2,7.2,7.2c1.3,0,10,0,11.2,0
		c4,0,7.2-3.2,7.2-7.2"/>
	<g>
		<g>
			<ellipse class="st6" cx="646.6" cy="570.6" rx="1.8" ry="2.8"/>
			<ellipse class="st6" cx="655.8" cy="570.6" rx="1.8" ry="2.8"/>
		</g>
		<g>
			<circle class="st12" cx="654.6" cy="575.7" r="3.4"/>
			<circle class="st12" cx="651.2" cy="576.3" r="3.4"/>
			<circle class="st12" cx="647.8" cy="575.7" r="3.4"/>
			<path class="st6" d="M649,571.8c1.3-1,3.2-1,4.5,0c0.2,0.2,0.3,0.4,0.3,0.7c-0.2,1.2-1.2,2.1-2.5,2.1c-1.2,0-2.3-0.9-2.5-2.1
				C648.7,572.3,648.8,572,649,571.8z"/>
			<path class="st14" d="M654.9,579.1c-2,0-3.7-1.6-3.7-3.7v-3.2v3.2c0,2-1.6,3.7-3.7,3.7"/>
		</g>
	</g>
</g>
<g>
	<g>
		<path class="st15" d="M837.1,869.6c2.2-0.8,3.8-2.8,4.2-5c0.8,0.7,1.5,1.6,1.9,2.7c1.2,3.4-0.5,7.1-3.9,8.3L837.1,869.6z"/>
		<path class="st15" d="M823.5,869.6c-2.2-0.8-3.8-2.8-4.2-5c-0.8,0.7-1.5,1.6-1.9,2.7c-1.2,3.4,0.5,7.1,3.9,8.3L823.5,869.6z"/>
	</g>
	<circle class="st8" cx="830.2" cy="877.4" r="10.8"/>
	<path class="st9" d="M841,877.4c0,6-4.8,10.8-10.8,10.8s-10.8-4.8-10.8-10.8s4.8-10.8,10.8-10.8"/>
	<g>
		<ellipse class="st6" cx="826.5" cy="878.2" rx="1.7" ry="2.7"/>
		<ellipse class="st6" cx="833.8" cy="878.2" rx="1.7" ry="2.7"/>
	</g>
	<path class="st16" d="M835.6,882.9c-3,3-7.9,3-10.9,0"/>
	<g>
		<line class="st16" x1="832.2" y1="876.2" x2="836.2" y2="874.7"/>
		<line class="st16" x1="828.2" y1="876.2" x2="824.2" y2="874.7"/>
	</g>
</g>
<g>
	<path class="st0" d="M651.7,875.1L651.7,875.1c-0.5,0-0.9,0.4-0.9,0.9v10.6c0,0.5,0.4,0.9,0.9,0.9l0,0c0.5,0,0.9-0.4,0.9-0.9V876
		C652.6,875.5,652.2,875.1,651.7,875.1z"/>
	<path class="st0" d="M651.7,885.2c0-5.8,4.7-10.4,10.4-10.4C662.1,880.6,657.5,885.2,651.7,885.2z"/>
	<path class="st17" d="M651.7,877.7c-3.6-3.6-3.6-9.5,0-13.1C655.3,868.3,655.3,874.1,651.7,877.7z"/>
	<path class="st18" d="M651.7,872.8c0-3.5-2.6-6.4-5.9-6.9c-0.7,2.3-1.1,4.6-1.1,6c0,3.9,3.1,7,7,7s7-3.1,7-7c0-1.4-0.4-3.6-1.1-6
		C654.3,866.4,651.7,869.3,651.7,872.8z"/>
	<path class="st19" d="M657.6,865.9c-3.3,0.5-5.9,3.4-5.9,6.9c0-3.5-2.6-6.4-5.9-6.9c-0.7,2.3-1.1,4.6-1.1,6c0,3.9,3.1,7,7,7"/>
	<path class="st0" d="M651.7,885.2c0-5.8-4.7-10.4-10.4-10.4C641.3,880.6,646,885.2,651.7,885.2z"/>
	<path class="st10" d="M644.5,875.3c-1-0.3-2.1-0.5-3.2-0.5c0,5.8,4.7,10.4,10.4,10.4"/>
	<path class="st10" d="M651.7,885.2"/>
</g>
<g>
	<path class="st18" d="M1003.3,864.7c-3,0-5.9,2.3-5.9,5.8c0,7,6.7,7.7,11.5,14.9c4.8-7.2,11.5-7.9,11.5-14.9c0-6-8.2-8.4-11.5-2.2
		C1007.5,865.8,1005.4,864.7,1003.3,864.7L1003.3,864.7z"/>
	<path class="st20" d="M1020.4,870.5c0-6-8.2-8.4-11.5-2.2c-1.4-2.5-3.5-3.6-5.6-3.6l0,0"/>
	<path class="st20" d="M1003.3,864.7c-3,0-5.9,2.3-5.9,5.8c0,7,6.7,7.7,11.5,14.9"/>
</g>
<g>
	<path class="st21" d="M1016.1,573.9h-21c-1.6,0-2.8-1.3-2.8-2.8v0c0-6.6,5.3-11.9,11.9-11.9l0,0c6.6,0,11.9,5.3,11.9,11.9V573.9z"
		/>
	<g>
		<path class="st0" d="M1015.5,565c0,0.7-0.9,1.3-1.2,2c-0.3,0.6-0.1,1.7-0.6,2.2c-0.5,0.5-1.5,0.4-2.2,0.8
			c-0.6,0.4-0.9,1.4-1.7,1.6c-0.7,0.2-1.6-0.3-2.3-0.2c-0.7,0.1-1.4,0.9-2.1,0.9c-0.8,0-1.4-0.8-2.1-0.9c-0.7-0.1-1.6,0.4-2.3,0.2
			c-0.7-0.3-1.1-1.2-1.7-1.6c-0.7-0.4-1.7-0.3-2.2-0.8c-0.5-0.5-0.3-1.6-0.6-2.2c-0.3-0.7-1.2-1.2-1.2-2c0-0.7,0.9-1.3,1.2-2
			c0.3-0.6,0.1-1.7,0.6-2.2c0.5-0.5,1.5-0.4,2.2-0.8c0.6-0.4,0.9-1.4,1.7-1.6c0.7-0.2,1.6,0.3,2.3,0.2c0.7-0.1,1.4-0.9,2.1-0.9
			c0.8,0,1.4,0.8,2.1,0.9c0.7,0.1,1.6-0.4,2.3-0.2c0.7,0.3,1.1,1.2,1.7,1.6c0.7,0.4,1.7,0.3,2.2,0.8c0.5,0.5,0.3,1.6,0.6,2.2
			C1014.7,563.7,1015.5,564.2,1015.5,565z"/>
	</g>
	<circle class="st22" cx="996" cy="569.6" r="2.3"/>
	<circle class="st22" cx="997.5" cy="567.4" r="2.3"/>
	<path class="st21" d="M1017.6,573.9h-21v-2.8c0-6.6,5.3-11.9,11.9-11.9l0,0c6.6,0,11.9,5.3,11.9,11.9l0,0
		C1020.4,572.7,1019.1,573.9,1017.6,573.9z"/>
	<path class="st23" d="M1008.5,559.2L1008.5,559.2c-6.6,0-11.9,5.3-11.9,11.9v0c0,1-0.8,1.7-1.7,1.7h-0.8"/>
	<path class="st23" d="M1008.5,559.2c6.6,0,11.9,5.3,11.9,11.9"/>
</g>
<g>
	<g>
		<path class="st18" d="M1004.7,718.6l-2.3,1.6l-4.8-8.2c-0.3-0.5,0.3-0.9,0.7-0.5L1004.7,718.6z"/>
	</g>
	<path class="st19" d="M1002.4,720.2l-4.8-8.2c-0.3-0.5,0.3-0.9,0.7-0.5l2.5,2.8"/>
	<path class="st24" d="M1015.8,735c-4.2-1.2-8.2-7.6-7.9-12.4c0.1-1.4,0.6-3-0.3-3.7c-0.9-0.7-2.1,0.3-3.3-0.5c-1.4-0.9-3-3.5-1-5.9
		c-0.2,1,0.9,1.8,2.7,0.8c3.9-2.1,7.2,0.2,8.6,4c7.9,6.9,5.9,13.6,4.6,17.7H1015.8z"/>
	<path class="st24" d="M1000.6,732.2l-1.1,0.6c-1.7,1-3.9,0.7-5.3-0.7c-1.7-1.7-1.7-2,1.3-5L1000.6,732.2z"/>
	<path class="st25" d="M1004.4,735l2.4-4.4c-0.7,0.3-1.5,0.5-2.4,0.5l-1.8-0.1l-2,1.2l-5-5c5-4.7,3.9-5.6,5.6-7.2
		c4.5-4.5,10.2-3.2,12.6,0.9c3,5.2,2.1,14.1,2.1,14.1H1004.4z"/>
	
		<ellipse transform="matrix(0.998 -6.377523e-02 6.377523e-02 0.998 -44.564 64.89)" class="st6" cx="994.2" cy="730.5" rx="0.6" ry="0.9"/>
	<path class="st14" d="M1004.7,721.9c-0.4,0.4-1,0.5-1.5,0.1"/>
	<ellipse class="st6" cx="1002.8" cy="723.4" rx="1.1" ry="1.7"/>
	<path class="st24" d="M1011.1,732c1-5.4,8.1-4.7,3.7-11.3C1009.3,720.3,1005.4,728.3,1011.1,732z"/>
	<path class="st24" d="M1016.4,734.2c-4.4-0.3-6.2-9.1-2.4-11.8l3.7,5.2L1016.4,734.2z"/>
	<path class="st24" d="M1009.2,716.6c0,0-0.1,2.4-1.9,3.3c2.3,2.7,6.4,1,6.4,1l-2-3.8L1009.2,716.6z"/>
	<path class="st26" d="M1013.7,720.9c-2.4-4.2-8.1-5.5-12.6-0.9c-1.6,1.6-0.6,2.6-5.6,7.2c-3,3-3,3.4-1.3,5c1.4,1.4,3.6,1.7,5.3,0.7
		l1.1-0.6l2-1.2l1.8,0.1c0.8,0,1.6-0.1,2.4-0.5l-2.4,4.4"/>
	<path class="st14" d="M998.8,731.8c-0.2,0.9-1,1.5-1.9,1.3"/>
	<path class="st25" d="M1006.8,720.3c1.9,0,3.4-1.5,3.4-3.4s-1.5-3.4-3.4-3.4V720.3z"/>
</g>
</svg>
