<?xml version="1.0" encoding="utf-8"?>
<!-- Generator: Adobe Illustrator 27.4.1, SVG Export Plug-In . SVG Version: 6.00 Build 0)  -->
<svg version="1.1" id="Layer_1" xmlns="http://www.w3.org/2000/svg" xmlns:xlink="http://www.w3.org/1999/xlink" x="0px" y="0px"
	 viewBox="0 0 414 896" style="enable-background:new 0 0 414 896;" xml:space="preserve">
<style type="text/css">
	.st0{fill:#59C618;}
	.st1{fill:#FFAA7B;}
	.st2{fill:none;stroke:#EA773D;stroke-width:0.72;stroke-linecap:round;stroke-miterlimit:10;}
</style>
<g>
	<path class="st0" d="M47.6,40.3c-3-4.1-8.2-6-13-4.4c1.9,5.7,7.5,9.1,13,8.2c5.5,0.9,11.1-2.5,13-8.2
		C55.8,34.3,50.6,36.2,47.6,40.3z"/>
	<g>
		<path class="st1" d="M53.4,40.2c-2.1,0-4,0.6-5.7,1.5c-1.7-1-3.6-1.5-5.7-1.5c-6.3,0-11.5,5.1-11.5,11.5
			c0,14.3,17.2,18.8,17.2,18.8s17.2-4.6,17.2-18.8C64.8,45.3,59.7,40.2,53.4,40.2z"/>
		<path class="st2" d="M47.6,70.5c0,0,17.2-4.6,17.2-18.8c0-6.3-5.1-11.5-11.5-11.5c-6.3,0-11.5,5.1-11.5,11.5c0,3.2,1.3,6,3.4,8.1"
			/>
	</g>
</g>
<g>
	<path class="st0" d="M152.1,40.3c-3-4.1-8.2-6-13-4.4c1.9,5.7,7.5,9.1,13,8.2c5.5,0.9,11.1-2.5,13-8.2
		C160.3,34.3,155,36.2,152.1,40.3z"/>
	<g>
		<path class="st1" d="M157.8,40.2c-2.1,0-4,0.6-5.7,1.5c-1.7-1-3.6-1.5-5.7-1.5c-6.3,0-11.5,5.1-11.5,11.5
			c0,14.3,17.2,18.8,17.2,18.8s17.2-4.6,17.2-18.8C169.2,45.3,164.1,40.2,157.8,40.2z"/>
		<path class="st2" d="M152.1,70.5c0,0,17.2-4.6,17.2-18.8c0-6.3-5.1-11.5-11.5-11.5s-11.5,5.1-11.5,11.5c0,3.2,1.3,6,3.4,8.1"/>
	</g>
</g>
<g>
	<path class="st0" d="M256.5,40.3c-3-4.1-8.2-6-13-4.4c1.9,5.7,7.5,9.1,13,8.2c5.5,0.9,11.1-2.5,13-8.2
		C264.7,34.3,259.5,36.2,256.5,40.3z"/>
	<g>
		<path class="st1" d="M262.2,40.2c-2.1,0-4,0.6-5.7,1.5c-1.7-1-3.6-1.5-5.7-1.5c-6.3,0-11.5,5.1-11.5,11.5
			c0,14.3,17.2,18.8,17.2,18.8s17.2-4.6,17.2-18.8C273.7,45.3,268.6,40.2,262.2,40.2z"/>
		<path class="st2" d="M256.5,70.5c0,0,17.2-4.6,17.2-18.8c0-6.3-5.1-11.5-11.5-11.5c-6.3,0-11.5,5.1-11.5,11.5c0,3.2,1.3,6,3.4,8.1
			"/>
	</g>
</g>
<g>
	<path class="st0" d="M360.9,40.3c-3-4.1-8.2-6-13-4.4c1.9,5.7,7.5,9.1,13,8.2c5.5,0.9,11.1-2.5,13-8.2
		C369.1,34.3,363.9,36.2,360.9,40.3z"/>
	<g>
		<path class="st1" d="M366.7,40.2c-2.1,0-4,0.6-5.7,1.5c-1.7-1-3.6-1.5-5.7-1.5c-6.3,0-11.5,5.1-11.5,11.5
			c0,14.3,17.2,18.8,17.2,18.8s17.2-4.6,17.2-18.8C378.1,45.3,373,40.2,366.7,40.2z"/>
		<path class="st2" d="M360.9,70.5c0,0,17.2-4.6,17.2-18.8c0-6.3-5.1-11.5-11.5-11.5s-11.5,5.1-11.5,11.5c0,3.2,1.3,6,3.4,8.1"/>
	</g>
</g>
<g>
	<path class="st0" d="M47.6,126.8c-3-4.1-8.2-6-13-4.4c1.9,5.7,7.5,9.1,13,8.2c5.5,0.9,11.1-2.5,13-8.2
		C55.8,120.8,50.6,122.7,47.6,126.8z"/>
	<g>
		<path class="st1" d="M53.4,126.7c-2.1,0-4,0.6-5.7,1.5c-1.7-1-3.6-1.5-5.7-1.5c-6.3,0-11.5,5.1-11.5,11.5
			c0,14.3,17.2,18.8,17.2,18.8s17.2-4.6,17.2-18.8C64.8,131.8,59.7,126.7,53.4,126.7z"/>
		<path class="st2" d="M47.6,157c0,0,17.2-4.6,17.2-18.8c0-6.3-5.1-11.5-11.5-11.5c-6.3,0-11.5,5.1-11.5,11.5c0,3.2,1.3,6,3.4,8.1"
			/>
	</g>
</g>
<g>
	<path class="st0" d="M152.1,126.8c-3-4.1-8.2-6-13-4.4c1.9,5.7,7.5,9.1,13,8.2c5.5,0.9,11.1-2.5,13-8.2
		C160.3,120.8,155,122.7,152.1,126.8z"/>
	<g>
		<path class="st1" d="M157.8,126.7c-2.1,0-4,0.6-5.7,1.5c-1.7-1-3.6-1.5-5.7-1.5c-6.3,0-11.5,5.1-11.5,11.5
			c0,14.3,17.2,18.8,17.2,18.8s17.2-4.6,17.2-18.8C169.2,131.8,164.1,126.7,157.8,126.7z"/>
		<path class="st2" d="M152.1,157c0,0,17.2-4.6,17.2-18.8c0-6.3-5.1-11.5-11.5-11.5c-6.3,0-11.5,5.1-11.5,11.5c0,3.2,1.3,6,3.4,8.1"
			/>
	</g>
</g>
<g>
	<path class="st0" d="M256.5,126.8c-3-4.1-8.2-6-13-4.4c1.9,5.7,7.5,9.1,13,8.2c5.5,0.9,11.1-2.5,13-8.2
		C264.7,120.8,259.5,122.7,256.5,126.8z"/>
	<g>
		<path class="st1" d="M262.2,126.7c-2.1,0-4,0.6-5.7,1.5c-1.7-1-3.6-1.5-5.7-1.5c-6.3,0-11.5,5.1-11.5,11.5
			c0,14.3,17.2,18.8,17.2,18.8s17.2-4.6,17.2-18.8C273.7,131.8,268.6,126.7,262.2,126.7z"/>
		<path class="st2" d="M256.5,157c0,0,17.2-4.6,17.2-18.8c0-6.3-5.1-11.5-11.5-11.5c-6.3,0-11.5,5.1-11.5,11.5c0,3.2,1.3,6,3.4,8.1"
			/>
	</g>
</g>
<g>
	<path class="st0" d="M360.9,126.8c-3-4.1-8.2-6-13-4.4c1.9,5.7,7.5,9.1,13,8.2c5.5,0.9,11.1-2.5,13-8.2
		C369.1,120.8,363.9,122.7,360.9,126.8z"/>
	<g>
		<path class="st1" d="M366.7,126.7c-2.1,0-4,0.6-5.7,1.5c-1.7-1-3.6-1.5-5.7-1.5c-6.3,0-11.5,5.1-11.5,11.5
			c0,14.3,17.2,18.8,17.2,18.8s17.2-4.6,17.2-18.8C378.1,131.8,373,126.7,366.7,126.7z"/>
		<path class="st2" d="M360.9,157c0,0,17.2-4.6,17.2-18.8c0-6.3-5.1-11.5-11.5-11.5c-6.3,0-11.5,5.1-11.5,11.5c0,3.2,1.3,6,3.4,8.1"
			/>
	</g>
</g>
<g>
	<path class="st0" d="M47.6,213.6c-3-4.1-8.2-6-13-4.4c1.9,5.7,7.5,9.1,13,8.2c5.5,0.9,11.1-2.5,13-8.2
		C55.8,207.5,50.6,209.5,47.6,213.6z"/>
	<g>
		<path class="st1" d="M53.4,213.4c-2.1,0-4,0.6-5.7,1.5c-1.7-1-3.6-1.5-5.7-1.5c-6.3,0-11.5,5.1-11.5,11.5
			c0,14.3,17.2,18.8,17.2,18.8s17.2-4.6,17.2-18.8C64.8,218.6,59.7,213.4,53.4,213.4z"/>
		<path class="st2" d="M47.6,243.7c0,0,17.2-4.6,17.2-18.8c0-6.3-5.1-11.5-11.5-11.5c-6.3,0-11.5,5.1-11.5,11.5c0,3.2,1.3,6,3.4,8.1
			"/>
	</g>
</g>
<g>
	<path class="st0" d="M152.1,213.6c-3-4.1-8.2-6-13-4.4c1.9,5.7,7.5,9.1,13,8.2c5.5,0.9,11.1-2.5,13-8.2
		C160.3,207.5,155,209.5,152.1,213.6z"/>
	<g>
		<path class="st1" d="M157.8,213.4c-2.1,0-4,0.6-5.7,1.5c-1.7-1-3.6-1.5-5.7-1.5c-6.3,0-11.5,5.1-11.5,11.5
			c0,14.3,17.2,18.8,17.2,18.8s17.2-4.6,17.2-18.8C169.2,218.6,164.1,213.4,157.8,213.4z"/>
		<path class="st2" d="M152.1,243.7c0,0,17.2-4.6,17.2-18.8c0-6.3-5.1-11.5-11.5-11.5s-11.5,5.1-11.5,11.5c0,3.2,1.3,6,3.4,8.1"/>
	</g>
</g>
<g>
	<path class="st0" d="M256.5,213.6c-3-4.1-8.2-6-13-4.4c1.9,5.7,7.5,9.1,13,8.2c5.5,0.9,11.1-2.5,13-8.2
		C264.7,207.5,259.5,209.5,256.5,213.6z"/>
	<g>
		<path class="st1" d="M262.2,213.4c-2.1,0-4,0.6-5.7,1.5c-1.7-1-3.6-1.5-5.7-1.5c-6.3,0-11.5,5.1-11.5,11.5
			c0,14.3,17.2,18.8,17.2,18.8s17.2-4.6,17.2-18.8C273.7,218.6,268.6,213.4,262.2,213.4z"/>
		<path class="st2" d="M256.5,243.7c0,0,17.2-4.6,17.2-18.8c0-6.3-5.1-11.5-11.5-11.5c-6.3,0-11.5,5.1-11.5,11.5
			c0,3.2,1.3,6,3.4,8.1"/>
	</g>
</g>
<g>
	<path class="st0" d="M360.9,213.6c-3-4.1-8.2-6-13-4.4c1.9,5.7,7.5,9.1,13,8.2c5.5,0.9,11.1-2.5,13-8.2
		C369.1,207.5,363.9,209.5,360.9,213.6z"/>
	<g>
		<path class="st1" d="M366.7,213.4c-2.1,0-4,0.6-5.7,1.5c-1.7-1-3.6-1.5-5.7-1.5c-6.3,0-11.5,5.1-11.5,11.5
			c0,14.3,17.2,18.8,17.2,18.8s17.2-4.6,17.2-18.8C378.1,218.6,373,213.4,366.7,213.4z"/>
		<path class="st2" d="M360.9,243.7c0,0,17.2-4.6,17.2-18.8c0-6.3-5.1-11.5-11.5-11.5s-11.5,5.1-11.5,11.5c0,3.2,1.3,6,3.4,8.1"/>
	</g>
</g>
<g>
	<path class="st0" d="M47.6,300.1c-3-4.1-8.2-6-13-4.4c1.9,5.7,7.5,9.1,13,8.2c5.5,0.9,11.1-2.5,13-8.2
		C55.8,294,50.6,296,47.6,300.1z"/>
	<g>
		<path class="st1" d="M53.4,299.9c-2.1,0-4,0.6-5.7,1.5c-1.7-1-3.6-1.5-5.7-1.5c-6.3,0-11.5,5.1-11.5,11.5
			c0,14.3,17.2,18.8,17.2,18.8s17.2-4.6,17.2-18.8C64.8,305.1,59.7,299.9,53.4,299.9z"/>
		<path class="st2" d="M47.6,330.2c0,0,17.2-4.6,17.2-18.8c0-6.3-5.1-11.5-11.5-11.5c-6.3,0-11.5,5.1-11.5,11.5c0,3.2,1.3,6,3.4,8.1
			"/>
	</g>
</g>
<g>
	<path class="st0" d="M152.1,300.1c-3-4.1-8.2-6-13-4.4c1.9,5.7,7.5,9.1,13,8.2c5.5,0.9,11.1-2.5,13-8.2
		C160.3,294,155,296,152.1,300.1z"/>
	<g>
		<path class="st1" d="M157.8,299.9c-2.1,0-4,0.6-5.7,1.5c-1.7-1-3.6-1.5-5.7-1.5c-6.3,0-11.5,5.1-11.5,11.5
			c0,14.3,17.2,18.8,17.2,18.8s17.2-4.6,17.2-18.8C169.2,305.1,164.1,299.9,157.8,299.9z"/>
		<path class="st2" d="M152.1,330.2c0,0,17.2-4.6,17.2-18.8c0-6.3-5.1-11.5-11.5-11.5s-11.5,5.1-11.5,11.5c0,3.2,1.3,6,3.4,8.1"/>
	</g>
</g>
<g>
	<path class="st0" d="M256.5,300.1c-3-4.1-8.2-6-13-4.4c1.9,5.7,7.5,9.1,13,8.2c5.5,0.9,11.1-2.5,13-8.2
		C264.7,294,259.5,296,256.5,300.1z"/>
	<g>
		<path class="st1" d="M262.2,299.9c-2.1,0-4,0.6-5.7,1.5c-1.7-1-3.6-1.5-5.7-1.5c-6.3,0-11.5,5.1-11.5,11.5
			c0,14.3,17.2,18.8,17.2,18.8s17.2-4.6,17.2-18.8C273.7,305.1,268.6,299.9,262.2,299.9z"/>
		<path class="st2" d="M256.5,330.2c0,0,17.2-4.6,17.2-18.8c0-6.3-5.1-11.5-11.5-11.5c-6.3,0-11.5,5.1-11.5,11.5
			c0,3.2,1.3,6,3.4,8.1"/>
	</g>
</g>
<g>
	<path class="st0" d="M360.9,300.1c-3-4.1-8.2-6-13-4.4c1.9,5.7,7.5,9.1,13,8.2c5.5,0.9,11.1-2.5,13-8.2
		C369.1,294,363.9,296,360.9,300.1z"/>
	<g>
		<path class="st1" d="M366.7,299.9c-2.1,0-4,0.6-5.7,1.5c-1.7-1-3.6-1.5-5.7-1.5c-6.3,0-11.5,5.1-11.5,11.5
			c0,14.3,17.2,18.8,17.2,18.8s17.2-4.6,17.2-18.8C378.1,305.1,373,299.9,366.7,299.9z"/>
		<path class="st2" d="M360.9,330.2c0,0,17.2-4.6,17.2-18.8c0-6.3-5.1-11.5-11.5-11.5s-11.5,5.1-11.5,11.5c0,3.2,1.3,6,3.4,8.1"/>
	</g>
</g>
<g>
	<path class="st0" d="M47.6,387c-3-4.1-8.2-6-13-4.4c1.9,5.7,7.5,9.1,13,8.2c5.5,0.9,11.1-2.5,13-8.2
		C55.8,380.9,50.6,382.9,47.6,387z"/>
	<g>
		<path class="st1" d="M53.4,386.8c-2.1,0-4,0.6-5.7,1.5c-1.7-1-3.6-1.5-5.7-1.5c-6.3,0-11.5,5.1-11.5,11.5
			c0,14.3,17.2,18.8,17.2,18.8s17.2-4.6,17.2-18.8C64.8,391.9,59.7,386.8,53.4,386.8z"/>
		<path class="st2" d="M47.6,417.1c0,0,17.2-4.6,17.2-18.8c0-6.3-5.1-11.5-11.5-11.5c-6.3,0-11.5,5.1-11.5,11.5c0,3.2,1.3,6,3.4,8.1
			"/>
	</g>
</g>
<g>
	<path class="st0" d="M152.1,387c-3-4.1-8.2-6-13-4.4c1.9,5.7,7.5,9.1,13,8.2c5.5,0.9,11.1-2.5,13-8.2
		C160.3,380.9,155,382.9,152.1,387z"/>
	<g>
		<path class="st1" d="M157.8,386.8c-2.1,0-4,0.6-5.7,1.5c-1.7-1-3.6-1.5-5.7-1.5c-6.3,0-11.5,5.1-11.5,11.5
			c0,14.3,17.2,18.8,17.2,18.8s17.2-4.6,17.2-18.8C169.2,391.9,164.1,386.8,157.8,386.8z"/>
		<path class="st2" d="M152.1,417.1c0,0,17.2-4.6,17.2-18.8c0-6.3-5.1-11.5-11.5-11.5s-11.5,5.1-11.5,11.5c0,3.2,1.3,6,3.4,8.1"/>
	</g>
</g>
<g>
	<path class="st0" d="M256.5,387c-3-4.1-8.2-6-13-4.4c1.9,5.7,7.5,9.1,13,8.2c5.5,0.9,11.1-2.5,13-8.2
		C264.7,380.9,259.5,382.9,256.5,387z"/>
	<g>
		<path class="st1" d="M262.2,386.8c-2.1,0-4,0.6-5.7,1.5c-1.7-1-3.6-1.5-5.7-1.5c-6.3,0-11.5,5.1-11.5,11.5
			c0,14.3,17.2,18.8,17.2,18.8s17.2-4.6,17.2-18.8C273.7,391.9,268.6,386.8,262.2,386.8z"/>
		<path class="st2" d="M256.5,417.1c0,0,17.2-4.6,17.2-18.8c0-6.3-5.1-11.5-11.5-11.5c-6.3,0-11.5,5.1-11.5,11.5
			c0,3.2,1.3,6,3.4,8.1"/>
	</g>
</g>
<g>
	<path class="st0" d="M360.9,387c-3-4.1-8.2-6-13-4.4c1.9,5.7,7.5,9.1,13,8.2c5.5,0.9,11.1-2.5,13-8.2
		C369.1,380.9,363.9,382.9,360.9,387z"/>
	<g>
		<path class="st1" d="M366.7,386.8c-2.1,0-4,0.6-5.7,1.5c-1.7-1-3.6-1.5-5.7-1.5c-6.3,0-11.5,5.1-11.5,11.5
			c0,14.3,17.2,18.8,17.2,18.8s17.2-4.6,17.2-18.8C378.1,391.9,373,386.8,366.7,386.8z"/>
		<path class="st2" d="M360.9,417.1c0,0,17.2-4.6,17.2-18.8c0-6.3-5.1-11.5-11.5-11.5s-11.5,5.1-11.5,11.5c0,3.2,1.3,6,3.4,8.1"/>
	</g>
</g>
<g>
	<path class="st0" d="M47.6,473.5c-3-4.1-8.2-6-13-4.4c1.9,5.7,7.5,9.1,13,8.2c5.5,0.9,11.1-2.5,13-8.2
		C55.8,467.4,50.6,469.4,47.6,473.5z"/>
	<g>
		<path class="st1" d="M53.4,473.3c-2.1,0-4,0.6-5.7,1.5c-1.7-1-3.6-1.5-5.7-1.5c-6.3,0-11.5,5.1-11.5,11.5
			c0,14.3,17.2,18.8,17.2,18.8s17.2-4.6,17.2-18.8C64.8,478.4,59.7,473.3,53.4,473.3z"/>
		<path class="st2" d="M47.6,503.6c0,0,17.2-4.6,17.2-18.8c0-6.3-5.1-11.5-11.5-11.5c-6.3,0-11.5,5.1-11.5,11.5c0,3.2,1.3,6,3.4,8.1
			"/>
	</g>
</g>
<g>
	<path class="st0" d="M152.1,473.5c-3-4.1-8.2-6-13-4.4c1.9,5.7,7.5,9.1,13,8.2c5.5,0.9,11.1-2.5,13-8.2
		C160.3,467.4,155,469.4,152.1,473.5z"/>
	<g>
		<path class="st1" d="M157.8,473.3c-2.1,0-4,0.6-5.7,1.5c-1.7-1-3.6-1.5-5.7-1.5c-6.3,0-11.5,5.1-11.5,11.5
			c0,14.3,17.2,18.8,17.2,18.8s17.2-4.6,17.2-18.8C169.2,478.4,164.1,473.3,157.8,473.3z"/>
		<path class="st2" d="M152.1,503.6c0,0,17.2-4.6,17.2-18.8c0-6.3-5.1-11.5-11.5-11.5s-11.5,5.1-11.5,11.5c0,3.2,1.3,6,3.4,8.1"/>
	</g>
</g>
<g>
	<path class="st0" d="M256.5,473.5c-3-4.1-8.2-6-13-4.4c1.9,5.7,7.5,9.1,13,8.2c5.5,0.9,11.1-2.5,13-8.2
		C264.7,467.4,259.5,469.4,256.5,473.5z"/>
	<g>
		<path class="st1" d="M262.2,473.3c-2.1,0-4,0.6-5.7,1.5c-1.7-1-3.6-1.5-5.7-1.5c-6.3,0-11.5,5.1-11.5,11.5
			c0,14.3,17.2,18.8,17.2,18.8s17.2-4.6,17.2-18.8C273.7,478.4,268.6,473.3,262.2,473.3z"/>
		<path class="st2" d="M256.5,503.6c0,0,17.2-4.6,17.2-18.8c0-6.3-5.1-11.5-11.5-11.5c-6.3,0-11.5,5.1-11.5,11.5
			c0,3.2,1.3,6,3.4,8.1"/>
	</g>
</g>
<g>
	<path class="st0" d="M360.9,473.5c-3-4.1-8.2-6-13-4.4c1.9,5.7,7.5,9.1,13,8.2c5.5,0.9,11.1-2.5,13-8.2
		C369.1,467.4,363.9,469.4,360.9,473.5z"/>
	<g>
		<path class="st1" d="M366.7,473.3c-2.1,0-4,0.6-5.7,1.5c-1.7-1-3.6-1.5-5.7-1.5c-6.3,0-11.5,5.1-11.5,11.5
			c0,14.3,17.2,18.8,17.2,18.8s17.2-4.6,17.2-18.8C378.1,478.4,373,473.3,366.7,473.3z"/>
		<path class="st2" d="M360.9,503.6c0,0,17.2-4.6,17.2-18.8c0-6.3-5.1-11.5-11.5-11.5s-11.5,5.1-11.5,11.5c0,3.2,1.3,6,3.4,8.1"/>
	</g>
</g>
<g>
	<path class="st0" d="M47.6,560.2c-3-4.1-8.2-6-13-4.4c1.9,5.7,7.5,9.1,13,8.2c5.5,0.9,11.1-2.5,13-8.2
		C55.8,554.2,50.6,556.1,47.6,560.2z"/>
	<g>
		<path class="st1" d="M53.4,560.1c-2.1,0-4,0.6-5.7,1.5c-1.7-1-3.6-1.5-5.7-1.5c-6.3,0-11.5,5.1-11.5,11.5
			c0,14.3,17.2,18.8,17.2,18.8s17.2-4.6,17.2-18.8C64.8,565.2,59.7,560.1,53.4,560.1z"/>
		<path class="st2" d="M47.6,590.3c0,0,17.2-4.6,17.2-18.8c0-6.3-5.1-11.5-11.5-11.5c-6.3,0-11.5,5.1-11.5,11.5c0,3.2,1.3,6,3.4,8.1
			"/>
	</g>
</g>
<g>
	<path class="st0" d="M152.1,560.2c-3-4.1-8.2-6-13-4.4c1.9,5.7,7.5,9.1,13,8.2c5.5,0.9,11.1-2.5,13-8.2
		C160.3,554.2,155,556.1,152.1,560.2z"/>
	<g>
		<path class="st1" d="M157.8,560.1c-2.1,0-4,0.6-5.7,1.5c-1.7-1-3.6-1.5-5.7-1.5c-6.3,0-11.5,5.1-11.5,11.5
			c0,14.3,17.2,18.8,17.2,18.8s17.2-4.6,17.2-18.8C169.2,565.2,164.1,560.1,157.8,560.1z"/>
		<path class="st2" d="M152.1,590.3c0,0,17.2-4.6,17.2-18.8c0-6.3-5.1-11.5-11.5-11.5s-11.5,5.1-11.5,11.5c0,3.2,1.3,6,3.4,8.1"/>
	</g>
</g>
<g>
	<path class="st0" d="M256.5,560.2c-3-4.1-8.2-6-13-4.4c1.9,5.7,7.5,9.1,13,8.2c5.5,0.9,11.1-2.5,13-8.2
		C264.7,554.2,259.5,556.1,256.5,560.2z"/>
	<g>
		<path class="st1" d="M262.2,560.1c-2.1,0-4,0.6-5.7,1.5c-1.7-1-3.6-1.5-5.7-1.5c-6.3,0-11.5,5.1-11.5,11.5
			c0,14.3,17.2,18.8,17.2,18.8s17.2-4.6,17.2-18.8C273.7,565.2,268.6,560.1,262.2,560.1z"/>
		<path class="st2" d="M256.5,590.3c0,0,17.2-4.6,17.2-18.8c0-6.3-5.1-11.5-11.5-11.5c-6.3,0-11.5,5.1-11.5,11.5
			c0,3.2,1.3,6,3.4,8.1"/>
	</g>
</g>
<g>
	<path class="st0" d="M360.9,560.2c-3-4.1-8.2-6-13-4.4c1.9,5.7,7.5,9.1,13,8.2c5.5,0.9,11.1-2.5,13-8.2
		C369.1,554.2,363.9,556.1,360.9,560.2z"/>
	<g>
		<path class="st1" d="M366.7,560.1c-2.1,0-4,0.6-5.7,1.5c-1.7-1-3.6-1.5-5.7-1.5c-6.3,0-11.5,5.1-11.5,11.5
			c0,14.3,17.2,18.8,17.2,18.8s17.2-4.6,17.2-18.8C378.1,565.2,373,560.1,366.7,560.1z"/>
		<path class="st2" d="M360.9,590.3c0,0,17.2-4.6,17.2-18.8c0-6.3-5.1-11.5-11.5-11.5s-11.5,5.1-11.5,11.5c0,3.2,1.3,6,3.4,8.1"/>
	</g>
</g>
<g>
	<path class="st0" d="M47.6,646.7c-3-4.1-8.2-6-13-4.4c1.9,5.7,7.5,9.1,13,8.2c5.5,0.9,11.1-2.5,13-8.2
		C55.8,640.7,50.6,642.6,47.6,646.7z"/>
	<g>
		<path class="st1" d="M53.4,646.6c-2.1,0-4,0.6-5.7,1.5c-1.7-1-3.6-1.5-5.7-1.5c-6.3,0-11.5,5.1-11.5,11.5
			c0,14.3,17.2,18.8,17.2,18.8s17.2-4.6,17.2-18.8C64.8,651.7,59.7,646.6,53.4,646.6z"/>
		<path class="st2" d="M47.6,676.8c0,0,17.2-4.6,17.2-18.8c0-6.3-5.1-11.5-11.5-11.5c-6.3,0-11.5,5.1-11.5,11.5c0,3.2,1.3,6,3.4,8.1
			"/>
	</g>
</g>
<g>
	<path class="st0" d="M152.1,646.7c-3-4.1-8.2-6-13-4.4c1.9,5.7,7.5,9.1,13,8.2c5.5,0.9,11.1-2.5,13-8.2
		C160.3,640.7,155,642.6,152.1,646.7z"/>
	<g>
		<path class="st1" d="M157.8,646.6c-2.1,0-4,0.6-5.7,1.5c-1.7-1-3.6-1.5-5.7-1.5c-6.3,0-11.5,5.1-11.5,11.5
			c0,14.3,17.2,18.8,17.2,18.8s17.2-4.6,17.2-18.8C169.2,651.7,164.1,646.6,157.8,646.6z"/>
		<path class="st2" d="M152.1,676.8c0,0,17.2-4.6,17.2-18.8c0-6.3-5.1-11.5-11.5-11.5s-11.5,5.1-11.5,11.5c0,3.2,1.3,6,3.4,8.1"/>
	</g>
</g>
<g>
	<path class="st0" d="M256.5,646.7c-3-4.1-8.2-6-13-4.4c1.9,5.7,7.5,9.1,13,8.2c5.5,0.9,11.1-2.5,13-8.2
		C264.7,640.7,259.5,642.6,256.5,646.7z"/>
	<g>
		<path class="st1" d="M262.2,646.6c-2.1,0-4,0.6-5.7,1.5c-1.7-1-3.6-1.5-5.7-1.5c-6.3,0-11.5,5.1-11.5,11.5
			c0,14.3,17.2,18.8,17.2,18.8s17.2-4.6,17.2-18.8C273.7,651.7,268.6,646.6,262.2,646.6z"/>
		<path class="st2" d="M256.5,676.8c0,0,17.2-4.6,17.2-18.8c0-6.3-5.1-11.5-11.5-11.5c-6.3,0-11.5,5.1-11.5,11.5
			c0,3.2,1.3,6,3.4,8.1"/>
	</g>
</g>
<g>
	<path class="st0" d="M360.9,646.7c-3-4.1-8.2-6-13-4.4c1.9,5.7,7.5,9.1,13,8.2c5.5,0.9,11.1-2.5,13-8.2
		C369.1,640.7,363.9,642.6,360.9,646.7z"/>
	<g>
		<path class="st1" d="M366.7,646.6c-2.1,0-4,0.6-5.7,1.5c-1.7-1-3.6-1.5-5.7-1.5c-6.3,0-11.5,5.1-11.5,11.5
			c0,14.3,17.2,18.8,17.2,18.8s17.2-4.6,17.2-18.8C378.1,651.7,373,646.6,366.7,646.6z"/>
		<path class="st2" d="M360.9,676.8c0,0,17.2-4.6,17.2-18.8c0-6.3-5.1-11.5-11.5-11.5s-11.5,5.1-11.5,11.5c0,3.2,1.3,6,3.4,8.1"/>
	</g>
</g>
<g>
	<path class="st0" d="M47.6,732.8c-3-4.1-8.2-6-13-4.4c1.9,5.7,7.5,9.1,13,8.2c5.5,0.9,11.1-2.5,13-8.2
		C55.8,726.8,50.6,728.7,47.6,732.8z"/>
	<g>
		<path class="st1" d="M53.4,732.6c-2.1,0-4,0.6-5.7,1.5c-1.7-1-3.6-1.5-5.7-1.5c-6.3,0-11.5,5.1-11.5,11.5
			c0,14.3,17.2,18.8,17.2,18.8s17.2-4.6,17.2-18.8C64.8,737.8,59.7,732.6,53.4,732.6z"/>
		<path class="st2" d="M47.6,762.9c0,0,17.2-4.6,17.2-18.8c0-6.3-5.1-11.5-11.5-11.5c-6.3,0-11.5,5.1-11.5,11.5c0,3.2,1.3,6,3.4,8.1
			"/>
	</g>
</g>
<g>
	<path class="st0" d="M152.1,732.8c-3-4.1-8.2-6-13-4.4c1.9,5.7,7.5,9.1,13,8.2c5.5,0.9,11.1-2.5,13-8.2
		C160.3,726.8,155,728.7,152.1,732.8z"/>
	<g>
		<path class="st1" d="M157.8,732.6c-2.1,0-4,0.6-5.7,1.5c-1.7-1-3.6-1.5-5.7-1.5c-6.3,0-11.5,5.1-11.5,11.5
			c0,14.3,17.2,18.8,17.2,18.8s17.2-4.6,17.2-18.8C169.2,737.8,164.1,732.6,157.8,732.6z"/>
		<path class="st2" d="M152.1,762.9c0,0,17.2-4.6,17.2-18.8c0-6.3-5.1-11.5-11.5-11.5s-11.5,5.1-11.5,11.5c0,3.2,1.3,6,3.4,8.1"/>
	</g>
</g>
<g>
	<path class="st0" d="M256.5,732.8c-3-4.1-8.2-6-13-4.4c1.9,5.7,7.5,9.1,13,8.2c5.5,0.9,11.1-2.5,13-8.2
		C264.7,726.8,259.5,728.7,256.5,732.8z"/>
	<g>
		<path class="st1" d="M262.2,732.6c-2.1,0-4,0.6-5.7,1.5c-1.7-1-3.6-1.5-5.7-1.5c-6.3,0-11.5,5.1-11.5,11.5
			c0,14.3,17.2,18.8,17.2,18.8s17.2-4.6,17.2-18.8C273.7,737.8,268.6,732.6,262.2,732.6z"/>
		<path class="st2" d="M256.5,762.9c0,0,17.2-4.6,17.2-18.8c0-6.3-5.1-11.5-11.5-11.5c-6.3,0-11.5,5.1-11.5,11.5
			c0,3.2,1.3,6,3.4,8.1"/>
	</g>
</g>
<g>
	<path class="st0" d="M360.9,732.8c-3-4.1-8.2-6-13-4.4c1.9,5.7,7.5,9.1,13,8.2c5.5,0.9,11.1-2.5,13-8.2
		C369.1,726.8,363.9,728.7,360.9,732.8z"/>
	<g>
		<path class="st1" d="M366.7,732.6c-2.1,0-4,0.6-5.7,1.5c-1.7-1-3.6-1.5-5.7-1.5c-6.3,0-11.5,5.1-11.5,11.5
			c0,14.3,17.2,18.8,17.2,18.8s17.2-4.6,17.2-18.8C378.1,737.8,373,732.6,366.7,732.6z"/>
		<path class="st2" d="M360.9,762.9c0,0,17.2-4.6,17.2-18.8c0-6.3-5.1-11.5-11.5-11.5s-11.5,5.1-11.5,11.5c0,3.2,1.3,6,3.4,8.1"/>
	</g>
</g>
<g>
	<path class="st0" d="M47.6,819.3c-3-4.1-8.2-6-13-4.4c1.9,5.7,7.5,9.1,13,8.2c5.5,0.9,11.1-2.5,13-8.2
		C55.8,813.2,50.6,815.2,47.6,819.3z"/>
	<g>
		<path class="st1" d="M53.4,819.1c-2.1,0-4,0.6-5.7,1.5c-1.7-1-3.6-1.5-5.7-1.5c-6.3,0-11.5,5.1-11.5,11.5
			c0,14.3,17.2,18.8,17.2,18.8s17.2-4.6,17.2-18.8C64.8,824.3,59.7,819.1,53.4,819.1z"/>
		<path class="st2" d="M47.6,849.4c0,0,17.2-4.6,17.2-18.8c0-6.3-5.1-11.5-11.5-11.5c-6.3,0-11.5,5.1-11.5,11.5c0,3.2,1.3,6,3.4,8.1
			"/>
	</g>
</g>
<g>
	<path class="st0" d="M152.1,819.3c-3-4.1-8.2-6-13-4.4c1.9,5.7,7.5,9.1,13,8.2c5.5,0.9,11.1-2.5,13-8.2
		C160.3,813.2,155,815.2,152.1,819.3z"/>
	<g>
		<path class="st1" d="M157.8,819.1c-2.1,0-4,0.6-5.7,1.5c-1.7-1-3.6-1.5-5.7-1.5c-6.3,0-11.5,5.1-11.5,11.5
			c0,14.3,17.2,18.8,17.2,18.8s17.2-4.6,17.2-18.8C169.2,824.3,164.1,819.1,157.8,819.1z"/>
		<path class="st2" d="M152.1,849.4c0,0,17.2-4.6,17.2-18.8c0-6.3-5.1-11.5-11.5-11.5s-11.5,5.1-11.5,11.5c0,3.2,1.3,6,3.4,8.1"/>
	</g>
</g>
<g>
	<path class="st0" d="M256.5,819.3c-3-4.1-8.2-6-13-4.4c1.9,5.7,7.5,9.1,13,8.2c5.5,0.9,11.1-2.5,13-8.2
		C264.7,813.2,259.5,815.2,256.5,819.3z"/>
	<g>
		<path class="st1" d="M262.2,819.1c-2.1,0-4,0.6-5.7,1.5c-1.7-1-3.6-1.5-5.7-1.5c-6.3,0-11.5,5.1-11.5,11.5
			c0,14.3,17.2,18.8,17.2,18.8s17.2-4.6,17.2-18.8C273.7,824.3,268.6,819.1,262.2,819.1z"/>
		<path class="st2" d="M256.5,849.4c0,0,17.2-4.6,17.2-18.8c0-6.3-5.1-11.5-11.5-11.5c-6.3,0-11.5,5.1-11.5,11.5
			c0,3.2,1.3,6,3.4,8.1"/>
	</g>
</g>
<g>
	<path class="st0" d="M360.9,819.3c-3-4.1-8.2-6-13-4.4c1.9,5.7,7.5,9.1,13,8.2c5.5,0.9,11.1-2.5,13-8.2
		C369.1,813.2,363.9,815.2,360.9,819.3z"/>
	<g>
		<path class="st1" d="M366.7,819.1c-2.1,0-4,0.6-5.7,1.5c-1.7-1-3.6-1.5-5.7-1.5c-6.3,0-11.5,5.1-11.5,11.5
			c0,14.3,17.2,18.8,17.2,18.8s17.2-4.6,17.2-18.8C378.1,824.3,373,819.1,366.7,819.1z"/>
		<path class="st2" d="M360.9,849.4c0,0,17.2-4.6,17.2-18.8c0-6.3-5.1-11.5-11.5-11.5s-11.5,5.1-11.5,11.5c0,3.2,1.3,6,3.4,8.1"/>
	</g>
</g>
</svg>
