<?xml version="1.0" encoding="UTF-8"?><svg id="Layer_1" xmlns="http://www.w3.org/2000/svg" viewBox="0 0 400 400"><defs><style>.cls-1{stroke:#459b0e;}.cls-1,.cls-2{fill:none;stroke-linecap:round;stroke-linejoin:round;stroke-width:6px;}.cls-3{fill:#f73c95;}.cls-4{fill:#ff99c5;}.cls-5{fill:#59c618;}.cls-2{stroke:#f73c95;}</style></defs><rect class="cls-5" x="187.74" y="186.35" width="24.51" height="166.12" rx="12.26" ry="12.26"/><path class="cls-5" d="M200,321.47c0-76.78,62.24-139.03,139.03-139.03,0,76.78-62.24,139.03-139.03,139.03Z"/><path class="cls-3" d="M200,221.81c-48.13-48.13-48.13-126.16,0-174.28,48.13,48.13,48.13,126.16,0,174.28Z"/><path class="cls-4" d="M200,155.24c0-46.55-34.14-85.13-78.74-92.07-9.14,31.17-14.44,61.29-14.44,79.62,0,51.46,41.72,93.18,93.18,93.18s93.18-41.72,93.18-93.18c0-18.33-5.3-48.45-14.44-79.62-44.6,6.94-78.74,45.52-78.74,92.07Z"/><path class="cls-2" d="M278.74,63.18c-44.6,6.94-78.74,45.52-78.74,92.07,0-46.55-34.14-85.13-78.74-92.07-9.14,31.17-14.44,61.29-14.44,79.62,0,51.46,41.72,93.18,93.18,93.18"/><path class="cls-5" d="M200,321.47c0-76.78-62.24-139.03-139.03-139.03,0,76.78,62.24,139.03,139.03,139.03Z"/><path class="cls-1" d="M103.56,189.09c-13.42-4.31-27.73-6.64-42.59-6.64,0,76.78,62.24,139.03,139.03,139.03"/></svg>