<?xml version="1.0" encoding="UTF-8"?>
<svg xmlns="http://www.w3.org/2000/svg" xmlns:xlink="http://www.w3.org/1999/xlink" width="320pt" height="320pt" viewBox="0 0 320 320" version="1.1">
<g id="surface1">
<path style=" stroke:none;fill-rule:nonzero;fill:rgb(75%,75%,75%);fill-opacity:1;" d="M 290.558594 160 C 290.558594 216.515625 232.105469 262.328125 160 262.328125 C 87.894531 262.328125 29.441406 216.515625 29.441406 160 C 29.441406 103.484375 87.894531 57.671875 160 57.671875 C 232.105469 57.671875 290.558594 103.484375 290.558594 160 Z M 290.558594 160 "/>
<path style=" stroke:none;fill-rule:nonzero;fill:rgb(13%,13%,13%);fill-opacity:1;" d="M 123.0625 160 C 123.0625 187.355469 109.160156 209.527344 92.007812 209.527344 C 74.855469 209.527344 60.953125 187.355469 60.953125 160 C 60.953125 132.644531 74.855469 110.472656 92.007812 110.472656 C 109.160156 110.472656 123.0625 132.644531 123.0625 160 Z M 123.0625 160 "/>
<path style=" stroke:none;fill-rule:nonzero;fill:rgb(13%,13%,13%);fill-opacity:1;" d="M 259.046875 160 C 259.046875 187.355469 245.144531 209.527344 227.992188 209.527344 C 210.839844 209.527344 196.9375 187.355469 196.9375 160 C 196.9375 132.644531 210.839844 110.472656 227.992188 110.472656 C 245.144531 110.472656 259.046875 132.644531 259.046875 160 Z M 259.046875 160 "/>
<path style="fill:none;stroke-width:4.8;stroke-linecap:round;stroke-linejoin:miter;stroke:rgb(58%,58%,58%);stroke-opacity:1;stroke-miterlimit:10;" d="M 290.558594 160 C 290.558594 216.511719 253.425781 262.328125 160 262.328125 C 66.574219 262.328125 29.441406 216.511719 29.441406 160 C 29.441406 103.488281 66.574219 57.671875 160 57.671875 "/>
</g>
</svg>
