<?xml version="1.0" encoding="UTF-8"?>
<svg xmlns="http://www.w3.org/2000/svg" xmlns:xlink="http://www.w3.org/1999/xlink" width="320pt" height="320pt" viewBox="0 0 320 320" version="1.1">
<g id="surface1">
<path style=" stroke:none;fill-rule:nonzero;fill:rgb(57%,57%,57%);fill-opacity:1;" d="M 160 76.199219 C 140.183594 48.816406 105.433594 35.921875 73.199219 46.761719 C 86.054688 84.976562 123.304688 107.695312 160 101.726562 C 196.695312 107.695312 233.945312 84.976562 246.800781 46.761719 C 214.566406 35.921875 179.808594 48.816406 160 76.199219 Z M 160 76.199219 "/>
<path style=" stroke:none;fill-rule:nonzero;fill:rgb(75%,75%,75%);fill-opacity:1;" d="M 198.175781 75.191406 C 184.273438 75.191406 171.230469 78.910156 160 85.40625 C 148.769531 78.910156 135.726562 75.191406 121.824219 75.191406 C 79.65625 75.191406 45.472656 109.375 45.472656 151.542969 C 45.472656 246.6875 160 277.070312 160 277.070312 C 160 277.070312 274.527344 246.679688 274.527344 151.542969 C 274.527344 109.375 240.34375 75.191406 198.175781 75.191406 Z M 198.175781 75.191406 "/>
<path style="fill:none;stroke-width:4.8;stroke-linecap:round;stroke-linejoin:miter;stroke:rgb(58%,58%,58%);stroke-opacity:1;stroke-miterlimit:10;" d="M 160 277.070312 C 160 277.070312 274.527344 246.679688 274.527344 151.542969 C 274.527344 109.375 240.34375 75.191406 198.175781 75.191406 C 156.007812 75.191406 121.824219 109.375 121.824219 151.542969 C 121.824219 172.632812 130.367188 191.71875 144.183594 205.535156 "/>
</g>
</svg>
