<?xml version="1.0" encoding="UTF-8"?>
<svg xmlns="http://www.w3.org/2000/svg" xmlns:xlink="http://www.w3.org/1999/xlink" width="320pt" height="320pt" viewBox="0 0 320 320" version="1.1">
<g id="surface1">
<path style=" stroke:none;fill-rule:nonzero;fill:rgb(63%,63%,63%);fill-opacity:1;" d="M 155.824219 206.878906 C 164.496094 240.847656 143.992188 275.40625 110.023438 284.078125 C 76.054688 292.753906 41.496094 272.246094 32.824219 238.28125 C 19.496094 186.078125 61.832031 95.296875 61.832031 95.296875 C 61.832031 95.296875 142.496094 154.6875 155.824219 206.886719 Z M 155.824219 206.878906 "/>
<path style="fill:none;stroke-width:4.8;stroke-linecap:round;stroke-linejoin:miter;stroke:rgb(46%,46%,46%);stroke-opacity:1;stroke-miterlimit:10;" d="M 155.824219 206.878906 C 164.496094 240.847656 143.992188 275.40625 110.023438 284.078125 C 76.054688 292.753906 41.496094 272.246094 32.824219 238.28125 C 19.496094 186.078125 61.832031 95.296875 61.832031 95.296875 "/>
<path style="fill:none;stroke-width:4.8;stroke-linecap:round;stroke-linejoin:miter;stroke:rgb(46%,46%,46%);stroke-opacity:1;stroke-miterlimit:10;" d="M 155.824219 206.878906 C 164.496094 240.847656 143.992188 275.40625 110.023438 284.078125 C 76.054688 292.753906 41.496094 272.246094 32.824219 238.28125 C 19.496094 186.078125 61.832031 95.296875 61.832031 95.296875 "/>
<path style=" stroke:none;fill-rule:nonzero;fill:rgb(90%,90%,90%);fill-opacity:1;" d="M 128.527344 185.710938 C 134.304688 208.328125 120.648438 231.335938 98.039062 237.105469 C 75.425781 242.878906 52.414062 229.222656 46.648438 206.617188 C 37.777344 171.863281 65.960938 111.414062 65.960938 111.414062 C 65.960938 111.414062 119.664062 150.960938 128.535156 185.710938 Z M 128.527344 185.710938 "/>
<path style=" stroke:none;fill-rule:nonzero;fill:rgb(63%,63%,63%);fill-opacity:1;" d="M 278.664062 226.039062 C 289.953125 244.761719 283.921875 269.089844 265.199219 280.367188 C 246.480469 291.65625 222.152344 285.625 210.871094 266.902344 C 193.527344 238.136719 202.472656 176.3125 202.472656 176.3125 C 202.472656 176.3125 261.320312 197.265625 278.664062 226.039062 Z M 278.664062 226.039062 "/>
<path style="fill:none;stroke-width:4.8;stroke-linecap:round;stroke-linejoin:miter;stroke:rgb(46%,46%,46%);stroke-opacity:1;stroke-miterlimit:10;" d="M 278.664062 226.039062 C 289.953125 244.761719 283.921875 269.089844 265.199219 280.367188 C 246.480469 291.65625 222.152344 285.625 210.871094 266.902344 C 193.527344 238.136719 202.472656 176.3125 202.472656 176.3125 "/>
<path style="fill:none;stroke-width:4.8;stroke-linecap:round;stroke-linejoin:miter;stroke:rgb(46%,46%,46%);stroke-opacity:1;stroke-miterlimit:10;" d="M 278.664062 226.039062 C 289.953125 244.761719 283.921875 269.089844 265.199219 280.367188 C 246.480469 291.65625 222.152344 285.625 210.871094 266.902344 C 193.527344 238.136719 202.472656 176.3125 202.472656 176.3125 "/>
<path style=" stroke:none;fill-rule:nonzero;fill:rgb(90%,90%,90%);fill-opacity:1;" d="M 258.558594 218.3125 C 266.070312 230.777344 262.0625 246.96875 249.601562 254.488281 C 237.136719 262.007812 220.945312 257.992188 213.425781 245.527344 C 201.878906 226.375 207.832031 185.214844 207.832031 185.214844 C 207.832031 185.214844 247.007812 199.167969 258.558594 218.320312 Z M 258.558594 218.3125 "/>
<path style=" stroke:none;fill-rule:nonzero;fill:rgb(63%,63%,63%);fill-opacity:1;" d="M 243.710938 35.265625 C 274.601562 41.3125 294.742188 71.257812 288.6875 102.152344 C 282.640625 133.039062 252.695312 153.183594 221.800781 147.128906 C 174.328125 137.832031 116.984375 68.519531 116.984375 68.519531 C 116.984375 68.519531 196.230469 25.960938 243.710938 35.257812 Z M 243.710938 35.265625 "/>
<path style="fill:none;stroke-width:4.8;stroke-linecap:round;stroke-linejoin:miter;stroke:rgb(46%,46%,46%);stroke-opacity:1;stroke-miterlimit:10;" d="M 243.710938 35.265625 C 274.601562 41.3125 294.742188 71.257812 288.6875 102.152344 C 282.640625 133.039062 252.695312 153.183594 221.800781 147.128906 C 174.328125 137.832031 116.984375 68.519531 116.984375 68.519531 "/>
<path style="fill:none;stroke-width:4.8;stroke-linecap:round;stroke-linejoin:miter;stroke:rgb(46%,46%,46%);stroke-opacity:1;stroke-miterlimit:10;" d="M 243.710938 35.265625 C 274.601562 41.3125 294.742188 71.257812 288.6875 102.152344 C 282.640625 133.039062 252.695312 153.183594 221.800781 147.128906 C 174.328125 137.832031 116.984375 68.519531 116.984375 68.519531 "/>
<path style=" stroke:none;fill-rule:nonzero;fill:rgb(90%,90%,90%);fill-opacity:1;" d="M 216.03125 49.257812 C 236.601562 53.28125 250.007812 73.222656 245.976562 93.785156 C 241.945312 114.34375 222.007812 127.761719 201.449219 123.726562 C 169.839844 117.535156 131.664062 71.390625 131.664062 71.390625 C 131.664062 71.390625 184.425781 43.054688 216.03125 49.246094 Z M 216.03125 49.257812 "/>
</g>
</svg>
