<?xml version="1.0" encoding="UTF-8"?><svg id="Layer_1" xmlns="http://www.w3.org/2000/svg" viewBox="0 0 400 400"><defs><style>.cls-1{fill:none;stroke:#ea773d;stroke-linecap:round;stroke-miterlimit:10;stroke-width:6px;}.cls-2{fill:#ffaa7b;}.cls-3{fill:#59c618;}</style></defs><path class="cls-3" d="M200,95.25c-24.77-34.23-68.21-50.35-108.5-36.8,16.07,47.77,62.63,76.17,108.5,68.71,45.87,7.46,92.43-20.94,108.5-68.71-40.29-13.55-83.74,2.57-108.5,36.8Z"/><g><path class="cls-2" d="M247.72,93.99c-17.38,0-33.68,4.65-47.72,12.77-14.04-8.12-30.34-12.77-47.72-12.77-52.71,0-95.44,42.73-95.44,95.44,0,118.93,143.16,156.91,143.16,156.91,0,0,143.16-37.99,143.16-156.91,0-52.71-42.73-95.44-95.44-95.44Z"/><path class="cls-1" d="M200,346.34s143.16-37.99,143.16-156.91c0-52.71-42.73-95.44-95.44-95.44-52.71,0-95.44,42.73-95.44,95.44,0,26.36,10.68,50.22,27.95,67.49"/></g></svg>