<?xml version="1.0" encoding="UTF-8"?>
<svg xmlns="http://www.w3.org/2000/svg" xmlns:xlink="http://www.w3.org/1999/xlink" width="320pt" height="320pt" viewBox="0 0 320 320" version="1.1">
<g id="surface1">
<path style=" stroke:none;fill-rule:nonzero;fill:rgb(57%,57%,57%);fill-opacity:1;" d="M 159.996094 149.078125 C 165.425781 149.078125 169.800781 153.453125 169.800781 158.886719 L 169.800781 272.167969 C 169.800781 277.601562 165.425781 281.976562 159.996094 281.976562 C 154.566406 281.976562 150.191406 277.601562 150.191406 272.167969 L 150.191406 158.886719 C 150.191406 153.453125 154.566406 149.078125 159.996094 149.078125 Z M 159.996094 149.078125 "/>
<path style=" stroke:none;fill-rule:nonzero;fill:rgb(57%,57%,57%);fill-opacity:1;" d="M 160 257.175781 C 160 195.753906 209.792969 145.953125 271.222656 145.953125 C 271.222656 207.375 221.433594 257.175781 160 257.175781 Z M 160 257.175781 "/>
<path style=" stroke:none;fill-rule:nonzero;fill:rgb(49%,49%,49%);fill-opacity:1;" d="M 160 177.449219 C 121.496094 138.945312 121.496094 76.519531 160 38.023438 C 198.503906 76.527344 198.503906 138.953125 160 177.449219 Z M 160 177.449219 "/>
<path style=" stroke:none;fill-rule:nonzero;fill:rgb(74%,74%,74%);fill-opacity:1;" d="M 160 124.191406 C 160 86.953125 132.6875 56.089844 97.007812 50.535156 C 89.695312 75.472656 85.457031 99.566406 85.457031 114.230469 C 85.457031 155.398438 118.832031 188.777344 160 188.777344 C 201.167969 188.777344 234.542969 155.398438 234.542969 114.230469 C 234.542969 99.566406 230.304688 75.472656 222.992188 50.535156 C 187.3125 56.089844 160 86.953125 160 124.191406 Z M 160 124.191406 "/>
<path style="fill:none;stroke-width:4.8;stroke-linecap:round;stroke-linejoin:round;stroke:rgb(49%,49%,49%);stroke-opacity:1;stroke-miterlimit:4;" d="M 222.992188 50.542969 C 187.3125 56.097656 160 86.960938 160 124.199219 C 160 86.960938 132.6875 56.097656 97.007812 50.542969 C 89.695312 75.480469 85.457031 99.574219 85.457031 114.238281 C 85.457031 155.40625 118.832031 188.785156 160 188.785156 "/>
<path style=" stroke:none;fill-rule:nonzero;fill:rgb(57%,57%,57%);fill-opacity:1;" d="M 160 257.175781 C 160 195.753906 110.207031 145.953125 48.777344 145.953125 C 48.777344 207.375 98.566406 257.175781 160 257.175781 Z M 160 257.175781 "/>
<path style="fill:none;stroke-width:4.8;stroke-linecap:round;stroke-linejoin:round;stroke:rgb(44%,44%,44%);stroke-opacity:1;stroke-miterlimit:4;" d="M 82.847656 151.273438 C 72.113281 147.824219 60.664062 145.960938 48.777344 145.960938 C 48.777344 207.382812 98.566406 257.183594 160 257.183594 "/>
</g>
</svg>
