<?xml version="1.0" encoding="UTF-8"?>
<svg xmlns="http://www.w3.org/2000/svg" xmlns:xlink="http://www.w3.org/1999/xlink" width="320pt" height="320pt" viewBox="0 0 320 320" version="1.1">
<g id="surface1">
<path style=" stroke:none;fill-rule:nonzero;fill:rgb(79%,79%,79%);fill-opacity:1;" d="M 126.457031 92.375 L 157.199219 96.992188 C 164.230469 98.046875 170.734375 101.328125 175.761719 106.351562 L 197.777344 128.367188 C 205.527344 136.121094 205.527344 148.6875 197.777344 156.441406 C 190.023438 164.191406 177.457031 164.191406 169.703125 156.441406 L 149.191406 135.929688 L 100.878906 128.679688 L 68.992188 122.6875 L 91.839844 102.566406 C 101.304688 94.230469 113.976562 90.503906 126.449219 92.375 Z M 126.457031 92.375 "/>
<path style="fill:none;stroke-width:4.8;stroke-linecap:round;stroke-linejoin:miter;stroke:rgb(58%,58%,58%);stroke-opacity:1;stroke-miterlimit:10;" d="M 197.785156 156.441406 L 197.785156 156.441406 C 190.03125 164.191406 177.464844 164.191406 169.710938 156.441406 L 149.199219 135.929688 L 100.886719 128.679688 "/>
<path style="fill:none;stroke-width:4.8;stroke-linecap:round;stroke-linejoin:miter;stroke:rgb(58%,58%,58%);stroke-opacity:1;stroke-miterlimit:10;" d="M 175.769531 106.359375 L 197.785156 128.375 C 205.535156 136.128906 205.535156 148.695312 197.785156 156.449219 "/>
<path style=" stroke:none;fill-rule:nonzero;fill:rgb(79%,79%,79%);fill-opacity:1;" d="M 37.878906 71.144531 L 4.6875 162.335938 L 43.574219 176.488281 C 51.046875 179.207031 57.351562 184.40625 61.449219 191.214844 C 65.542969 198.03125 71.847656 203.230469 79.320312 205.945312 L 158.214844 234.664062 L 196.695312 128.945312 Z M 37.878906 71.144531 "/>
<path style=" stroke:none;fill-rule:nonzero;fill:rgb(79%,79%,79%);fill-opacity:1;" d="M 282.121094 71.144531 L 315.3125 162.335938 L 276.425781 176.488281 C 268.953125 179.207031 262.648438 184.40625 258.550781 191.214844 C 254.457031 198.03125 248.152344 203.230469 240.679688 205.945312 L 161.785156 234.664062 L 123.304688 128.945312 L 282.128906 71.136719 Z M 282.121094 71.144531 "/>
<path style=" stroke:none;fill-rule:nonzero;fill:rgb(79%,79%,79%);fill-opacity:1;" d="M 248.292969 210.960938 L 248.285156 210.964844 C 242.636719 216.617188 233.539062 216.617188 227.886719 210.964844 L 168.738281 151.816406 C 163.089844 146.167969 163.089844 137.070312 168.738281 131.417969 L 168.746094 131.414062 C 174.394531 125.761719 183.492188 125.761719 189.144531 131.414062 L 248.292969 190.5625 C 253.941406 196.210938 253.941406 205.308594 248.292969 210.960938 Z M 248.292969 210.960938 "/>
<path style="fill:none;stroke-width:4.8;stroke-linecap:round;stroke-linejoin:miter;stroke:rgb(58%,58%,58%);stroke-opacity:1;stroke-miterlimit:10;" d="M 227.886719 210.96875 C 233.519531 216.601562 242.65625 216.601562 248.289062 210.96875 "/>
<path style="fill:none;stroke-width:4.8;stroke-linecap:round;stroke-linejoin:miter;stroke:rgb(58%,58%,58%);stroke-opacity:1;stroke-miterlimit:10;" d="M 248.296875 210.96875 C 253.929688 205.335938 253.929688 196.199219 248.296875 190.566406 L 189.152344 131.425781 "/>
<path style=" stroke:none;fill-rule:nonzero;fill:rgb(79%,79%,79%);fill-opacity:1;" d="M 219.476562 222.445312 L 219.472656 222.449219 C 213.820312 228.101562 204.722656 228.101562 199.070312 222.449219 L 139.925781 163.300781 C 134.273438 157.652344 134.273438 148.554688 139.925781 142.902344 L 139.929688 142.898438 C 145.582031 137.246094 154.679688 137.246094 160.328125 142.898438 L 219.476562 202.046875 C 225.125 207.695312 225.125 216.792969 219.476562 222.445312 Z M 219.476562 222.445312 "/>
<path style="fill:none;stroke-width:4.8;stroke-linecap:round;stroke-linejoin:miter;stroke:rgb(58%,58%,58%);stroke-opacity:1;stroke-miterlimit:10;" d="M 199.070312 222.449219 C 204.703125 228.078125 213.839844 228.078125 219.472656 222.449219 "/>
<path style="fill:none;stroke-width:4.8;stroke-linecap:round;stroke-linejoin:miter;stroke:rgb(58%,58%,58%);stroke-opacity:1;stroke-miterlimit:10;" d="M 219.472656 222.449219 C 225.105469 216.816406 225.105469 207.679688 219.472656 202.046875 L 160.328125 142.902344 "/>
<path style=" stroke:none;fill-rule:nonzero;fill:rgb(79%,79%,79%);fill-opacity:1;" d="M 191.863281 235.128906 L 191.855469 235.132812 C 186.207031 240.785156 177.109375 240.785156 171.457031 235.132812 L 112.308594 175.984375 C 106.660156 170.335938 106.660156 161.238281 112.308594 155.585938 L 112.316406 155.582031 C 117.964844 149.929688 127.0625 149.929688 132.714844 155.582031 L 191.863281 214.730469 C 197.511719 220.378906 197.511719 229.476562 191.863281 235.128906 Z M 191.863281 235.128906 "/>
<path style="fill:none;stroke-width:4.8;stroke-linecap:round;stroke-linejoin:miter;stroke:rgb(58%,58%,58%);stroke-opacity:1;stroke-miterlimit:10;" d="M 171.457031 235.128906 C 177.089844 240.761719 186.222656 240.761719 191.855469 235.128906 "/>
<path style="fill:none;stroke-width:4.8;stroke-linecap:round;stroke-linejoin:miter;stroke:rgb(58%,58%,58%);stroke-opacity:1;stroke-miterlimit:10;" d="M 191.855469 235.128906 C 197.488281 229.496094 197.488281 220.359375 191.855469 214.726562 L 132.710938 155.585938 "/>
<path style=" stroke:none;fill-rule:nonzero;fill:rgb(79%,79%,79%);fill-opacity:1;" d="M 161.839844 240.304688 C 157.601562 244.542969 150.773438 244.542969 146.535156 240.304688 L 102.179688 195.949219 C 97.941406 191.707031 97.9375 184.882812 102.175781 180.644531 C 106.414062 176.402344 113.242188 176.40625 117.480469 180.644531 L 161.835938 225 C 166.078125 229.242188 166.078125 236.066406 161.839844 240.304688 Z M 161.839844 240.304688 "/>
<path style="fill:none;stroke-width:4.8;stroke-linecap:round;stroke-linejoin:miter;stroke:rgb(58%,58%,58%);stroke-opacity:1;stroke-miterlimit:10;" d="M 146.535156 240.3125 C 150.761719 244.535156 157.617188 244.535156 161.839844 240.3125 "/>
<path style="fill:none;stroke-width:4.8;stroke-linecap:round;stroke-linejoin:miter;stroke:rgb(58%,58%,58%);stroke-opacity:1;stroke-miterlimit:10;" d="M 161.839844 240.3125 C 166.0625 236.089844 166.0625 229.230469 161.839844 225.007812 L 117.480469 180.648438 "/>
<path style=" stroke:none;fill-rule:nonzero;fill:rgb(79%,79%,79%);fill-opacity:1;" d="M 196.238281 92.375 L 165.496094 96.992188 C 158.464844 98.046875 151.960938 101.328125 146.9375 106.351562 L 124.921875 128.367188 C 117.167969 136.121094 117.167969 148.6875 124.921875 156.441406 C 132.671875 164.191406 145.238281 164.191406 152.992188 156.441406 L 173.503906 135.929688 L 221.816406 128.679688 L 253.703125 122.6875 L 230.855469 102.566406 C 221.390625 94.230469 208.71875 90.503906 196.246094 92.375 Z M 196.238281 92.375 "/>
<path style="fill:none;stroke-width:4.8;stroke-linecap:round;stroke-linejoin:miter;stroke:rgb(58%,58%,58%);stroke-opacity:1;stroke-miterlimit:10;" d="M 124.910156 156.441406 L 124.910156 156.441406 C 132.664062 164.191406 145.230469 164.191406 152.984375 156.441406 L 173.496094 135.929688 L 221.808594 128.679688 "/>
<path style="fill:none;stroke-width:4.8;stroke-linecap:round;stroke-linejoin:miter;stroke:rgb(58%,58%,58%);stroke-opacity:1;stroke-miterlimit:10;" d="M 146.9375 106.359375 L 124.921875 128.375 C 117.167969 136.128906 117.167969 148.695312 124.921875 156.449219 "/>
<path style=" stroke:none;fill-rule:nonzero;fill:rgb(79%,79%,79%);fill-opacity:1;" d="M 82.765625 177.648438 C 89.378906 179.554688 93.164062 186.414062 91.253906 193.027344 L 88.097656 203.972656 C 86.1875 210.585938 79.328125 214.375 72.71875 212.464844 C 66.105469 210.558594 62.320312 203.699219 64.230469 197.085938 L 67.390625 186.140625 C 69.296875 179.527344 76.15625 175.738281 82.765625 177.648438 Z M 82.765625 177.648438 "/>
<path style="fill:none;stroke-width:4.8;stroke-linecap:round;stroke-linejoin:miter;stroke:rgb(58%,58%,58%);stroke-opacity:1;stroke-miterlimit:10;" d="M 91.273438 193.023438 C 93.175781 186.433594 89.375 179.542969 82.785156 177.648438 "/>
<path style="fill:none;stroke-width:4.8;stroke-linecap:round;stroke-linejoin:miter;stroke:rgb(58%,58%,58%);stroke-opacity:1;stroke-miterlimit:10;" d="M 82.777344 177.648438 C 76.183594 175.742188 69.296875 179.542969 67.398438 186.136719 L 64.238281 197.089844 C 62.335938 203.679688 66.136719 210.566406 72.726562 212.464844 "/>
<path style=" stroke:none;fill-rule:nonzero;fill:rgb(79%,79%,79%);fill-opacity:1;" d="M 108.5625 185.089844 L 108.570312 185.09375 C 116.246094 187.308594 120.644531 195.273438 118.429688 202.953125 L 111.832031 225.8125 C 109.613281 233.488281 101.648438 237.886719 93.972656 235.667969 L 93.964844 235.667969 C 86.285156 233.449219 81.890625 225.484375 84.105469 217.808594 L 90.703125 194.949219 C 92.921875 187.273438 100.886719 182.875 108.5625 185.089844 Z M 108.5625 185.089844 "/>
<path style="fill:none;stroke-width:4.8;stroke-linecap:round;stroke-linejoin:miter;stroke:rgb(58%,58%,58%);stroke-opacity:1;stroke-miterlimit:10;" d="M 118.441406 202.953125 C 120.648438 195.296875 116.230469 187.296875 108.574219 185.089844 "/>
<path style="fill:none;stroke-width:4.8;stroke-linecap:round;stroke-linejoin:miter;stroke:rgb(58%,58%,58%);stroke-opacity:1;stroke-miterlimit:10;" d="M 108.574219 185.089844 C 100.921875 182.878906 92.921875 187.296875 90.710938 194.953125 L 84.121094 217.808594 C 81.910156 225.464844 86.328125 233.464844 93.984375 235.671875 "/>
<path style=" stroke:none;fill-rule:nonzero;fill:rgb(79%,79%,79%);fill-opacity:1;" d="M 136.277344 193.101562 L 136.285156 193.101562 C 143.960938 195.320312 148.359375 203.28125 146.144531 210.960938 L 138.570312 237.195312 C 136.355469 244.871094 128.390625 249.269531 120.714844 247.050781 L 120.707031 247.050781 C 113.027344 244.832031 108.632812 236.867188 110.847656 229.191406 L 118.417969 202.957031 C 120.636719 195.28125 128.601562 190.882812 136.277344 193.101562 Z M 136.277344 193.101562 "/>
<path style="fill:none;stroke-width:4.8;stroke-linecap:round;stroke-linejoin:miter;stroke:rgb(58%,58%,58%);stroke-opacity:1;stroke-miterlimit:10;" d="M 146.160156 210.953125 C 148.367188 203.296875 143.953125 195.296875 136.296875 193.089844 "/>
<path style="fill:none;stroke-width:4.8;stroke-linecap:round;stroke-linejoin:miter;stroke:rgb(58%,58%,58%);stroke-opacity:1;stroke-miterlimit:10;" d="M 136.296875 193.089844 C 128.640625 190.878906 120.640625 195.296875 118.433594 202.953125 L 110.863281 229.183594 C 108.65625 236.839844 113.070312 244.839844 120.726562 247.046875 "/>
<path style=" stroke:none;fill-rule:nonzero;fill:rgb(79%,79%,79%);fill-opacity:1;" d="M 164 201.097656 L 164.007812 201.101562 C 171.683594 203.316406 176.082031 211.28125 173.867188 218.960938 L 168.242188 238.4375 C 166.027344 246.113281 158.0625 250.511719 150.386719 248.292969 L 150.378906 248.292969 C 142.699219 246.078125 138.304688 238.113281 140.519531 230.433594 L 146.140625 210.957031 C 148.359375 203.28125 156.320312 198.882812 164 201.097656 Z M 164 201.097656 "/>
<path style="fill:none;stroke-width:4.8;stroke-linecap:round;stroke-linejoin:miter;stroke:rgb(58%,58%,58%);stroke-opacity:1;stroke-miterlimit:10;" d="M 173.878906 218.953125 C 176.089844 211.296875 171.671875 203.296875 164.015625 201.089844 "/>
<path style="fill:none;stroke-width:4.8;stroke-linecap:round;stroke-linejoin:miter;stroke:rgb(58%,58%,58%);stroke-opacity:1;stroke-miterlimit:10;" d="M 164.023438 201.089844 C 156.367188 198.878906 148.367188 203.296875 146.160156 210.953125 L 140.542969 230.425781 C 138.335938 238.078125 142.753906 246.078125 150.40625 248.289062 "/>
</g>
</svg>
