<?xml version="1.0" encoding="UTF-8"?><svg id="Layer_1" xmlns="http://www.w3.org/2000/svg" viewBox="0 0 400 400"><defs><style>.cls-1{fill:none;stroke:#d89000;stroke-linecap:round;stroke-miterlimit:10;stroke-width:6px;}.cls-2{fill:#ffcd2e;}.cls-3{fill:#59c618;}.cls-4{fill:#603913;}</style></defs><path class="cls-2" d="M171.35,109.33h0c87.66,0,158.83,71.17,158.83,158.83v37.61H50.13c-20.76,0-37.61-16.85-37.61-37.61h0c0-87.66,71.17-158.83,158.83-158.83Z"/><path class="cls-3" d="M322.78,186.36c0,9.87-11.74,17.32-15.77,26.24s-1.35,22.16-8.38,29.43c-6.48,6.7-20.37,5.01-29.05,10.27-8.01,4.85-12.62,18.01-22.14,21.37-8.89,3.14-20.83-4.08-30.74-2.46-9.35,1.53-18.27,12.27-28.27,12.27s-18.92-10.74-28.27-12.27c-9.9-1.62-21.84,5.6-30.74,2.46-9.52-3.36-14.12-16.52-22.14-21.37-8.69-5.26-22.57-3.57-29.05-10.27-7.04-7.28-4.5-20.85-8.38-29.44s-15.77-16.37-15.77-26.24,11.74-17.32,15.77-26.24,1.35-22.16,8.38-29.43c6.48-6.7,20.37-5.01,29.05-10.27,8.01-4.85,12.62-18.01,22.14-21.37,8.89-3.14,20.83,4.08,30.74,2.46,9.35-1.53,18.27-12.27,28.27-12.27,10,0,18.92,10.74,28.27,12.27,9.9,1.62,21.84-5.6,30.74-2.46,9.52,3.36,14.12,16.52,22.14,21.37,8.69,5.26,22.57,3.57,29.05,10.27,7.04,7.28,4.5,20.85,8.38,29.44,4.04,8.92,15.77,16.37,15.77,26.24Z"/><circle class="cls-4" cx="62.14" cy="248.4" r="30.09"/><circle class="cls-4" cx="81.48" cy="218.31" r="30.09"/><path class="cls-2" d="M228.65,109.33h0c87.66,0,158.83,71.17,158.83,158.83h0c0,20.76-16.85,37.61-37.61,37.61H69.81v-37.61c0-87.66,71.17-158.83,158.83-158.83Z"/><path class="cls-1" d="M228.65,109.33h0c-87.72,0-158.83,71.11-158.83,158.83h0c0,12.73-10.32,23.06-23.05,23.06h-10"/><path class="cls-1" d="M228.65,109.33c87.72,0,158.83,71.11,158.83,158.83"/></svg>