<?xml version="1.0" encoding="UTF-8"?><svg id="Layer_1" xmlns="http://www.w3.org/2000/svg" viewBox="0 0 400 400"><defs><style>.cls-1{stroke:#603111;}.cls-1,.cls-2{fill:none;stroke-linecap:round;stroke-miterlimit:10;stroke-width:6px;}.cls-2{stroke:#231f20;}.cls-3{fill:#c69b6d;}.cls-4{fill:#231f20;}.cls-5{fill:#844d28;}</style></defs><g><g><circle class="cls-5" cx="313.21" cy="123.62" r="75.2"/><circle class="cls-3" cx="313.21" cy="123.62" r="49.16"/></g><g><circle class="cls-5" cx="86.79" cy="123.62" r="75.2"/><circle class="cls-3" cx="86.79" cy="123.62" r="49.16"/></g></g><path class="cls-1" d="M139.97,176.79c-29.37,29.37-76.98,29.37-106.35,0-29.37-29.37-29.37-76.98,0-106.35"/><path class="cls-5" d="M336.11,182.68c-10.36-65.85-67.35-116.21-136.11-116.21S74.25,116.83,63.89,182.68c-21,17.52-34.37,43.89-34.37,73.38,0,52.76,42.77,95.53,95.53,95.53h149.89c52.76,0,95.53-42.77,95.53-95.53,0-29.49-13.37-55.85-34.37-73.38Z"/><path class="cls-1" d="M200,66.47c-68.76,0-125.75,50.36-136.11,116.21-21,17.52-34.37,43.89-34.37,73.38,0,52.76,42.77,95.53,95.53,95.53h149.89c52.76,0,95.53-42.77,95.53-95.53"/><g><g><ellipse class="cls-4" cx="139.18" cy="215.27" rx="23.46" ry="37.4"/><ellipse class="cls-4" cx="260.82" cy="215.27" rx="23.46" ry="37.4"/></g><g><circle class="cls-3" cx="245.79" cy="283.28" r="45.79"/><circle class="cls-3" cx="200" cy="291.3" r="45.79"/><circle class="cls-3" cx="154.21" cy="283.28" r="45.79"/><path class="cls-4" d="M170.31,231.96c17.34-13.79,42.04-13.79,59.38,0,2.85,2.27,4.22,5.92,3.59,9.51-2.77,15.87-16.62,27.93-33.28,27.93s-30.5-12.06-33.28-27.93c-.63-3.59,.73-7.24,3.59-9.51Z"/><path class="cls-2" d="M248.69,329.07c-26.89,0-48.69-21.8-48.69-48.69v0c0,26.89-21.8,48.69-48.69,48.69"/></g></g></svg>