<?xml version="1.0" encoding="UTF-8"?>
<svg xmlns="http://www.w3.org/2000/svg" xmlns:xlink="http://www.w3.org/1999/xlink" width="320pt" height="320pt" viewBox="0 0 320 320" version="1.1">
<g id="surface1">
<path style=" stroke:none;fill-rule:nonzero;fill:rgb(74%,74%,74%);fill-opacity:1;" d="M 137.695312 110.847656 L 113.375 128.40625 L 62.6875 40.9375 C 59.894531 36.121094 66.425781 31.382812 70.136719 35.527344 L 137.695312 110.855469 Z M 137.695312 110.847656 "/>
<path style="fill:none;stroke-width:4.8;stroke-linecap:round;stroke-linejoin:round;stroke:rgb(49%,49%,49%);stroke-opacity:1;stroke-miterlimit:4;" d="M 113.375 128.414062 L 62.6875 40.9375 C 59.894531 36.121094 66.425781 31.382812 70.136719 35.527344 L 96.679688 65.128906 "/>
<path style=" stroke:none;fill-rule:nonzero;fill:rgb(56%,56%,56%);fill-opacity:1;" d="M 256.214844 286.0625 C 211.144531 273.367188 168.3125 204.976562 172.105469 153.953125 C 173.183594 139.472656 178.03125 122.34375 168.585938 114.328125 C 159.496094 106.617188 146.558594 117.304688 133.855469 108.929688 C 118.984375 99.121094 101.863281 71.144531 122.671875 46.246094 C 120.097656 57.105469 131.777344 65.71875 151.800781 54.9375 C 193.472656 32.496094 229.105469 57.105469 243.871094 97.632812 C 327.625 171.296875 306.671875 242.9375 292.535156 286.0625 L 256.199219 286.0625 Z M 256.214844 286.0625 "/>
<path style=" stroke:none;fill-rule:nonzero;fill:rgb(56%,56%,56%);fill-opacity:1;" d="M 94.214844 256.542969 L 82.679688 263.375 C 64.425781 274.175781 41.175781 271.238281 26.175781 256.238281 C 8.480469 238.542969 8.519531 234.625 40.40625 202.734375 Z M 94.214844 256.542969 "/>
<path style=" stroke:none;fill-rule:nonzero;fill:rgb(100%,100%,100%);fill-opacity:1;" d="M 135.160156 286.0625 L 160.59375 239.144531 C 152.824219 242.664062 144.214844 244.480469 135.34375 244.230469 L 115.960938 243.6875 L 94.207031 256.550781 L 40.398438 202.734375 C 93.449219 152.808594 82.398438 142.695312 99.679688 125.414062 C 148.128906 76.96875 208.640625 90.96875 234.0625 135.414062 C 265.664062 190.671875 256.214844 286.054688 256.214844 286.054688 L 135.160156 286.054688 Z M 135.160156 286.0625 "/>
<path style=" stroke:none;fill-rule:nonzero;fill:rgb(13%,13%,13%);fill-opacity:1;" d="M 31.839844 237.59375 C 32.171875 242.804688 29.75 247.203125 26.429688 247.414062 C 23.109375 247.628906 20.148438 243.574219 19.816406 238.363281 C 19.480469 233.152344 21.902344 228.753906 25.222656 228.542969 C 28.542969 228.328125 31.503906 232.382812 31.839844 237.59375 Z M 31.839844 237.59375 "/>
<path style="fill:none;stroke-width:4.8;stroke-linecap:round;stroke-linejoin:miter;stroke:rgb(13%,13%,13%);stroke-opacity:1;stroke-miterlimit:10;" d="M 137.695312 146.351562 C 133.648438 150.953125 126.632812 151.398438 122.023438 147.351562 "/>
<path style=" stroke:none;fill-rule:nonzero;fill:rgb(13%,13%,13%);fill-opacity:1;" d="M 129.863281 162.089844 C 129.863281 172.386719 124.628906 180.734375 118.167969 180.734375 C 111.707031 180.734375 106.472656 172.386719 106.472656 162.089844 C 106.472656 151.789062 111.707031 143.441406 118.167969 143.441406 C 124.628906 143.441406 129.863281 151.789062 129.863281 162.089844 Z M 129.863281 162.089844 "/>
<path style=" stroke:none;fill-rule:nonzero;fill:rgb(56%,56%,56%);fill-opacity:1;" d="M 206.679688 254.414062 C 217.390625 196.871094 292.960938 204.617188 245.9375 133.40625 C 187.414062 129.183594 145.59375 214.679688 206.679688 254.414062 Z M 206.679688 254.414062 "/>
<path style=" stroke:none;fill-rule:nonzero;fill:rgb(56%,56%,56%);fill-opacity:1;" d="M 262.558594 277.585938 C 215.945312 274.398438 196.558594 180.535156 236.894531 152.214844 L 275.878906 208.097656 Z M 262.558594 277.585938 "/>
<path style=" stroke:none;fill-rule:nonzero;fill:rgb(56%,56%,56%);fill-opacity:1;" d="M 186.121094 89.671875 C 186.121094 89.671875 185.089844 114.824219 165.558594 124.414062 C 190.625 153.601562 234.054688 135.414062 234.054688 135.414062 L 213.039062 95.007812 L 186.113281 89.671875 Z M 186.121094 89.671875 "/>
<path style="fill:none;stroke-width:4.8;stroke-linecap:round;stroke-linejoin:round;stroke:rgb(56%,56%,56%);stroke-opacity:1;stroke-miterlimit:4;" d="M 234.0625 135.425781 C 208.640625 90.96875 148.128906 76.976562 99.679688 125.425781 C 82.398438 142.703125 93.449219 152.816406 40.398438 202.742188 C 8.511719 234.632812 8.464844 238.550781 26.167969 256.246094 C 41.167969 271.246094 64.414062 274.183594 82.671875 263.382812 L 94.207031 256.550781 L 115.960938 243.6875 L 135.34375 244.230469 C 144.222656 244.480469 152.832031 242.671875 160.601562 239.144531 L 135.167969 286.0625 "/>
<path style="fill:none;stroke-width:4.8;stroke-linecap:round;stroke-linejoin:miter;stroke:rgb(13%,13%,13%);stroke-opacity:1;stroke-miterlimit:10;" d="M 75.648438 251.792969 C 73.96875 261.382812 64.832031 267.808594 55.238281 266.128906 "/>
<path style=" stroke:none;fill-rule:nonzero;fill:rgb(100%,100%,100%);fill-opacity:1;" d="M 160.265625 129.191406 C 180.175781 129.191406 196.3125 113.054688 196.3125 93.144531 C 196.3125 73.230469 180.175781 57.097656 160.265625 57.097656 Z M 160.265625 129.191406 "/>
</g>
</svg>
