<?xml version="1.0" encoding="UTF-8"?>
<svg xmlns="http://www.w3.org/2000/svg" xmlns:xlink="http://www.w3.org/1999/xlink" width="320pt" height="320pt" viewBox="0 0 320 320" version="1.1">
<g id="surface1">
<path style=" stroke:none;fill-rule:nonzero;fill:rgb(24%,24%,24%);fill-opacity:1;" d="M 232.800781 87.414062 C 256.777344 78.6875 272.953125 58.039062 277.113281 34.601562 C 286.097656 42.128906 293.296875 52.03125 297.59375 63.832031 C 310.617188 99.617188 292.167969 139.183594 256.382812 152.207031 Z M 232.800781 87.414062 "/>
<path style=" stroke:none;fill-rule:nonzero;fill:rgb(24%,24%,24%);fill-opacity:1;" d="M 87.199219 87.414062 C 63.222656 78.6875 47.046875 58.039062 42.886719 34.601562 C 33.902344 42.128906 26.703125 52.03125 22.40625 63.832031 C 9.382812 99.617188 27.832031 139.183594 63.617188 152.207031 Z M 87.199219 87.414062 "/>
<path style=" stroke:none;fill-rule:nonzero;fill:rgb(36%,36%,36%);fill-opacity:1;" d="M 273.742188 170.304688 C 273.742188 233.871094 222.214844 285.398438 158.648438 285.398438 C 95.082031 285.398438 43.550781 233.871094 43.550781 170.304688 C 43.550781 106.738281 95.082031 55.207031 158.648438 55.207031 C 222.214844 55.207031 273.742188 106.738281 273.742188 170.304688 Z M 273.742188 170.304688 "/>
<path style="fill:none;stroke-width:4.8;stroke-linecap:round;stroke-linejoin:miter;stroke:rgb(24%,24%,24%);stroke-opacity:1;stroke-miterlimit:10;" d="M 273.753906 170.304688 C 273.753906 233.871094 222.222656 285.398438 158.65625 285.398438 C 95.089844 285.398438 43.550781 233.871094 43.550781 170.304688 C 43.550781 106.734375 95.078125 55.199219 158.648438 55.199219 "/>
<path style=" stroke:none;fill-rule:nonzero;fill:rgb(13%,13%,13%);fill-opacity:1;" d="M 137.550781 178.335938 C 137.550781 193.964844 129.609375 206.632812 119.808594 206.632812 C 110.007812 206.632812 102.0625 193.964844 102.0625 178.335938 C 102.0625 162.707031 110.007812 150.039062 119.808594 150.039062 C 129.609375 150.039062 137.550781 162.707031 137.550781 178.335938 Z M 137.550781 178.335938 "/>
<path style=" stroke:none;fill-rule:nonzero;fill:rgb(13%,13%,13%);fill-opacity:1;" d="M 215.238281 178.335938 C 215.238281 193.964844 207.296875 206.632812 197.496094 206.632812 C 187.695312 206.632812 179.753906 193.964844 179.753906 178.335938 C 179.753906 162.707031 187.695312 150.039062 197.496094 150.039062 C 207.296875 150.039062 215.238281 162.707031 215.238281 178.335938 Z M 215.238281 178.335938 "/>
<path style="fill:none;stroke-width:8;stroke-linecap:round;stroke-linejoin:miter;stroke:rgb(13%,13%,13%);stroke-opacity:1;stroke-miterlimit:10;" d="M 216.679688 229.359375 C 184.632812 261.40625 132.664062 261.40625 100.617188 229.359375 "/>
<path style="fill:none;stroke-width:8;stroke-linecap:round;stroke-linejoin:miter;stroke:rgb(13%,13%,13%);stroke-opacity:1;stroke-miterlimit:10;" d="M 179.753906 157.601562 L 222.734375 142.007812 "/>
<path style="fill:none;stroke-width:8;stroke-linecap:round;stroke-linejoin:miter;stroke:rgb(13%,13%,13%);stroke-opacity:1;stroke-miterlimit:10;" d="M 137.550781 157.601562 L 94.566406 142.007812 "/>
</g>
</svg>
