<?xml version="1.0" encoding="UTF-8"?><svg id="Layer_1" xmlns="http://www.w3.org/2000/svg" viewBox="0 0 400 400"><defs><style>.cls-1{fill:none;stroke:#d89000;stroke-linecap:round;stroke-miterlimit:10;stroke-width:6px;}.cls-2{fill:#ffcd2e;}</style></defs><g><path class="cls-2" d="M158.07,115.47l38.43,5.77c8.79,1.32,16.92,5.42,23.2,11.7l27.52,27.52c9.69,9.69,9.69,25.4,0,35.09h0c-9.69,9.69-25.4,9.69-35.09,0l-25.64-25.64-60.39-9.06-39.86-7.49,28.56-25.15c11.83-10.42,27.67-15.08,43.26-12.74Z"/><path class="cls-1" d="M247.23,195.55h0c-9.69,9.69-25.4,9.69-35.09,0l-25.64-25.64-60.39-9.06"/><path class="cls-1" d="M219.71,132.95l27.52,27.52c9.69,9.69,9.69,25.4,0,35.09"/></g><path class="cls-2" d="M47.35,88.93L5.86,202.92l48.61,17.69c9.34,3.4,17.22,9.9,22.34,18.41h0c5.12,8.52,13,15.02,22.34,18.41l98.62,35.9,48.1-132.15L47.35,88.93Z"/><path class="cls-2" d="M352.65,88.93l41.49,113.99-48.61,17.69c-9.34,3.4-17.22,9.9-22.34,18.41h0c-5.12,8.52-13,15.02-22.34,18.41l-98.62,35.9-48.1-132.15,198.53-72.26Z"/><g><g><rect class="cls-2" x="242.62" y="143.68" width="36.07" height="140.62" rx="18.03" ry="18.03" transform="translate(596.27 180.99) rotate(135)"/><path class="cls-1" d="M284.86,263.71c7.04,7.04,18.46,7.04,25.5,0h0"/><path class="cls-1" d="M310.37,263.71c7.04-7.04,7.04-18.46,0-25.5l-73.93-73.93"/></g><g><rect class="cls-2" x="206.59" y="158.03" width="36.07" height="140.62" rx="18.03" ry="18.03" transform="translate(544.92 230.97) rotate(135)"/><path class="cls-1" d="M248.84,278.06c7.04,7.04,18.46,7.04,25.5,0h0"/><path class="cls-1" d="M274.34,278.06c7.04-7.04,7.04-18.46,0-25.5l-73.93-73.93"/></g><g><rect class="cls-2" x="172.07" y="173.88" width="36.07" height="140.62" rx="18.03" ry="18.03" transform="translate(497.2 282.44) rotate(135)"/><path class="cls-1" d="M214.32,293.91c7.04,7.04,18.46,7.04,25.5,0h0"/><path class="cls-1" d="M239.82,293.91c7.04-7.04,7.04-18.46,0-25.5l-73.93-73.93"/></g><g><rect class="cls-2" x="151.48" y="210.37" width="27.05" height="105.47" rx="13.53" ry="13.53" transform="translate(467.73 332.46) rotate(135)"/><path class="cls-1" d="M183.17,300.39c5.28,5.28,13.85,5.28,19.13,0h0"/><path class="cls-1" d="M202.3,300.39c5.28-5.28,5.28-13.85,0-19.13l-55.45-55.45"/></g></g><g><path class="cls-2" d="M245.3,115.47l-38.43,5.77c-8.79,1.32-16.92,5.42-23.2,11.7l-27.52,27.52c-9.69,9.69-9.69,25.4,0,35.09h0c9.69,9.69,25.4,9.69,35.09,0l25.64-25.64,60.39-9.06,39.86-7.49-28.56-25.15c-11.83-10.42-27.67-15.08-43.26-12.74Z"/><path class="cls-1" d="M156.14,195.55h0c9.69,9.69,25.4,9.69,35.09,0l25.64-25.64,60.39-9.06"/><path class="cls-1" d="M183.67,132.95l-27.52,27.52c-9.69,9.69-9.69,25.4,0,35.09"/></g><g><g><rect class="cls-2" x="81.67" y="221.17" width="31.05" height="45.3" rx="15.53" ry="15.53" transform="translate(71.41 -17.39) rotate(16.1)"/><path class="cls-1" d="M114.09,241.28c2.38-8.24-2.37-16.85-10.61-19.22h0"/><path class="cls-1" d="M103.47,222.06c-8.24-2.38-16.85,2.37-19.22,10.61l-3.95,13.69c-2.38,8.24,2.37,16.85,10.61,19.22h0"/></g><g><rect class="cls-2" x="108.57" y="230.07" width="36.07" height="65.8" rx="18.03" ry="18.03" transform="translate(77.87 -24.79) rotate(16.1)"/><path class="cls-1" d="M148.05,253.69c2.76-9.57-2.76-19.57-12.33-22.33h0"/><path class="cls-1" d="M135.72,231.36c-9.57-2.76-19.57,2.76-22.33,12.33l-8.24,28.57c-2.76,9.57,2.76,19.57,12.33,22.33h0"/></g><g><rect class="cls-2" x="142.61" y="239.99" width="36.07" height="70.19" rx="18.03" ry="18.03" transform="translate(82.56 -33.75) rotate(16.1)"/><path class="cls-1" d="M182.7,263.69c2.76-9.57-2.76-19.57-12.33-22.33h0"/><path class="cls-1" d="M170.37,241.36c-9.57-2.76-19.57,2.76-22.33,12.33l-9.46,32.79c-2.76,9.57,2.76,19.57,12.33,22.33h0"/></g><g><rect class="cls-2" x="178.48" y="250.16" width="36.07" height="61.4" rx="18.03" ry="18.03" transform="translate(85.57 -43.47) rotate(16.1)"/><path class="cls-1" d="M217.35,273.69c2.76-9.57-2.76-19.57-12.33-22.33h0"/><path class="cls-1" d="M205.03,251.36c-9.57-2.76-19.57,2.76-22.33,12.33l-7.02,24.34c-2.76,9.57,2.76,19.57,12.33,22.33h0"/></g></g></svg>