<?xml version="1.0" encoding="UTF-8"?>
<svg xmlns="http://www.w3.org/2000/svg" xmlns:xlink="http://www.w3.org/1999/xlink" width="320pt" height="320pt" viewBox="0 0 320 320" version="1.1">
<g id="surface1">
<path style=" stroke:none;fill-rule:nonzero;fill:rgb(35%,35%,35%);fill-opacity:1;" d="M 310.726562 98.894531 C 310.726562 132.121094 283.792969 159.054688 250.566406 159.054688 C 217.34375 159.054688 190.40625 132.121094 190.40625 98.894531 C 190.40625 65.671875 217.34375 38.734375 250.566406 38.734375 C 283.792969 38.734375 310.726562 65.671875 310.726562 98.894531 Z M 310.726562 98.894531 "/>
<path style=" stroke:none;fill-rule:nonzero;fill:rgb(64%,64%,64%);fill-opacity:1;" d="M 289.894531 98.894531 C 289.894531 120.617188 272.289062 138.222656 250.566406 138.222656 C 228.847656 138.222656 211.238281 120.617188 211.238281 98.894531 C 211.238281 77.175781 228.847656 59.566406 250.566406 59.566406 C 272.289062 59.566406 289.894531 77.175781 289.894531 98.894531 Z M 289.894531 98.894531 "/>
<path style=" stroke:none;fill-rule:nonzero;fill:rgb(35%,35%,35%);fill-opacity:1;" d="M 129.59375 98.894531 C 129.59375 132.121094 102.65625 159.054688 69.433594 159.054688 C 36.207031 159.054688 9.273438 132.121094 9.273438 98.894531 C 9.273438 65.671875 36.207031 38.734375 69.433594 38.734375 C 102.65625 38.734375 129.59375 65.671875 129.59375 98.894531 Z M 129.59375 98.894531 "/>
<path style=" stroke:none;fill-rule:nonzero;fill:rgb(64%,64%,64%);fill-opacity:1;" d="M 108.761719 98.894531 C 108.761719 120.617188 91.152344 138.222656 69.433594 138.222656 C 47.710938 138.222656 30.105469 120.617188 30.105469 98.894531 C 30.105469 77.175781 47.710938 59.566406 69.433594 59.566406 C 91.152344 59.566406 108.761719 77.175781 108.761719 98.894531 Z M 108.761719 98.894531 "/>
<path style="fill:none;stroke-width:4.8;stroke-linecap:round;stroke-linejoin:miter;stroke:rgb(23%,23%,23%);stroke-opacity:1;stroke-miterlimit:10;" d="M 111.976562 141.433594 C 88.480469 164.929688 50.390625 164.929688 26.894531 141.433594 C 3.398438 117.9375 3.398438 79.847656 26.894531 56.351562 "/>
<path style=" stroke:none;fill-rule:nonzero;fill:rgb(35%,35%,35%);fill-opacity:1;" d="M 268.886719 146.144531 C 260.601562 93.464844 215.007812 53.175781 160 53.175781 C 104.992188 53.175781 59.398438 93.464844 51.113281 146.144531 C 34.3125 160.160156 23.617188 181.257812 23.617188 204.847656 C 23.617188 247.054688 57.832031 281.273438 100.039062 281.273438 L 219.953125 281.273438 C 262.160156 281.273438 296.375 247.054688 296.375 204.847656 C 296.375 181.257812 285.679688 160.167969 268.878906 146.144531 Z M 268.886719 146.144531 "/>
<path style="fill:none;stroke-width:4.8;stroke-linecap:round;stroke-linejoin:miter;stroke:rgb(23%,23%,23%);stroke-opacity:1;stroke-miterlimit:10;" d="M 160 53.175781 C 104.992188 53.175781 59.398438 93.464844 51.113281 146.144531 C 34.3125 160.160156 23.617188 181.257812 23.617188 204.847656 C 23.617188 247.054688 57.832031 281.273438 100.039062 281.273438 L 219.953125 281.273438 C 262.160156 281.273438 296.375 247.054688 296.375 204.847656 "/>
<path style=" stroke:none;fill-rule:nonzero;fill:rgb(13%,13%,13%);fill-opacity:1;" d="M 130.113281 172.214844 C 130.113281 188.742188 121.710938 202.136719 111.34375 202.136719 C 100.980469 202.136719 92.574219 188.742188 92.574219 172.214844 C 92.574219 155.691406 100.980469 142.296875 111.34375 142.296875 C 121.710938 142.296875 130.113281 155.691406 130.113281 172.214844 Z M 130.113281 172.214844 "/>
<path style=" stroke:none;fill-rule:nonzero;fill:rgb(13%,13%,13%);fill-opacity:1;" d="M 227.425781 172.214844 C 227.425781 188.742188 219.019531 202.136719 208.65625 202.136719 C 198.289062 202.136719 189.886719 188.742188 189.886719 172.214844 C 189.886719 155.691406 198.289062 142.296875 208.65625 142.296875 C 219.019531 142.296875 227.425781 155.691406 227.425781 172.214844 Z M 227.425781 172.214844 "/>
<path style=" stroke:none;fill-rule:nonzero;fill:rgb(64%,64%,64%);fill-opacity:1;" d="M 233.265625 226.625 C 233.265625 246.855469 216.863281 263.257812 196.632812 263.257812 C 176.402344 263.257812 160 246.855469 160 226.625 C 160 206.394531 176.402344 189.992188 196.632812 189.992188 C 216.863281 189.992188 233.265625 206.394531 233.265625 226.625 Z M 233.265625 226.625 "/>
<path style=" stroke:none;fill-rule:nonzero;fill:rgb(64%,64%,64%);fill-opacity:1;" d="M 196.632812 233.039062 C 196.632812 253.269531 180.230469 269.671875 160 269.671875 C 139.769531 269.671875 123.367188 253.269531 123.367188 233.039062 C 123.367188 212.808594 139.769531 196.40625 160 196.40625 C 180.230469 196.40625 196.632812 212.808594 196.632812 233.039062 Z M 196.632812 233.039062 "/>
<path style=" stroke:none;fill-rule:nonzero;fill:rgb(64%,64%,64%);fill-opacity:1;" d="M 160 226.625 C 160 246.855469 143.597656 263.257812 123.367188 263.257812 C 103.136719 263.257812 86.734375 246.855469 86.734375 226.625 C 86.734375 206.394531 103.136719 189.992188 123.367188 189.992188 C 143.597656 189.992188 160 206.394531 160 226.625 Z M 160 226.625 "/>
<path style=" stroke:none;fill-rule:nonzero;fill:rgb(13%,13%,13%);fill-opacity:1;" d="M 136.246094 185.566406 C 150.121094 174.535156 169.878906 174.535156 183.753906 185.566406 C 186.03125 187.382812 187.128906 190.304688 186.625 193.175781 C 184.40625 205.871094 173.328125 215.519531 160 215.519531 C 146.671875 215.519531 135.601562 205.871094 133.375 193.175781 C 132.871094 190.304688 133.960938 187.382812 136.246094 185.566406 Z M 136.246094 185.566406 "/>
<path style="fill:none;stroke-width:4.8;stroke-linecap:round;stroke-linejoin:miter;stroke:rgb(13%,13%,13%);stroke-opacity:1;stroke-miterlimit:10;" d="M 198.953125 263.257812 C 177.441406 263.257812 160 245.816406 160 224.304688 C 160 245.816406 142.558594 263.257812 121.046875 263.257812 "/>
</g>
</svg>
