<?xml version="1.0" encoding="UTF-8"?>
<svg xmlns="http://www.w3.org/2000/svg" xmlns:xlink="http://www.w3.org/1999/xlink" width="320pt" height="320pt" viewBox="0 0 320 320" version="1.1">
<g id="surface1">
<path style=" stroke:none;fill-rule:nonzero;fill:rgb(79%,79%,79%);fill-opacity:1;" d="M 137.078125 87.464844 L 137.078125 87.464844 C 207.207031 87.464844 264.144531 144.398438 264.144531 214.527344 L 264.144531 244.617188 L 40.105469 244.617188 C 23.496094 244.617188 10.015625 231.136719 10.015625 214.527344 C 10.015625 144.398438 66.953125 87.464844 137.078125 87.464844 Z M 137.078125 87.464844 "/>
<path style=" stroke:none;fill-rule:nonzero;fill:rgb(57%,57%,57%);fill-opacity:1;" d="M 258.222656 149.089844 C 258.222656 156.984375 248.832031 162.945312 245.609375 170.078125 C 242.382812 177.214844 244.527344 187.808594 238.902344 193.625 C 233.71875 198.984375 222.609375 197.632812 215.664062 201.839844 C 209.257812 205.71875 205.566406 216.246094 197.953125 218.9375 C 190.839844 221.449219 181.289062 215.671875 173.359375 216.96875 C 165.878906 218.191406 158.742188 226.785156 150.742188 226.785156 C 142.742188 226.785156 135.609375 218.191406 128.128906 216.96875 C 120.207031 215.671875 110.65625 221.449219 103.535156 218.9375 C 95.921875 216.246094 92.238281 205.71875 85.824219 201.839844 C 78.871094 197.632812 67.769531 198.984375 62.585938 193.625 C 56.953125 187.800781 58.984375 176.945312 55.878906 170.070312 C 52.777344 163.199219 43.265625 156.976562 43.265625 149.078125 C 43.265625 141.183594 52.65625 135.222656 55.878906 128.089844 C 59.105469 120.953125 56.960938 110.359375 62.585938 104.542969 C 67.769531 99.183594 78.878906 100.535156 85.824219 96.328125 C 92.230469 92.449219 95.921875 81.921875 103.535156 79.230469 C 110.648438 76.71875 120.199219 82.496094 128.128906 81.199219 C 135.609375 79.976562 142.742188 71.382812 150.742188 71.382812 C 158.742188 71.382812 165.878906 79.976562 173.359375 81.199219 C 181.28125 82.496094 190.832031 76.71875 197.953125 79.230469 C 205.566406 81.921875 209.246094 92.449219 215.664062 96.328125 C 222.617188 100.535156 233.71875 99.183594 238.902344 104.542969 C 244.535156 110.367188 242.503906 121.222656 245.609375 128.097656 C 248.839844 135.230469 258.222656 141.191406 258.222656 149.089844 Z M 258.222656 149.089844 "/>
<path style=" stroke:none;fill-rule:nonzero;fill:rgb(25%,25%,25%);fill-opacity:1;" d="M 73.785156 198.71875 C 73.785156 212.015625 63.007812 222.792969 49.710938 222.792969 C 36.417969 222.792969 25.640625 212.015625 25.640625 198.71875 C 25.640625 185.425781 36.417969 174.648438 49.710938 174.648438 C 63.007812 174.648438 73.785156 185.425781 73.785156 198.71875 Z M 73.785156 198.71875 "/>
<path style=" stroke:none;fill-rule:nonzero;fill:rgb(25%,25%,25%);fill-opacity:1;" d="M 89.257812 174.648438 C 89.257812 187.941406 78.480469 198.71875 65.183594 198.71875 C 51.890625 198.71875 41.113281 187.941406 41.113281 174.648438 C 41.113281 161.351562 51.890625 150.574219 65.183594 150.574219 C 78.480469 150.574219 89.257812 161.351562 89.257812 174.648438 Z M 89.257812 174.648438 "/>
<path style=" stroke:none;fill-rule:nonzero;fill:rgb(79%,79%,79%);fill-opacity:1;" d="M 182.921875 87.464844 L 182.921875 87.464844 C 253.046875 87.464844 309.984375 144.398438 309.984375 214.527344 C 309.984375 231.136719 296.503906 244.617188 279.894531 244.617188 L 55.847656 244.617188 L 55.847656 214.527344 C 55.847656 144.398438 112.785156 87.464844 182.910156 87.464844 Z M 182.921875 87.464844 "/>
<path style="fill:none;stroke-width:4.8;stroke-linecap:round;stroke-linejoin:miter;stroke:rgb(58%,58%,58%);stroke-opacity:1;stroke-miterlimit:10;" d="M 182.921875 87.464844 L 182.921875 87.464844 C 112.742188 87.464844 55.855469 144.351562 55.855469 214.527344 C 55.855469 224.710938 47.601562 232.976562 37.414062 232.976562 L 29.414062 232.976562 "/>
<path style="fill:none;stroke-width:4.8;stroke-linecap:round;stroke-linejoin:miter;stroke:rgb(58%,58%,58%);stroke-opacity:1;stroke-miterlimit:10;" d="M 182.921875 87.464844 C 253.097656 87.464844 309.984375 144.351562 309.984375 214.527344 "/>
</g>
</svg>
