<?xml version="1.0" encoding="UTF-8"?><svg id="Layer_1" xmlns="http://www.w3.org/2000/svg" viewBox="0 0 400 400"><defs><style>.cls-1{fill:none;stroke:#009be8;stroke-linecap:round;stroke-miterlimit:10;stroke-width:6px;}.cls-2{fill:#c5efff;}.cls-3{fill:#41bfff;}</style></defs><g><path class="cls-3" d="M194.78,258.6c10.84,42.46-14.79,85.66-57.25,96.5-42.46,10.84-85.66-14.79-96.5-57.25-16.66-65.25,36.26-178.73,36.26-178.73,0,0,100.83,74.24,117.49,139.49Z"/><path class="cls-1" d="M194.78,258.6c10.84,42.46-14.79,85.66-57.25,96.5-42.46,10.84-85.66-14.79-96.5-57.25-16.66-65.25,36.26-178.73,36.26-178.73"/><path class="cls-1" d="M194.78,258.6c10.84,42.46-14.79,85.66-57.25,96.5-42.46,10.84-85.66-14.79-96.5-57.25-16.66-65.25,36.26-178.73,36.26-178.73"/><path class="cls-2" d="M160.66,232.14c7.22,28.27-9.85,57.03-38.11,64.24-28.27,7.22-57.03-9.85-64.24-38.11-11.09-43.44,24.14-119,24.14-119,0,0,67.13,49.43,78.22,92.87Z"/></g><g><path class="cls-3" d="M348.33,282.55c14.11,23.4,6.57,53.81-16.83,67.91-23.4,14.11-53.81,6.57-67.91-16.83-21.68-35.96-10.5-113.24-10.5-113.24,0,0,73.56,26.19,95.24,62.16Z"/><path class="cls-1" d="M348.33,282.55c14.11,23.4,6.57,53.81-16.83,67.91-23.4,14.11-53.81,6.57-67.91-16.83-21.68-35.96-10.5-113.24-10.5-113.24"/><path class="cls-1" d="M348.33,282.55c14.11,23.4,6.57,53.81-16.83,67.91-23.4,14.11-53.81,6.57-67.91-16.83-21.68-35.96-10.5-113.24-10.5-113.24"/><path class="cls-2" d="M323.2,272.89c9.39,15.58,4.38,35.82-11.2,45.22s-35.82,4.38-45.22-11.2c-14.43-23.94-6.99-75.39-6.99-75.39,0,0,48.97,17.44,63.41,41.38Z"/></g><g><path class="cls-3" d="M304.64,44.08c38.61,7.56,63.79,44.99,56.22,83.61-7.56,38.61-44.99,63.79-83.61,56.22-59.34-11.62-131.02-98.26-131.02-98.26,0,0,99.06-53.2,158.41-41.58Z"/><path class="cls-1" d="M304.64,44.08c38.61,7.56,63.79,44.99,56.22,83.61-7.56,38.61-44.99,63.79-83.61,56.22-59.34-11.62-131.02-98.26-131.02-98.26"/><path class="cls-1" d="M304.64,44.08c38.61,7.56,63.79,44.99,56.22,83.61-7.56,38.61-44.99,63.79-83.61,56.22-59.34-11.62-131.02-98.26-131.02-98.26"/><path class="cls-2" d="M270.04,61.57c25.71,5.03,42.47,29.96,37.43,55.66s-29.96,42.47-55.66,37.43c-39.51-7.74-87.23-65.42-87.23-65.42,0,0,65.95-35.42,105.46-27.68Z"/></g></svg>