<?xml version="1.0" encoding="UTF-8"?>
<svg xmlns="http://www.w3.org/2000/svg" xmlns:xlink="http://www.w3.org/1999/xlink" width="320pt" height="320pt" viewBox="0 0 320 320" version="1.1">
<g id="surface1">
<path style=" stroke:none;fill-rule:nonzero;fill:rgb(36%,36%,36%);fill-opacity:1;" d="M 162.183594 92.414062 C 170.664062 107.015625 180.039062 121.078125 191.136719 132.742188 C 214.144531 156.929688 236.113281 150.183594 258.382812 188.457031 C 268.785156 206.320312 276.238281 249.664062 234.144531 276.566406 C 200.703125 297.9375 156.800781 289.414062 126.046875 261.382812 C 90.367188 228.855469 71.191406 178.726562 60.535156 131.808594 C 46.128906 68.351562 130.617188 36.359375 162.191406 92.425781 Z M 162.183594 92.414062 "/>
<path style="fill:none;stroke-width:4.8;stroke-linecap:round;stroke-linejoin:miter;stroke:rgb(24%,24%,24%);stroke-opacity:1;stroke-miterlimit:10;" d="M 258.382812 188.464844 C 268.785156 206.328125 276.238281 249.671875 234.144531 276.574219 C 200.703125 297.945312 156.800781 289.425781 126.046875 261.390625 C 90.367188 228.863281 71.191406 178.734375 60.535156 131.816406 "/>
<path style=" stroke:none;fill-rule:nonzero;fill:rgb(57%,57%,57%);fill-opacity:1;" d="M 84.816406 110.390625 C 78.59375 95.511719 78.527344 79.113281 84.640625 64.207031 C 90.753906 49.304688 102.3125 37.671875 117.191406 31.449219 L 121.296875 41.265625 C 109.039062 46.390625 99.519531 55.976562 94.488281 68.246094 C 89.457031 80.519531 89.503906 94.03125 94.632812 106.28125 L 84.816406 110.382812 Z M 84.816406 110.390625 "/>
<path style=" stroke:none;fill-rule:nonzero;fill:rgb(57%,57%,57%);fill-opacity:1;" d="M 167.222656 93.0625 C 154.625 62.9375 119.976562 48.726562 89.847656 61.335938 C 59.71875 73.9375 45.511719 108.585938 58.121094 138.710938 C 71.480469 133.121094 81.710938 123.191406 87.855469 111.257812 C 94.128906 118.28125 103.886719 123.382812 116.703125 125.519531 C 124.175781 114.886719 127.398438 104.359375 126.800781 94.960938 C 139.625 98.96875 153.871094 98.65625 167.230469 93.0625 Z M 167.222656 93.0625 "/>
<path style="fill:none;stroke-width:4.8;stroke-linecap:round;stroke-linejoin:round;stroke:rgb(44%,44%,44%);stroke-opacity:1;stroke-miterlimit:4;" d="M 89.847656 61.335938 C 59.71875 73.9375 45.511719 108.585938 58.121094 138.710938 C 71.480469 133.121094 81.710938 123.191406 87.855469 111.257812 C 94.128906 118.28125 103.886719 123.382812 116.703125 125.519531 "/>
</g>
</svg>
